<?xml version="1.0" encoding="UTF-8" standalone="no"?>
<!-- Created with Inkscape (http://www.inkscape.org/) -->

<svg
   version="1.1"
   id="svg2"
   width="666.66669"
   height="666.66669"
   viewBox="0 0 666.66669 666.66669"
   sodipodi:docname="7900575.eps"
   xmlns:inkscape="http://www.inkscape.org/namespaces/inkscape"
   xmlns:sodipodi="http://sodipodi.sourceforge.net/DTD/sodipodi-0.dtd"
   xmlns="http://www.w3.org/2000/svg"
   xmlns:svg="http://www.w3.org/2000/svg">
  <defs
     id="defs6" />
  <sodipodi:namedview
     id="namedview4"
     pagecolor="#ffffff"
     bordercolor="#000000"
     borderopacity="0.25"
     inkscape:showpageshadow="2"
     inkscape:pageopacity="0.0"
     inkscape:pagecheckerboard="0"
     inkscape:deskcolor="#d1d1d1" />
  <g
     id="g8"
     inkscape:groupmode="layer"
     inkscape:label="ink_ext_XXXXXX"
     transform="matrix(1.3333333,0,0,-1.3333333,0,666.66667)">
    <g
       id="g10"
       transform="scale(0.1)">
      <path
         d="M 5000,0 H 0 V 5000 H 5000 V 0"
         style="fill:#ffffff;fill-opacity:1;fill-rule:nonzero;stroke:none"
         id="path12" />
      <path
         d="M 2460.51,4847.19 C 1456.06,4847.19 641.695,4299.2 641.695,3623.32 h 242.067 c 0,585.93 705.988,1060.98 1576.748,1060.98 870.89,0 1576.76,-475.05 1576.76,-1060.98 h 242.06 c 0,675.88 -814.25,1223.87 -1818.82,1223.87"
         style="fill:#ffffff;fill-opacity:1;fill-rule:nonzero;stroke:none"
         id="path14" />
      <path
         d="M 2460.51,4847.19 C 1456.06,4847.19 641.695,4299.2 641.695,3623.32 h 242.067 c 0,585.93 705.988,1060.98 1576.748,1060.98 870.89,0 1576.76,-475.05 1576.76,-1060.98 h 242.06 c 0,675.88 -814.25,1223.87 -1818.82,1223.87 z"
         style="fill:none;stroke:#2f2e2f;stroke-width:20;stroke-linecap:round;stroke-linejoin:round;stroke-miterlimit:10;stroke-dasharray:none;stroke-opacity:1"
         id="path16" />
      <path
         d="m 2460.51,4684.3 c -870.76,0 -1576.748,-475.05 -1576.748,-1060.98 h 229.008 c 0,500.86 603.4,906.89 1347.74,906.89 744.34,0 1347.74,-406.03 1347.74,-906.89 h 229.02 c 0,585.93 -705.87,1060.98 -1576.76,1060.98"
         style="fill:#ffffff;fill-opacity:1;fill-rule:nonzero;stroke:none"
         id="path18" />
      <path
         d="m 2460.51,4684.3 c -870.76,0 -1576.748,-475.05 -1576.748,-1060.98 h 229.008 c 0,500.86 603.4,906.89 1347.74,906.89 744.34,0 1347.74,-406.03 1347.74,-906.89 h 229.02 c 0,585.93 -705.87,1060.98 -1576.76,1060.98 z"
         style="fill:none;stroke:#2f2e2f;stroke-width:20;stroke-linecap:round;stroke-linejoin:round;stroke-miterlimit:10;stroke-dasharray:none;stroke-opacity:1"
         id="path20" />
      <path
         d="m 2460.51,4530.21 c -744.34,0 -1347.74,-406.03 -1347.74,-906.89 h 268.27 c 0,401.13 483.33,726.36 1079.47,726.36 596.25,0 1079.58,-325.23 1079.58,-726.36 h 268.16 c 0,500.86 -603.4,906.89 -1347.74,906.89"
         style="fill:#ffffff;fill-opacity:1;fill-rule:nonzero;stroke:none"
         id="path22" />
      <path
         d="m 2460.51,4530.21 c -744.34,0 -1347.74,-406.03 -1347.74,-906.89 h 268.27 c 0,401.13 483.33,726.36 1079.47,726.36 596.25,0 1079.58,-325.23 1079.58,-726.36 h 268.16 c 0,500.86 -603.4,906.89 -1347.74,906.89 z"
         style="fill:none;stroke:#2f2e2f;stroke-width:20;stroke-linecap:round;stroke-linejoin:round;stroke-miterlimit:10;stroke-dasharray:none;stroke-opacity:1"
         id="path24" />
      <path
         d="m 1142.31,3751.96 c -33.28,75.51 -118.88,124.26 -200.802,114.37 -81.914,-9.89 -153.449,-77.62 -167.801,-158.87 -64.609,57.31 -187.203,68.66 -254.141,14.09 -66.933,-54.58 -86.222,-159.42 -43.089,-234.24 -54.52,-10.61 -103.375,-62.96 -114.09,-117.47 -10.707,-54.49 8.086,-112.39 43.234,-155.4 37.887,-46.36 94.574,-76.89 154.137,-83.01 59.562,-6.13 121.277,12.24 167.801,49.93 26.523,-92.96 126.867,-148.46 223.418,-143.73 96.553,4.74 184.753,82.08 202.053,177.19 60.03,-35.1 114.1,-57.02 183.56,-60.58 69.45,-3.57 143.49,22.69 183.02,79.91 39.54,57.22 32.84,146.32 -23.83,186.64 68.71,-1.1 116.72,50.78 136.47,116.6 19.74,65.82 -9.01,143.08 -66.98,179.98 -57.97,36.9 -140.13,30.25 -191.41,-15.49 -41.42,60.67 -168.68,88.09 -231.55,50.08"
         style="fill:#ffffff;fill-opacity:1;fill-rule:nonzero;stroke:none"
         id="path26" />
      <path
         d="m 1142.31,3751.96 c -33.28,75.51 -118.88,124.26 -200.802,114.37 -81.914,-9.89 -153.449,-77.62 -167.801,-158.87 -64.609,57.31 -187.203,68.66 -254.141,14.09 -66.933,-54.58 -86.222,-159.42 -43.089,-234.24 -54.52,-10.61 -103.375,-62.96 -114.09,-117.47 -10.707,-54.49 8.086,-112.39 43.234,-155.4 37.887,-46.36 94.574,-76.89 154.137,-83.01 59.562,-6.13 121.277,12.24 167.801,49.93 26.523,-92.96 126.867,-148.46 223.418,-143.73 96.553,4.74 184.753,82.08 202.053,177.19 60.03,-35.1 114.1,-57.02 183.56,-60.58 69.45,-3.57 143.49,22.69 183.02,79.91 39.54,57.22 32.84,146.32 -23.83,186.64 68.71,-1.1 116.72,50.78 136.47,116.6 19.74,65.82 -9.01,143.08 -66.98,179.98 -57.97,36.9 -140.13,30.25 -191.41,-15.49 -41.42,60.67 -168.68,88.09 -231.55,50.08 z"
         style="fill:none;stroke:#2f2e2f;stroke-width:20;stroke-linecap:round;stroke-linejoin:round;stroke-miterlimit:10;stroke-dasharray:none;stroke-opacity:1"
         id="path28" />
      <path
         d="m 3799.18,3751.96 c 33.27,75.51 118.88,124.26 200.8,114.37 81.91,-9.89 153.45,-77.62 167.8,-158.87 64.61,57.31 187.2,68.66 254.13,14.09 66.95,-54.58 86.23,-159.42 43.1,-234.24 54.52,-10.61 103.38,-62.96 114.08,-117.47 10.71,-54.49 -8.07,-112.39 -43.22,-155.4 -37.89,-46.36 -94.58,-76.89 -154.14,-83.01 -59.56,-6.13 -121.28,12.24 -167.8,49.93 -26.53,-92.96 -126.87,-148.46 -223.42,-143.73 -96.56,4.74 -184.75,82.08 -202.05,177.19 -60.03,-35.1 -114.1,-57.02 -183.56,-60.58 -69.45,-3.57 -143.49,22.69 -183.03,79.91 -39.54,57.22 -32.84,146.32 23.83,186.64 -68.7,-1.1 -116.72,50.78 -136.46,116.6 -19.75,65.82 9,143.08 66.97,179.98 57.97,36.9 140.14,30.25 191.42,-15.49 41.41,60.67 168.68,88.09 231.55,50.08"
         style="fill:#ffffff;fill-opacity:1;fill-rule:nonzero;stroke:none"
         id="path30" />
      <path
         d="m 3799.18,3751.96 c 33.27,75.51 118.88,124.26 200.8,114.37 81.91,-9.89 153.45,-77.62 167.8,-158.87 64.61,57.31 187.2,68.66 254.13,14.09 66.95,-54.58 86.23,-159.42 43.1,-234.24 54.52,-10.61 103.38,-62.96 114.08,-117.47 10.71,-54.49 -8.07,-112.39 -43.22,-155.4 -37.89,-46.36 -94.58,-76.89 -154.14,-83.01 -59.56,-6.13 -121.28,12.24 -167.8,49.93 -26.53,-92.96 -126.87,-148.46 -223.42,-143.73 -96.56,4.74 -184.75,82.08 -202.05,177.19 -60.03,-35.1 -114.1,-57.02 -183.56,-60.58 -69.45,-3.57 -143.49,22.69 -183.03,79.91 -39.54,57.22 -32.84,146.32 23.83,186.64 -68.7,-1.1 -116.72,50.78 -136.46,116.6 -19.75,65.82 9,143.08 66.97,179.98 57.97,36.9 140.14,30.25 191.42,-15.49 41.41,60.67 168.68,88.09 231.55,50.08 z"
         style="fill:none;stroke:#2f2e2f;stroke-width:20;stroke-linecap:round;stroke-linejoin:round;stroke-miterlimit:10;stroke-dasharray:none;stroke-opacity:1"
         id="path32" />
      <path
         d="m 572.66,4463.63 c 69.531,145.83 194.344,268.59 340.738,336.93 -145.179,10.73 -289.839,-55.15 -367.707,-178.15 -97.668,74.29 -233.062,95.97 -349.05,55.9 152.808,-7.02 306.406,-78.47 376.019,-214.68"
         style="fill:#ffffff;fill-opacity:1;fill-rule:nonzero;stroke:none"
         id="path34" />
      <path
         d="m 572.66,4463.63 c 69.531,145.83 194.344,268.59 340.738,336.93 -145.179,10.73 -289.839,-55.15 -367.707,-178.15 -97.668,74.29 -233.062,95.97 -349.05,55.9 152.808,-7.02 306.406,-78.47 376.019,-214.68 z"
         style="fill:none;stroke:#2f2e2f;stroke-width:20;stroke-linecap:round;stroke-linejoin:round;stroke-miterlimit:10;stroke-dasharray:none;stroke-opacity:1"
         id="path36" />
      <path
         d="m 4006.69,4755.43 c 151.45,-7.16 295.77,-101.21 363.49,-236.88 132.65,81.58 294.95,90.36 436.25,24.89 -158.57,-0.75 -348.25,-53.31 -444.04,-179.65 -88.19,176.8 -194.63,277.21 -355.7,391.64"
         style="fill:#ffffff;fill-opacity:1;fill-rule:nonzero;stroke:none"
         id="path38" />
      <path
         d="m 4006.69,4755.43 c 151.45,-7.16 295.77,-101.21 363.49,-236.88 132.65,81.58 294.95,90.36 436.25,24.89 -158.57,-0.75 -348.25,-53.31 -444.04,-179.65 -88.19,176.8 -194.63,277.21 -355.7,391.64 z"
         style="fill:none;stroke:#2f2e2f;stroke-width:20;stroke-linecap:round;stroke-linejoin:round;stroke-miterlimit:10;stroke-dasharray:none;stroke-opacity:1"
         id="path40" />
      <path
         d="m 4706.37,863.441 c -23.82,18.129 -57.54,13.481 -86.18,2.68 -28.65,-10.801 -56.24,-27.101 -86.13,-30.57 -44.54,-5.192 -87.07,19.648 -116.06,54.301 -15.18,18.16 -26.91,39.25 -37.32,60.918 -4.44,9.269 -8.76,18.628 -13.22,27.878 -1.68,3.5 -2.85,7.481 -4.32,11.25 l 33.27,111.442 c 10.45,-5.71 19.35,-14.33 27.35,-23.37 10.27,-11.62 20.65,-22.94 30.6,-34.93 20.02,-24.14 39.4,-49.2 62.65,-69.938 13.19,-11.77 27.67,-22.043 43.59,-29.364 46.68,-21.476 104.75,-14.988 148.59,16.621 43.84,31.602 72,87.291 72.06,142.471 0.03,27.78 -7.11,56.01 -24.12,76.17 -17.01,20.17 -44.88,30.77 -70.06,22.27 -33.59,-11.33 -52.36,-50.28 -81.89,-71.41 -50.18,-35.89 -115.14,-14.09 -156.47,20.89 -9.85,8.34 -19.4,17.57 -30.42,23.87 l 36.41,121.94 c 0.17,-0.06 0.34,-0.09 0.51,-0.15 16.41,-5.88 30.3,-16.47 46.09,-23.58 16.96,-7.64 34.58,-13.88 52.87,-17.46 40.59,-7.93 86.31,-1.22 119.11,27.82 30.8,27.27 46.29,72.99 38.44,113.42 -7.86,40.43 -38.7,73.64 -76.51,82.39 -25.01,5.8 -55.59,-0.9 -69.99,-24.57 -20.57,-33.82 0.42,-84.97 -26.36,-113.54 -5.95,-6.35 -13.38,-10.65 -21.5,-12.42 -9.96,-2.19 -19.98,0.6 -29.67,2.68 -7.09,1.52 -14.1,3.38 -21.05,5.43 l 32.46,108.69 c 11.1,32 36.75,55.3 63.42,74.53 26.67,19.22 55.3,37.5 73.67,65.72 18.37,28.2 22.64,70.14 0.01,92.34 -22.75,22.33 -57.7,13.57 -81.5,-4.82 -29.9,-23.1 -39.57,-68.73 -52.48,-103.93 -12.74,-34.73 -24.52,-69.83 -35.69,-105.14 -12.03,-38.03 -23.35,-76.33 -34.43,-114.71 -14.28,6.64 -25.07,18.18 -27.11,35.84 -4.5,38.9 42.82,67.49 46.44,106.92 2.53,27.58 -18.05,51.17 -41.6,61.42 -35.57,15.48 -80.13,7.16 -110.52,-20.64 -30.39,-27.79 -45.17,-73.75 -36.67,-114 9.06,-42.86 41.79,-75.48 79.12,-93.28 24.24,-11.56 50.7,-18 77.21,-21.95 -11.5,-40.32 -22.98,-80.65 -34.88,-120.82 -10.96,-0.13 -22.16,-1.87 -33.13,-3.11 -14.3,-1.62 -29.47,-2.14 -42.84,3.3 -11.03,4.48 -22.6,8.58 -33.06,14.53 -21.95,12.48 -40.77,32.02 -49.03,57.6 -11.14,34.55 -3.01,77.02 -23.26,106.14 -15.15,21.82 -43.85,29.9 -69.53,23.83 -25.68,-6.07 -48.22,-24.49 -64.74,-46.83 -32.82,-44.36 -43.35,-105.87 -26.96,-157.36 16.39,-51.5 59.17,-91.31 109.47,-101.85 59.39,-12.45 123.16,11.96 181.95,24.38 9.44,1.99 18.95,4.07 28.43,4.78 -11.91,-38.31 -23.82,-76.63 -35.73,-114.941 -11.64,-6.719 -22.83,-14.387 -34.79,-20.43 -18.48,-9.301 -37.6,-17.219 -57.4,-21.988 -43.93,-10.582 -92.89,-5.199 -125.58,25.488 -21.94,20.602 -34.4,50.121 -50.98,75.851 -16.57,25.73 -40.89,49.55 -70.83,49.17 -40.3,-0.51 -70.76,-44.86 -79.31,-87.31 -13.56,-67.281 11.8,-139.789 62.51,-178.699 50.7,-38.891 124.16,-42.199 181.02,-8.153 34.7,20.774 62.11,53.184 94.17,78.5 13.62,10.762 28.43,19.993 44.17,26.391 6.06,2.461 13.05,5.121 20.14,6.832 -19.77,-63.582 -39.52,-127.152 -59.28,-190.73 C 4225.15,669.762 4200.79,591.379 4176.43,513 l 43.62,-2.371 125.31,419.742 c 7.74,-7.301 14.05,-17.242 19.03,-25.93 7.88,-13.691 13.69,-28.761 17.89,-44.289 10.67,-39.441 13.39,-81.8 28.89,-119.14 25.4,-61.231 86.38,-102.321 150.28,-101.262 63.9,1.051 127.46,44.199 156.64,106.309 18.4,39.203 20.35,92.961 -11.72,117.382"
         style="fill:#ffffff;fill-opacity:1;fill-rule:nonzero;stroke:none"
         id="path42" />
      <path
         d="m 4706.37,863.441 c -23.82,18.129 -57.54,13.481 -86.18,2.68 -28.65,-10.801 -56.24,-27.101 -86.13,-30.57 -44.54,-5.192 -87.07,19.648 -116.06,54.301 -15.18,18.16 -26.91,39.25 -37.32,60.918 -4.44,9.269 -8.76,18.628 -13.22,27.878 -1.68,3.5 -2.85,7.481 -4.32,11.25 l 33.27,111.442 c 10.45,-5.71 19.35,-14.33 27.35,-23.37 10.27,-11.62 20.65,-22.94 30.6,-34.93 20.02,-24.14 39.4,-49.2 62.65,-69.938 13.19,-11.77 27.67,-22.043 43.59,-29.364 46.68,-21.476 104.75,-14.988 148.59,16.621 43.84,31.602 72,87.291 72.06,142.471 0.03,27.78 -7.11,56.01 -24.12,76.17 -17.01,20.17 -44.88,30.77 -70.06,22.27 -33.59,-11.33 -52.36,-50.28 -81.89,-71.41 -50.18,-35.89 -115.14,-14.09 -156.47,20.89 -9.85,8.34 -19.4,17.57 -30.42,23.87 l 36.41,121.94 c 0.17,-0.06 0.34,-0.09 0.51,-0.15 16.41,-5.88 30.3,-16.47 46.09,-23.58 16.96,-7.64 34.58,-13.88 52.87,-17.46 40.59,-7.93 86.31,-1.22 119.11,27.82 30.8,27.27 46.29,72.99 38.44,113.42 -7.86,40.43 -38.7,73.64 -76.51,82.39 -25.01,5.8 -55.59,-0.9 -69.99,-24.57 -20.57,-33.82 0.42,-84.97 -26.36,-113.54 -5.95,-6.35 -13.38,-10.65 -21.5,-12.42 -9.96,-2.19 -19.98,0.6 -29.67,2.68 -7.09,1.52 -14.1,3.38 -21.05,5.43 l 32.46,108.69 c 11.1,32 36.75,55.3 63.42,74.53 26.67,19.22 55.3,37.5 73.67,65.72 18.37,28.2 22.64,70.14 0.01,92.34 -22.75,22.33 -57.7,13.57 -81.5,-4.82 -29.9,-23.1 -39.57,-68.73 -52.48,-103.93 -12.74,-34.73 -24.52,-69.83 -35.69,-105.14 -12.03,-38.03 -23.35,-76.33 -34.43,-114.71 -14.28,6.64 -25.07,18.18 -27.11,35.84 -4.5,38.9 42.82,67.49 46.44,106.92 2.53,27.58 -18.05,51.17 -41.6,61.42 -35.57,15.48 -80.13,7.16 -110.52,-20.64 -30.39,-27.79 -45.17,-73.75 -36.67,-114 9.06,-42.86 41.79,-75.48 79.12,-93.28 24.24,-11.56 50.7,-18 77.21,-21.95 -11.5,-40.32 -22.98,-80.65 -34.88,-120.82 -10.96,-0.13 -22.16,-1.87 -33.13,-3.11 -14.3,-1.62 -29.47,-2.14 -42.84,3.3 -11.03,4.48 -22.6,8.58 -33.06,14.53 -21.95,12.48 -40.77,32.02 -49.03,57.6 -11.14,34.55 -3.01,77.02 -23.26,106.14 -15.15,21.82 -43.85,29.9 -69.53,23.83 -25.68,-6.07 -48.22,-24.49 -64.74,-46.83 -32.82,-44.36 -43.35,-105.87 -26.96,-157.36 16.39,-51.5 59.17,-91.31 109.47,-101.85 59.39,-12.45 123.16,11.96 181.95,24.38 9.44,1.99 18.95,4.07 28.43,4.78 -11.91,-38.31 -23.82,-76.63 -35.73,-114.941 -11.64,-6.719 -22.83,-14.387 -34.79,-20.43 -18.48,-9.301 -37.6,-17.219 -57.4,-21.988 -43.93,-10.582 -92.89,-5.199 -125.58,25.488 -21.94,20.602 -34.4,50.121 -50.98,75.851 -16.57,25.73 -40.89,49.55 -70.83,49.17 -40.3,-0.51 -70.76,-44.86 -79.31,-87.31 -13.56,-67.281 11.8,-139.789 62.51,-178.699 50.7,-38.891 124.16,-42.199 181.02,-8.153 34.7,20.774 62.11,53.184 94.17,78.5 13.62,10.762 28.43,19.993 44.17,26.391 6.06,2.461 13.05,5.121 20.14,6.832 -19.77,-63.582 -39.52,-127.152 -59.28,-190.73 C 4225.15,669.762 4200.79,591.379 4176.43,513 l 43.62,-2.371 125.31,419.742 c 7.74,-7.301 14.05,-17.242 19.03,-25.93 7.88,-13.691 13.69,-28.761 17.89,-44.289 10.67,-39.441 13.39,-81.8 28.89,-119.14 25.4,-61.231 86.38,-102.321 150.28,-101.262 63.9,1.051 127.46,44.199 156.64,106.309 18.4,39.203 20.35,92.961 -11.72,117.382 z"
         style="fill:none;stroke:#2f2e2f;stroke-width:17.2086;stroke-linecap:round;stroke-linejoin:round;stroke-miterlimit:10;stroke-dasharray:none;stroke-opacity:1"
         id="path44" />
      <path
         d="m 4212.21,853.219 c 0,-135.539 -110.75,-215.578 -110.75,-215.578 0,0 -110.74,80.039 -110.74,215.578 0,135.551 110.74,275.291 110.74,275.291 0,0 110.75,-139.74 110.75,-275.291"
         style="fill:#ffffff;fill-opacity:1;fill-rule:nonzero;stroke:none"
         id="path46" />
      <path
         d="m 4212.21,853.219 c 0,-135.539 -110.75,-215.578 -110.75,-215.578 0,0 -110.74,80.039 -110.74,215.578 0,135.551 110.74,275.291 110.74,275.291 0,0 110.75,-139.74 110.75,-275.291 z"
         style="fill:none;stroke:#2f2e2f;stroke-width:20;stroke-linecap:round;stroke-linejoin:round;stroke-miterlimit:10;stroke-dasharray:none;stroke-opacity:1"
         id="path48" />
      <path
         d="M 4101.46,961.578 V 637.641"
         style="fill:none;stroke:#2f2e2f;stroke-width:20;stroke-linecap:round;stroke-linejoin:round;stroke-miterlimit:10;stroke-dasharray:none;stroke-opacity:1"
         id="path50" />
      <path
         d="m 4343.83,636.832 c -120.77,-61.543 -242.37,0.809 -242.37,0.809 0,0 21.05,135 141.83,196.539 120.77,61.531 295.55,26.289 295.55,26.289 0,0 -74.23,-162.098 -195.01,-223.637"
         style="fill:#ffffff;fill-opacity:1;fill-rule:nonzero;stroke:none"
         id="path52" />
      <path
         d="m 4343.83,636.832 c -120.77,-61.543 -242.37,0.809 -242.37,0.809 0,0 21.05,135 141.83,196.539 120.77,61.531 295.55,26.289 295.55,26.289 0,0 -74.23,-162.098 -195.01,-223.637 z"
         style="fill:none;stroke:#2f2e2f;stroke-width:20;stroke-linecap:round;stroke-linejoin:round;stroke-miterlimit:10;stroke-dasharray:none;stroke-opacity:1"
         id="path54" />
      <path
         d="M 4390.11,784.691 4101.46,637.641"
         style="fill:none;stroke:#2f2e2f;stroke-width:20;stroke-linecap:round;stroke-linejoin:round;stroke-miterlimit:10;stroke-dasharray:none;stroke-opacity:1"
         id="path56" />
      <path
         d="m 4210.78,421.32 c -109.66,79.68 -109.32,216.321 -109.32,216.321 0,0 129.86,42.531 239.52,-37.149 109.64,-79.683 157.59,-251.41 157.59,-251.41 0,0 -178.13,-7.453 -287.79,72.238"
         style="fill:#ffffff;fill-opacity:1;fill-rule:nonzero;stroke:none"
         id="path58" />
      <path
         d="m 4210.78,421.32 c -109.66,79.68 -109.32,216.321 -109.32,216.321 0,0 129.86,42.531 239.52,-37.149 109.64,-79.683 157.59,-251.41 157.59,-251.41 0,0 -178.13,-7.453 -287.79,72.238 z"
         style="fill:none;stroke:#2f2e2f;stroke-width:20;stroke-linecap:round;stroke-linejoin:round;stroke-miterlimit:10;stroke-dasharray:none;stroke-opacity:1"
         id="path60" />
      <path
         d="m 4363.53,447.211 -262.07,190.43"
         style="fill:none;stroke:#2f2e2f;stroke-width:20;stroke-linecap:round;stroke-linejoin:round;stroke-miterlimit:10;stroke-dasharray:none;stroke-opacity:1"
         id="path62" />
      <path
         d="m 3958.35,442.031 c 21.21,133.879 143.11,195.61 143.11,195.61 0,0 96.85,-96.391 75.64,-230.282 -21.22,-133.867 -152.46,-254.55 -152.46,-254.55 0,0 -87.51,155.339 -66.29,289.222"
         style="fill:#ffffff;fill-opacity:1;fill-rule:nonzero;stroke:none"
         id="path64" />
      <path
         d="m 3958.35,442.031 c 21.21,133.879 143.11,195.61 143.11,195.61 0,0 96.85,-96.391 75.64,-230.282 -21.22,-133.867 -152.46,-254.55 -152.46,-254.55 0,0 -87.51,155.339 -66.29,289.222 z"
         style="fill:none;stroke:#2f2e2f;stroke-width:20;stroke-linecap:round;stroke-linejoin:round;stroke-miterlimit:10;stroke-dasharray:none;stroke-opacity:1"
         id="path66" />
      <path
         d="m 4050.76,317.68 50.7,319.961"
         style="fill:none;stroke:#2f2e2f;stroke-width:20;stroke-linecap:round;stroke-linejoin:round;stroke-miterlimit:10;stroke-dasharray:none;stroke-opacity:1"
         id="path68" />
      <path
         d="m 3862.21,676.359 c 128.92,41.871 239.25,-38.718 239.25,-38.718 0,0 -41.91,-130.059 -170.84,-171.93 C 3801.71,423.84 3634.61,486 3634.61,486 c 0,0 98.68,148.492 227.6,190.359"
         style="fill:#ffffff;fill-opacity:1;fill-rule:nonzero;stroke:none"
         id="path70" />
      <path
         d="m 3862.21,676.359 c 128.92,41.871 239.25,-38.718 239.25,-38.718 0,0 -41.91,-130.059 -170.84,-171.93 C 3801.71,423.84 3634.61,486 3634.61,486 c 0,0 98.68,148.492 227.6,190.359 z"
         style="fill:none;stroke:#2f2e2f;stroke-width:20;stroke-linecap:round;stroke-linejoin:round;stroke-miterlimit:10;stroke-dasharray:none;stroke-opacity:1"
         id="path72" />
      <path
         d="m 3793.36,537.559 308.1,100.082"
         style="fill:none;stroke:#2f2e2f;stroke-width:20;stroke-linecap:round;stroke-linejoin:round;stroke-miterlimit:10;stroke-dasharray:none;stroke-opacity:1"
         id="path74" />
      <path
         d="m 4027.36,868.398 c 95.83,-95.867 74.1,-230.757 74.1,-230.757 0,0 -134.9,-21.692 -230.74,74.168 -95.83,95.863 -116.31,272.972 -116.31,272.972 0,0 177.11,-20.519 272.95,-116.383"
         style="fill:#ffffff;fill-opacity:1;fill-rule:nonzero;stroke:none"
         id="path76" />
      <path
         d="m 4027.36,868.398 c 95.83,-95.867 74.1,-230.757 74.1,-230.757 0,0 -134.9,-21.692 -230.74,74.168 -95.83,95.863 -116.31,272.972 -116.31,272.972 0,0 177.11,-20.519 272.95,-116.383 z"
         style="fill:none;stroke:#2f2e2f;stroke-width:20;stroke-linecap:round;stroke-linejoin:round;stroke-miterlimit:10;stroke-dasharray:none;stroke-opacity:1"
         id="path78" />
      <path
         d="M 3872.43,866.73 4101.46,637.641"
         style="fill:none;stroke:#2f2e2f;stroke-width:20;stroke-linecap:round;stroke-linejoin:round;stroke-miterlimit:10;stroke-dasharray:none;stroke-opacity:1"
         id="path80" />
      <path
         d="m 4305.65,2534.06 c -15.79,-17.49 -31.96,-34.65 -47.44,-52.42 l -46.11,-53.59 c -30.55,-35.89 -62.06,-70.98 -91.25,-108.01 -29.6,-36.69 -59.56,-73.09 -88.86,-110.01 l -85.73,-112.45 C 3833.95,1946.14 3728.6,1789.54 3631.42,1627.97 l -71.22,-122.18 -67.39,-124.32 c -5.55,-10.39 -11.31,-20.68 -16.71,-31.16 l -15.78,-31.63 -31.58,-63.26 c -10.35,-21.17 -21.44,-41.99 -31.18,-63.45 L 3368.1,1127.7 C 3289.71,956.262 3220.18,780.641 3162.48,601.102"
         style="fill:none;stroke:#2f2e2f;stroke-width:18.6988;stroke-linecap:round;stroke-linejoin:round;stroke-miterlimit:10;stroke-dasharray:none;stroke-opacity:1"
         id="path82" />
      <path
         d="m 4564.45,2554.4 c -50.67,-51.38 -120.86,-64.44 -180.37,-64.49 -59.35,-0.01 -106.96,12.86 -106.96,12.86 0,0 -18.04,45.29 -22.78,105.16 -4.77,59.72 3.56,135.07 57.24,189.58 21.71,22.48 48.85,40 78.11,53.47 29.27,13.47 61.65,21.92 92.43,28.02 61.83,11.96 119.36,12.24 148.8,11.19 l 36.34,-1.29 -9.01,-9.69 c -9.02,-9.72 -14.56,-15.04 -14.56,-15.04 0,0 -6.01,4.79 -15.9,13.62 l 24.15,-9.7 c 0.01,-29.83 -1.74,-87.57 -13.56,-147.68 -5.79,-30.2 -14.69,-60.48 -26.34,-89.35 -11.64,-28.88 -27.04,-55.39 -47.59,-76.66"
         style="fill:#ffffff;fill-opacity:1;fill-rule:nonzero;stroke:none"
         id="path84" />
      <path
         d="m 4564.45,2554.4 c -50.67,-51.38 -120.86,-64.44 -180.37,-64.49 -59.35,-0.01 -106.96,12.86 -106.96,12.86 0,0 -18.04,45.29 -22.78,105.16 -4.77,59.72 3.56,135.07 57.24,189.58 21.71,22.48 48.85,40 78.11,53.47 29.27,13.47 61.65,21.92 92.43,28.02 61.83,11.96 119.36,12.24 148.8,11.19 l 36.34,-1.29 -9.01,-9.69 c -9.02,-9.72 -14.56,-15.04 -14.56,-15.04 0,0 -6.01,4.79 -15.9,13.62 l 24.15,-9.7 c 0.01,-29.83 -1.74,-87.57 -13.56,-147.68 -5.79,-30.2 -14.69,-60.48 -26.34,-89.35 -11.64,-28.88 -27.04,-55.39 -47.59,-76.66 z"
         style="fill:none;stroke:#2f2e2f;stroke-width:18.6988;stroke-linecap:round;stroke-linejoin:round;stroke-miterlimit:10;stroke-dasharray:none;stroke-opacity:1"
         id="path86" />
      <path
         d="m 4520.85,2761.15 c -41.69,-42.04 -82.42,-85.02 -123.68,-127.49 -40.62,-43.07 -79.99,-87.3 -120.05,-130.89"
         style="fill:none;stroke:#2f2e2f;stroke-width:18.6988;stroke-linecap:round;stroke-linejoin:round;stroke-miterlimit:10;stroke-dasharray:none;stroke-opacity:1"
         id="path88" />
      <path
         d="m 4336.44,2117.63 c -72.2,12.65 -124.7,64.09 -158.28,113.42 -33.66,49.23 -48.56,96.18 -48.56,96.18 0,0 7.06,10.03 19.94,24.7 13.29,14.32 32.6,33.13 56.41,51.08 23.82,17.93 52.15,34.98 83.46,45.66 31.37,10.64 66.65,14.06 102.74,6.35 72.42,-15.66 136.75,-74.64 183.72,-128.88 46.89,-54.32 76.4,-103.94 76.4,-103.94 0,0 -10.92,-7.96 -29.57,-19.42 -18.95,-11.22 -44.4,-26.94 -74.76,-41.61 -30.32,-14.7 -65.25,-28.59 -101.8,-37.2 -36.51,-8.6 -73.45,-12.82 -109.7,-6.34"
         style="fill:#ffffff;fill-opacity:1;fill-rule:nonzero;stroke:none"
         id="path90" />
      <path
         d="m 4336.44,2117.63 c -72.2,12.65 -124.7,64.09 -158.28,113.42 -33.66,49.23 -48.56,96.18 -48.56,96.18 0,0 7.06,10.03 19.94,24.7 13.29,14.32 32.6,33.13 56.41,51.08 23.82,17.93 52.15,34.98 83.46,45.66 31.37,10.64 66.65,14.06 102.74,6.35 72.42,-15.66 136.75,-74.64 183.72,-128.88 46.89,-54.32 76.4,-103.94 76.4,-103.94 0,0 -10.92,-7.96 -29.57,-19.42 -18.95,-11.22 -44.4,-26.94 -74.76,-41.61 -30.32,-14.7 -65.25,-28.59 -101.8,-37.2 -36.51,-8.6 -73.45,-12.82 -109.7,-6.34 z"
         style="fill:none;stroke:#2f2e2f;stroke-width:18.6988;stroke-linecap:round;stroke-linejoin:round;stroke-miterlimit:10;stroke-dasharray:none;stroke-opacity:1"
         id="path92" />
      <path
         d="m 4476.44,2262.33 c -56.94,12.06 -114.38,23.54 -172.31,34.47 -57.9,10.89 -116.59,21.46 -174.53,30.43"
         style="fill:none;stroke:#2f2e2f;stroke-width:18.6988;stroke-linecap:round;stroke-linejoin:round;stroke-miterlimit:10;stroke-dasharray:none;stroke-opacity:1"
         id="path94" />
      <path
         d="m 4099.71,1806.51 c -73.2,7.84 -129.16,55.34 -165.99,102.06 -36.92,46.62 -54.85,92.23 -54.85,92.23 0,0 6.44,10.43 18.41,25.86 12.14,15.3 29.14,36.11 51.89,55.48 45.56,38.71 109.24,75.1 182.06,64.67 73.58,-10.98 141.74,-65.49 192.22,-116.36 50.41,-50.96 83.11,-98.31 83.11,-98.31 0,0 -2.61,-2.11 -7.34,-5.92 -4.7,-3.81 -11.57,-9.23 -20.27,-15.67 -17.42,-12.88 -42.17,-29.87 -71.61,-46.34 -14.7,-8.23 -30.59,-16.35 -47.31,-23.76 -16.55,-7.51 -33.48,-14.63 -51.17,-20.28 -35.26,-11.38 -72.58,-17.59 -109.15,-13.66"
         style="fill:#ffffff;fill-opacity:1;fill-rule:nonzero;stroke:none"
         id="path96" />
      <path
         d="m 4099.71,1806.51 c -73.2,7.84 -129.16,55.34 -165.99,102.06 -36.92,46.62 -54.85,92.23 -54.85,92.23 0,0 6.44,10.43 18.41,25.86 12.14,15.3 29.14,36.11 51.89,55.48 45.56,38.71 109.24,75.1 182.06,64.67 73.58,-10.98 141.74,-65.49 192.22,-116.36 50.41,-50.96 83.11,-98.31 83.11,-98.31 0,0 -2.61,-2.11 -7.34,-5.92 -4.7,-3.81 -11.57,-9.23 -20.27,-15.67 -17.42,-12.88 -42.17,-29.87 -71.61,-46.34 -14.7,-8.23 -30.59,-16.35 -47.31,-23.76 -16.55,-7.51 -33.48,-14.63 -51.17,-20.28 -35.26,-11.38 -72.58,-17.59 -109.15,-13.66 z"
         style="fill:none;stroke:#2f2e2f;stroke-width:18.6988;stroke-linecap:round;stroke-linejoin:round;stroke-miterlimit:10;stroke-dasharray:none;stroke-opacity:1"
         id="path98" />
      <path
         d="m 4229.25,1959.96 c -57.8,8.32 -116.19,16.09 -174.84,23.1 -58.03,6.56 -116.56,12.48 -175.54,17.74"
         style="fill:none;stroke:#2f2e2f;stroke-width:18.6988;stroke-linecap:round;stroke-linejoin:round;stroke-miterlimit:10;stroke-dasharray:none;stroke-opacity:1"
         id="path100" />
      <path
         d="m 3886.61,1480.15 c -72.89,2.11 -132.41,45.3 -172.91,89.3 -20.28,21.96 -35.88,44 -46.38,60.59 -10.43,16.55 -15.58,27.51 -15.58,27.51 0,0 23.19,43.26 64.83,85.85 10.41,10.62 21.96,21.2 34.56,31 12.67,9.77 26.97,18.4 41.89,25.76 30.01,14.63 63.78,23.36 100.56,20.71 73.56,-5.31 145.39,-54.85 199.54,-102.06 54.08,-47.32 90.42,-92.31 90.42,-92.31 0,0 -9.52,-9.36 -26.11,-23.26 -16.49,-13.96 -40.57,-32.19 -68.47,-50.73 -27.51,-18.77 -59.71,-37.4 -94.32,-51.07 -34.47,-13.72 -71.94,-22.19 -108.03,-21.29"
         style="fill:#ffffff;fill-opacity:1;fill-rule:nonzero;stroke:none"
         id="path102" />
      <path
         d="m 3886.61,1480.15 c -72.89,2.11 -132.41,45.3 -172.91,89.3 -20.28,21.96 -35.88,44 -46.38,60.59 -10.43,16.55 -15.58,27.51 -15.58,27.51 0,0 23.19,43.26 64.83,85.85 10.41,10.62 21.96,21.2 34.56,31 12.67,9.77 26.97,18.4 41.89,25.76 30.01,14.63 63.78,23.36 100.56,20.71 73.56,-5.31 145.39,-54.85 199.54,-102.06 54.08,-47.32 90.42,-92.31 90.42,-92.31 0,0 -9.52,-9.36 -26.11,-23.26 -16.49,-13.96 -40.57,-32.19 -68.47,-50.73 -27.51,-18.77 -59.71,-37.4 -94.32,-51.07 -34.47,-13.72 -71.94,-22.19 -108.03,-21.29 z"
         style="fill:none;stroke:#2f2e2f;stroke-width:18.6988;stroke-linecap:round;stroke-linejoin:round;stroke-miterlimit:10;stroke-dasharray:none;stroke-opacity:1"
         id="path104" />
      <path
         d="m 4004.12,1642.22 c -29.4,2.27 -58.51,4.14 -87.5,5.67 l -87.62,4.29 c -58.63,2.5 -117.73,4.29 -177.26,5.37"
         style="fill:none;stroke:#2f2e2f;stroke-width:18.6988;stroke-linecap:round;stroke-linejoin:round;stroke-miterlimit:10;stroke-dasharray:none;stroke-opacity:1"
         id="path106" />
      <path
         d="m 3700.38,1139.22 c -73.27,-3.33 -135.95,34.93 -179.57,75.48 -43.71,40.4 -68.52,82.82 -68.52,82.82 0,0 4.73,11.32 14.13,28.44 4.75,8.52 10.43,18.63 17.7,29.25 7.39,10.55 15.97,21.84 25.69,33.15 39.14,45.16 95.55,91.19 170.44,90.73 74.15,-0.01 149.51,-44.03 206.97,-86.93 57.4,-43.03 96.88,-84.97 96.88,-84.97 0,0 -8.91,-9.91 -24.63,-24.81 -15.41,-15.04 -36.78,-35.47 -63.19,-55.94 -26.15,-20.59 -57.76,-41.06 -90.74,-57.45 -32.84,-16.43 -68.55,-28.14 -105.16,-29.77"
         style="fill:#ffffff;fill-opacity:1;fill-rule:nonzero;stroke:none"
         id="path108" />
      <path
         d="m 3700.38,1139.22 c -73.27,-3.33 -135.95,34.93 -179.57,75.48 -43.71,40.4 -68.52,82.82 -68.52,82.82 0,0 4.73,11.32 14.13,28.44 4.75,8.52 10.43,18.63 17.7,29.25 7.39,10.55 15.97,21.84 25.69,33.15 39.14,45.16 95.55,91.19 170.44,90.73 74.15,-0.01 149.51,-44.03 206.97,-86.93 57.4,-43.03 96.88,-84.97 96.88,-84.97 0,0 -8.91,-9.91 -24.63,-24.81 -15.41,-15.04 -36.78,-35.47 -63.19,-55.94 -26.15,-20.59 -57.76,-41.06 -90.74,-57.45 -32.84,-16.43 -68.55,-28.14 -105.16,-29.77 z"
         style="fill:none;stroke:#2f2e2f;stroke-width:18.6988;stroke-linecap:round;stroke-linejoin:round;stroke-miterlimit:10;stroke-dasharray:none;stroke-opacity:1"
         id="path110" />
      <path
         d="m 3804.5,1309.38 c -116.14,-0.64 -235.06,-3.77 -352.21,-11.86"
         style="fill:none;stroke:#2f2e2f;stroke-width:18.6988;stroke-linecap:round;stroke-linejoin:round;stroke-miterlimit:10;stroke-dasharray:none;stroke-opacity:1"
         id="path112" />
      <path
         d="m 3799.95,2388.98 c 26.49,-70.87 89.64,-108.74 145.28,-130.01 27.92,-10.63 53.8,-16.83 73.12,-20.76 19.28,-3.89 31.53,-5.1 31.53,-5.1 0,0 33.34,35.87 60.29,89.3 6.74,13.37 13.1,27.84 18.46,43.17 5.56,15.16 10.38,30.94 13.45,47.44 6.2,32.94 5.99,68.25 -5.68,103.79 -23.33,71.11 -88.24,129.46 -148.05,169.2 -59.75,39.82 -114.36,61.05 -114.36,61.05 0,0 -8.01,-13.45 -19.28,-35.82 -11.21,-22.45 -25.93,-53.56 -38.57,-89.46 -24.36,-72.74 -42.3,-162.25 -16.19,-232.8"
         style="fill:#ffffff;fill-opacity:1;fill-rule:nonzero;stroke:none"
         id="path114" />
      <path
         d="m 3799.95,2388.98 c 26.49,-70.87 89.64,-108.74 145.28,-130.01 27.92,-10.63 53.8,-16.83 73.12,-20.76 19.28,-3.89 31.53,-5.1 31.53,-5.1 0,0 33.34,35.87 60.29,89.3 6.74,13.37 13.1,27.84 18.46,43.17 5.56,15.16 10.38,30.94 13.45,47.44 6.2,32.94 5.99,68.25 -5.68,103.79 -23.33,71.11 -88.24,129.46 -148.05,169.2 -59.75,39.82 -114.36,61.05 -114.36,61.05 0,0 -8.01,-13.45 -19.28,-35.82 -11.21,-22.45 -25.93,-53.56 -38.57,-89.46 -24.36,-72.74 -42.3,-162.25 -16.19,-232.8 z"
         style="fill:none;stroke:#2f2e2f;stroke-width:18.6988;stroke-linecap:round;stroke-linejoin:round;stroke-miterlimit:10;stroke-dasharray:none;stroke-opacity:1"
         id="path116" />
      <path
         d="m 3929.59,2569.75 c 18.17,-56.49 38.44,-113.83 58.41,-169.86 20.13,-56.19 40.77,-111.79 61.88,-166.78"
         style="fill:none;stroke:#2f2e2f;stroke-width:18.6988;stroke-linecap:round;stroke-linejoin:round;stroke-miterlimit:10;stroke-dasharray:none;stroke-opacity:1"
         id="path118" />
      <path
         d="m 3545.74,2038.69 c 31.12,-68.64 96.92,-101.87 154.12,-119.18 57.29,-17.18 106.13,-18.2 106.13,-18.2 0,0 7.49,9.7 17.73,26.35 10.21,16.68 24.26,39.55 35.97,67.07 11.82,27.44 21.8,59.2 25.25,92.83 3.22,33.8 1.45,68.36 -12.69,103.08 -27.86,69.13 -96.6,122.9 -159.09,158.46 -62.42,35.66 -118.55,53.13 -118.55,53.13 0,0 -7.22,-13.92 -17.14,-36.96 -10.24,-22.75 -21.6,-55.94 -31.74,-92.76 -9.97,-36.96 -18.01,-78.13 -19.72,-118.51 -1.23,-40.77 4.25,-81 19.73,-115.31"
         style="fill:#ffffff;fill-opacity:1;fill-rule:nonzero;stroke:none"
         id="path120" />
      <path
         d="m 3545.74,2038.69 c 31.12,-68.64 96.92,-101.87 154.12,-119.18 57.29,-17.18 106.13,-18.2 106.13,-18.2 0,0 7.49,9.7 17.73,26.35 10.21,16.68 24.26,39.55 35.97,67.07 11.82,27.44 21.8,59.2 25.25,92.83 3.22,33.8 1.45,68.36 -12.69,103.08 -27.86,69.13 -96.6,122.9 -159.09,158.46 -62.42,35.66 -118.55,53.13 -118.55,53.13 0,0 -7.22,-13.92 -17.14,-36.96 -10.24,-22.75 -21.6,-55.94 -31.74,-92.76 -9.97,-36.96 -18.01,-78.13 -19.72,-118.51 -1.23,-40.77 4.25,-81 19.73,-115.31 z"
         style="fill:none;stroke:#2f2e2f;stroke-width:18.6988;stroke-linecap:round;stroke-linejoin:round;stroke-miterlimit:10;stroke-dasharray:none;stroke-opacity:1"
         id="path122" />
      <path
         d="m 3662.28,2228.87 c 22.83,-55.77 46.14,-110.9 69.92,-165.37 l 36.01,-81.22 c 12.36,-27.08 25.07,-54.15 37.78,-80.97"
         style="fill:none;stroke:#2f2e2f;stroke-width:18.6988;stroke-linecap:round;stroke-linejoin:round;stroke-miterlimit:10;stroke-dasharray:none;stroke-opacity:1"
         id="path124" />
      <path
         d="m 3316.76,1670.05 c 35.75,-65.92 104.01,-94.07 162.56,-107.09 58.63,-12.88 107.69,-10.39 107.69,-10.39 0,0 27.45,40.52 45.98,97.54 19.92,56.21 31.74,128.9 -1.68,196.32 -32.98,67.08 -105,115.49 -170.13,146.55 -32.48,15.52 -63.07,26.68 -85.55,33.91 -22.41,7.18 -36.64,10.41 -36.64,10.41 0,0 -24.04,-58.6 -39.29,-133.59 -8.01,-37.23 -12.21,-79.56 -10.47,-120.37 1.74,-40.83 9.68,-80.29 27.53,-113.29"
         style="fill:#ffffff;fill-opacity:1;fill-rule:nonzero;stroke:none"
         id="path126" />
      <path
         d="m 3316.76,1670.05 c 35.75,-65.92 104.01,-94.07 162.56,-107.09 58.63,-12.88 107.69,-10.39 107.69,-10.39 0,0 27.45,40.52 45.98,97.54 19.92,56.21 31.74,128.9 -1.68,196.32 -32.98,67.08 -105,115.49 -170.13,146.55 -32.48,15.52 -63.07,26.68 -85.55,33.91 -22.41,7.18 -36.64,10.41 -36.64,10.41 0,0 -24.04,-58.6 -39.29,-133.59 -8.01,-37.23 -12.21,-79.56 -10.47,-120.37 1.74,-40.83 9.68,-80.29 27.53,-113.29 z"
         style="fill:none;stroke:#2f2e2f;stroke-width:18.6988;stroke-linecap:round;stroke-linejoin:round;stroke-miterlimit:10;stroke-dasharray:none;stroke-opacity:1"
         id="path128" />
      <path
         d="m 3419.52,1868.68 40.13,-80.19 c 13.4,-26.49 27.11,-52.93 41.37,-79.48 28.22,-52.89 56.89,-105.04 85.99,-156.44"
         style="fill:none;stroke:#2f2e2f;stroke-width:18.6988;stroke-linecap:round;stroke-linejoin:round;stroke-miterlimit:10;stroke-dasharray:none;stroke-opacity:1"
         id="path130" />
      <path
         d="m 3117.06,1283.31 c 41.47,-63.25 111.67,-85.69 170.81,-93.83 59.21,-7.97 107.49,-1.37 107.49,-1.37 0,0 1.38,2.73 3.85,7.64 2.34,4.98 5.71,12.15 9.87,21 8.03,17.8 17.89,42.81 25.27,71.8 7.51,28.92 11.9,62.18 10.78,95.7 -1,33.44 -8.77,67.83 -27.79,100.02 -38.01,64.39 -113.94,107.43 -181.01,133.21 -66.99,25.91 -125.1,34.59 -125.1,34.59 0,0 -5.05,-15 -11.41,-39.51 -6.32,-24.51 -14.3,-58.32 -18.15,-96.94 -8.4,-76.93 -6.93,-168.63 35.39,-232.31"
         style="fill:#ffffff;fill-opacity:1;fill-rule:nonzero;stroke:none"
         id="path132" />
      <path
         d="m 3117.06,1283.31 c 41.47,-63.25 111.67,-85.69 170.81,-93.83 59.21,-7.97 107.49,-1.37 107.49,-1.37 0,0 1.38,2.73 3.85,7.64 2.34,4.98 5.71,12.15 9.87,21 8.03,17.8 17.89,42.81 25.27,71.8 7.51,28.92 11.9,62.18 10.78,95.7 -1,33.44 -8.77,67.83 -27.79,100.02 -38.01,64.39 -113.94,107.43 -181.01,133.21 -66.99,25.91 -125.1,34.59 -125.1,34.59 0,0 -5.05,-15 -11.41,-39.51 -6.32,-24.51 -14.3,-58.32 -18.15,-96.94 -8.4,-76.93 -6.93,-168.63 35.39,-232.31 z"
         style="fill:none;stroke:#2f2e2f;stroke-width:18.6988;stroke-linecap:round;stroke-linejoin:round;stroke-miterlimit:10;stroke-dasharray:none;stroke-opacity:1"
         id="path134" />
      <path
         d="m 3203.43,1490.43 c 62.37,-104.01 125.48,-204.37 191.93,-302.32"
         style="fill:none;stroke:#2f2e2f;stroke-width:18.6988;stroke-linecap:round;stroke-linejoin:round;stroke-miterlimit:10;stroke-dasharray:none;stroke-opacity:1"
         id="path136" />
      <path
         d="M 682.777,2614 C 1209.97,2064.9 1620.6,1404.53 1879.51,688.719"
         style="fill:none;stroke:#2f2e2f;stroke-width:17.2086;stroke-linecap:round;stroke-linejoin:round;stroke-miterlimit:10;stroke-dasharray:none;stroke-opacity:1"
         id="path138" />
      <path
         d="m 667.578,2879.81 c 28.442,-26.34 44.652,-59.48 54.195,-92.59 9.461,-33.22 11.696,-67.01 10.375,-97.2 -1.355,-30.24 -6,-56.66 -10.921,-76.1 -4.766,-19.3 -9.063,-30.96 -9.063,-30.96 0,0 -11.812,-3.52 -31.035,-7.18 -19.063,-3.51 -46.246,-7.87 -76.227,-8.9 -30.039,-1.07 -63.117,0.94 -94.953,9.58 -31.945,8.55 -62.074,24.32 -88.715,48.92 -26.296,24.96 -45.125,58.12 -58.921,94.13 -3.446,9 -6.571,18.18 -9.418,27.44 -2.954,9.15 -5.754,18.24 -8.231,27.41 -4.98,18.31 -8.941,36.64 -12.105,54.26 -12.633,70.48 -12.723,129.81 -12.723,129.81 0,0 57.68,7.94 130.852,2.11 18.281,-1.45 37.531,-3.76 57.039,-7.23 9.734,-1.76 19.609,-3.72 29.324,-6.17 9.605,-2.55 19.183,-5.45 28.64,-8.7 37.825,-13.02 73.801,-31.93 101.887,-58.63"
         style="fill:#ffffff;fill-opacity:1;fill-rule:nonzero;stroke:none"
         id="path140" />
      <path
         d="m 667.578,2879.81 c 28.442,-26.34 44.652,-59.48 54.195,-92.59 9.461,-33.22 11.696,-67.01 10.375,-97.2 -1.355,-30.24 -6,-56.66 -10.921,-76.1 -4.766,-19.3 -9.063,-30.96 -9.063,-30.96 0,0 -11.812,-3.52 -31.035,-7.18 -19.063,-3.51 -46.246,-7.87 -76.227,-8.9 -30.039,-1.07 -63.117,0.94 -94.953,9.58 -31.945,8.55 -62.074,24.32 -88.715,48.92 -26.296,24.96 -45.125,58.12 -58.921,94.13 -3.446,9 -6.571,18.18 -9.418,27.44 -2.954,9.15 -5.754,18.24 -8.231,27.41 -4.98,18.31 -8.941,36.64 -12.105,54.26 -12.633,70.48 -12.723,129.81 -12.723,129.81 0,0 57.68,7.94 130.852,2.11 18.281,-1.45 37.531,-3.76 57.039,-7.23 9.734,-1.76 19.609,-3.72 29.324,-6.17 9.605,-2.55 19.183,-5.45 28.64,-8.7 37.825,-13.02 73.801,-31.93 101.887,-58.63 z"
         style="fill:none;stroke:#2f2e2f;stroke-width:17.2086;stroke-linecap:round;stroke-linejoin:round;stroke-miterlimit:10;stroke-dasharray:none;stroke-opacity:1"
         id="path142" />
      <path
         d="m 457.457,2835.19 64.988,-61.73 c 21.446,-20.79 43.817,-40.65 64.465,-62.27 l 62.942,-63.81 c 20.851,-21.4 42.355,-42.17 62.312,-64.42"
         style="fill:none;stroke:#2f2e2f;stroke-width:17.2086;stroke-linecap:round;stroke-linejoin:round;stroke-miterlimit:10;stroke-dasharray:none;stroke-opacity:1"
         id="path144" />
      <path
         d="m 1114.08,2581.12 c -22.91,-72.34 -85.08,-113.38 -140.517,-137.52 -55.54,-24 -104.532,-30.88 -104.532,-30.88 0,0 -8.715,8.78 -21.043,24.18 -12.5,15.27 -27.859,37.82 -43.437,63.5 -30.68,51.76 -55.504,122.36 -35.981,195.06 19.352,72.49 81.711,134.74 140.153,177.93 58.332,43.29 112.697,67.56 112.697,67.56 0,0 9.28,-12.88 21.52,-35.42 12.42,-22.39 28.51,-53.75 43.18,-89.57 30.18,-71.01 50.66,-162.71 27.96,-234.84"
         style="fill:#ffffff;fill-opacity:1;fill-rule:nonzero;stroke:none"
         id="path146" />
      <path
         d="m 1114.08,2581.12 c -22.91,-72.34 -85.08,-113.38 -140.517,-137.52 -55.54,-24 -104.532,-30.88 -104.532,-30.88 0,0 -8.715,8.78 -21.043,24.18 -12.5,15.27 -27.859,37.82 -43.437,63.5 -30.68,51.76 -55.504,122.36 -35.981,195.06 19.352,72.49 81.711,134.74 140.153,177.93 58.332,43.29 112.697,67.56 112.697,67.56 0,0 9.28,-12.88 21.52,-35.42 12.42,-22.39 28.51,-53.75 43.18,-89.57 30.18,-71.01 50.66,-162.71 27.96,-234.84 z"
         style="fill:none;stroke:#2f2e2f;stroke-width:17.2086;stroke-linecap:round;stroke-linejoin:round;stroke-miterlimit:10;stroke-dasharray:none;stroke-opacity:1"
         id="path148" />
      <path
         d="m 974.203,2758.3 c -16.019,-58.56 -32.64,-116.5 -49.84,-173.81 -17.57,-57.63 -36.336,-115.17 -55.332,-171.77"
         style="fill:none;stroke:#2f2e2f;stroke-width:17.2086;stroke-linecap:round;stroke-linejoin:round;stroke-miterlimit:10;stroke-dasharray:none;stroke-opacity:1"
         id="path150" />
      <path
         d="m 1386.94,2238.27 c -28.95,-70.84 -93.92,-106.95 -150.74,-126.61 -56.66,-19.32 -106.54,-22.84 -106.54,-22.84 0,0 -32.5,37.24 -58.03,92.03 -6.45,13.66 -12.25,28.62 -17.43,44.08 -5.33,15.34 -9.63,31.52 -12.31,48.24 -5.33,33.45 -4.14,69.13 8.57,104.77 25.43,71.29 92.38,128.58 153.79,167.08 61.33,38.6 117.09,58.42 117.09,58.42 0,0 31.27,-55.73 55.69,-128.89 22.77,-74.49 38.17,-166 9.91,-236.28"
         style="fill:#ffffff;fill-opacity:1;fill-rule:nonzero;stroke:none"
         id="path152" />
      <path
         d="m 1386.94,2238.27 c -28.95,-70.84 -93.92,-106.95 -150.74,-126.61 -56.66,-19.32 -106.54,-22.84 -106.54,-22.84 0,0 -32.5,37.24 -58.03,92.03 -6.45,13.66 -12.25,28.62 -17.43,44.08 -5.33,15.34 -9.63,31.52 -12.31,48.24 -5.33,33.45 -4.14,69.13 8.57,104.77 25.43,71.29 92.38,128.58 153.79,167.08 61.33,38.6 117.09,58.42 117.09,58.42 0,0 31.27,-55.73 55.69,-128.89 22.77,-74.49 38.17,-166 9.91,-236.28 z"
         style="fill:none;stroke:#2f2e2f;stroke-width:17.2086;stroke-linecap:round;stroke-linejoin:round;stroke-miterlimit:10;stroke-dasharray:none;stroke-opacity:1"
         id="path154" />
      <path
         d="m 1260.76,2425.33 c -19.83,-56.68 -41.59,-113.78 -63.55,-169.95 -22,-56.2 -44.51,-111.73 -67.55,-166.56"
         style="fill:none;stroke:#2f2e2f;stroke-width:17.2086;stroke-linecap:round;stroke-linejoin:round;stroke-miterlimit:10;stroke-dasharray:none;stroke-opacity:1"
         id="path156" />
      <path
         d="m 1632.08,1875.14 c -33.84,-68.21 -101.45,-99.35 -159.77,-114.75 -58.41,-15.26 -107.69,-14.55 -107.69,-14.55 0,0 -7.2,10.05 -16.93,27.23 -9.89,17.08 -23.13,40.74 -34.01,68.89 -10.96,28.12 -19.92,60.52 -22.23,94.61 -2.26,34.1 0.79,69.03 16.17,103.59 30.38,68.88 101.48,120.93 165.72,154.72 64.16,33.91 121.45,49.58 121.45,49.58 0,0 6.85,-14.35 16.17,-38.03 9.66,-23.45 20.18,-57.29 29.1,-94.97 8.84,-37.77 15.56,-79.7 15.93,-120.58 0.01,-41.13 -7.12,-81.68 -23.91,-115.74"
         style="fill:#ffffff;fill-opacity:1;fill-rule:nonzero;stroke:none"
         id="path158" />
      <path
         d="m 1632.08,1875.14 c -33.84,-68.21 -101.45,-99.35 -159.77,-114.75 -58.41,-15.26 -107.69,-14.55 -107.69,-14.55 0,0 -7.2,10.05 -16.93,27.23 -9.89,17.08 -23.13,40.74 -34.01,68.89 -10.96,28.12 -19.92,60.52 -22.23,94.61 -2.26,34.1 0.79,69.03 16.17,103.59 30.38,68.88 101.48,120.93 165.72,154.72 64.16,33.91 121.45,49.58 121.45,49.58 0,0 6.85,-14.35 16.17,-38.03 9.66,-23.45 20.18,-57.29 29.1,-94.97 8.84,-37.77 15.56,-79.7 15.93,-120.58 0.01,-41.13 -7.12,-81.68 -23.91,-115.74 z"
         style="fill:none;stroke:#2f2e2f;stroke-width:17.2086;stroke-linecap:round;stroke-linejoin:round;stroke-miterlimit:10;stroke-dasharray:none;stroke-opacity:1"
         id="path160" />
      <path
         d="m 1520.93,2071.52 c -24.92,-55.58 -50.33,-110.46 -76.21,-164.63 l -39.18,-80.73 c -13.23,-26.77 -27.19,-53.74 -40.92,-80.32"
         style="fill:none;stroke:#2f2e2f;stroke-width:17.2086;stroke-linecap:round;stroke-linejoin:round;stroke-miterlimit:10;stroke-dasharray:none;stroke-opacity:1"
         id="path162" />
      <path
         d="m 1849.7,1494.8 c -38.52,-65.24 -108.38,-91.2 -167.89,-102.22 -59.59,-10.87 -108.96,-6.56 -108.96,-6.56 0,0 -26.03,41.98 -42.8,100.09 -18.2,57.36 -27.26,131.26 8.9,198.07 35.44,66.35 110.04,112.72 176.82,141.66 33.33,14.48 64.6,24.62 87.55,31.09 23,6.51 37.47,9.25 37.47,9.25 0,0 22.09,-60.06 34.7,-136.34 3.08,-19.1 5.85,-39.04 7.01,-59.58 0.99,-20.64 0.88,-41.59 -0.77,-62.15 -3.29,-41.13 -12.78,-80.66 -32.03,-113.31"
         style="fill:#ffffff;fill-opacity:1;fill-rule:nonzero;stroke:none"
         id="path164" />
      <path
         d="m 1849.7,1494.8 c -38.52,-65.24 -108.38,-91.2 -167.89,-102.22 -59.59,-10.87 -108.96,-6.56 -108.96,-6.56 0,0 -26.03,41.98 -42.8,100.09 -18.2,57.36 -27.26,131.26 8.9,198.07 35.44,66.35 110.04,112.72 176.82,141.66 33.33,14.48 64.6,24.62 87.55,31.09 23,6.51 37.47,9.25 37.47,9.25 0,0 22.09,-60.06 34.7,-136.34 3.08,-19.1 5.85,-39.04 7.01,-59.58 0.99,-20.64 0.88,-41.59 -0.77,-62.15 -3.29,-41.13 -12.78,-80.66 -32.03,-113.31 z"
         style="fill:none;stroke:#2f2e2f;stroke-width:17.2086;stroke-linecap:round;stroke-linejoin:round;stroke-miterlimit:10;stroke-dasharray:none;stroke-opacity:1"
         id="path166" />
      <path
         d="m 1753.34,1698.88 c -28.91,-53.45 -57.55,-105.77 -87.9,-158.07 -30.45,-52.35 -61.31,-103.95 -92.59,-154.79"
         style="fill:none;stroke:#2f2e2f;stroke-width:17.2086;stroke-linecap:round;stroke-linejoin:round;stroke-miterlimit:10;stroke-dasharray:none;stroke-opacity:1"
         id="path168" />
      <path
         d="m 739.086,2104.39 c 72.762,12.99 125.797,64.87 159.668,114.69 33.976,49.7 48.957,97.14 48.957,97.14 0,0 -7.141,10.12 -20.152,24.92 -13.454,14.43 -33.028,33.33 -57.125,51.37 -24.102,18.02 -52.754,35.11 -84.371,45.73 -31.875,10.4 -67.379,13.67 -103.739,5.56 -72.894,-16.44 -137.285,-76.57 -184.332,-131.66 -46.945,-55.2 -76.515,-105.36 -76.515,-105.36 0,0 10.957,-7.82 29.691,-19.06 19.02,-10.99 44.75,-26.38 75.148,-40.91 30.454,-14.5 65.571,-28.17 102.34,-36.54 36.731,-8.38 73.907,-12.54 110.43,-5.88"
         style="fill:#ffffff;fill-opacity:1;fill-rule:nonzero;stroke:none"
         id="path170" />
      <path
         d="m 739.086,2104.39 c 72.762,12.99 125.797,64.87 159.668,114.69 33.976,49.7 48.957,97.14 48.957,97.14 0,0 -7.141,10.12 -20.152,24.92 -13.454,14.43 -33.028,33.33 -57.125,51.37 -24.102,18.02 -52.754,35.11 -84.371,45.73 -31.875,10.4 -67.379,13.67 -103.739,5.56 -72.894,-16.44 -137.285,-76.57 -184.332,-131.66 -46.945,-55.2 -76.515,-105.36 -76.515,-105.36 0,0 10.957,-7.82 29.691,-19.06 19.02,-10.99 44.75,-26.38 75.148,-40.91 30.454,-14.5 65.571,-28.17 102.34,-36.54 36.731,-8.38 73.907,-12.54 110.43,-5.88 z"
         style="fill:none;stroke:#2f2e2f;stroke-width:17.2086;stroke-linecap:round;stroke-linejoin:round;stroke-miterlimit:10;stroke-dasharray:none;stroke-opacity:1"
         id="path172" />
      <path
         d="m 598.199,2249.13 c 57.246,12.58 115.071,24.52 173.465,35.82 58.363,11.28 117.606,22.17 176.047,31.27"
         style="fill:none;stroke:#2f2e2f;stroke-width:17.2086;stroke-linecap:round;stroke-linejoin:round;stroke-miterlimit:10;stroke-dasharray:none;stroke-opacity:1"
         id="path174" />
      <path
         d="m 976.543,1791.08 c 73.907,7.7 130.637,55.36 168.017,102.35 37.47,46.86 55.74,92.84 55.74,92.84 0,0 -6.47,10.55 -18.51,26.16 -12.16,15.52 -29.39,36.49 -52.11,56.24 -45.91,39.19 -110.26,75.94 -183.594,65.55 -74.293,-11.12 -143.082,-66.18 -194.098,-117.46 -50.933,-51.4 -84.054,-99.04 -84.054,-99.04 0,0 2.597,-2.12 7.293,-5.98 4.711,-3.83 11.605,-9.26 20.339,-15.72 17.481,-12.93 42.34,-29.97 71.934,-46.51 14.797,-8.27 30.77,-16.4 47.598,-23.85 16.422,-7.74 33.625,-14.83 51.386,-20.58 35.504,-11.53 73.125,-17.86 110.059,-14"
         style="fill:#ffffff;fill-opacity:1;fill-rule:nonzero;stroke:none"
         id="path176" />
      <path
         d="m 976.543,1791.08 c 73.907,7.7 130.637,55.36 168.017,102.35 37.47,46.86 55.74,92.84 55.74,92.84 0,0 -6.47,10.55 -18.51,26.16 -12.16,15.52 -29.39,36.49 -52.11,56.24 -45.91,39.19 -110.26,75.94 -183.594,65.55 -74.293,-11.12 -143.082,-66.18 -194.098,-117.46 -50.933,-51.4 -84.054,-99.04 -84.054,-99.04 0,0 2.597,-2.12 7.293,-5.98 4.711,-3.83 11.605,-9.26 20.339,-15.72 17.481,-12.93 42.34,-29.97 71.934,-46.51 14.797,-8.27 30.77,-16.4 47.598,-23.85 16.422,-7.74 33.625,-14.83 51.386,-20.58 35.504,-11.53 73.125,-17.86 110.059,-14 z"
         style="fill:none;stroke:#2f2e2f;stroke-width:17.2086;stroke-linecap:round;stroke-linejoin:round;stroke-miterlimit:10;stroke-dasharray:none;stroke-opacity:1"
         id="path178" />
      <path
         d="m 846.637,1945.87 c 58.246,8.35 117.379,16.27 176.373,23.05 58.6,6.47 117.7,12.26 177.29,17.35"
         style="fill:none;stroke:#2f2e2f;stroke-width:17.2086;stroke-linecap:round;stroke-linejoin:round;stroke-miterlimit:10;stroke-dasharray:none;stroke-opacity:1"
         id="path180" />
      <path
         d="m 1189.72,1460.76 c 73.62,1.69 133.94,44.99 175.07,89.2 20.6,22.05 36.46,44.22 47.15,60.92 10.66,16.67 15.91,27.68 15.91,27.68 0,0 -23.19,43.81 -65.01,87.02 -41.02,43.7 -104.3,83.98 -178.27,79.13 -74.29,-5.03 -147.05,-54.72 -201.949,-102.09 -54.824,-47.49 -91.762,-92.7 -91.762,-92.7 0,0 9.551,-9.47 26.227,-23.53 16.523,-14.17 40.844,-32.52 68.73,-51.48 55.074,-38.25 130.314,-75.79 203.904,-74.15"
         style="fill:#ffffff;fill-opacity:1;fill-rule:nonzero;stroke:none"
         id="path182" />
      <path
         d="m 1189.72,1460.76 c 73.62,1.69 133.94,44.99 175.07,89.2 20.6,22.05 36.46,44.22 47.15,60.92 10.66,16.67 15.91,27.68 15.91,27.68 0,0 -23.19,43.81 -65.01,87.02 -41.02,43.7 -104.3,83.98 -178.27,79.13 -74.29,-5.03 -147.05,-54.72 -201.949,-102.09 -54.824,-47.49 -91.762,-92.7 -91.762,-92.7 0,0 9.551,-9.47 26.227,-23.53 16.523,-14.17 40.844,-32.52 68.73,-51.48 55.074,-38.25 130.314,-75.79 203.904,-74.15 z"
         style="fill:none;stroke:#2f2e2f;stroke-width:17.2086;stroke-linecap:round;stroke-linejoin:round;stroke-miterlimit:10;stroke-dasharray:none;stroke-opacity:1"
         id="path184" />
      <path
         d="m 1072.06,1625.03 c 117.56,7.9 235.33,11.88 355.79,13.53"
         style="fill:none;stroke:#2f2e2f;stroke-width:17.2086;stroke-linecap:round;stroke-linejoin:round;stroke-miterlimit:10;stroke-dasharray:none;stroke-opacity:1"
         id="path186" />
      <path
         d="m 1376.56,1114.99 c 73.94,-3.71 137.3,34.82 181.49,75.67 44.26,40.72 69.48,83.49 69.48,83.49 0,0 -4.71,11.46 -14.11,28.78 -9.07,17.49 -24.26,40.13 -43.71,63.11 -39.17,45.83 -96.06,92.51 -171.64,92.47 -74.85,0.39 -151.17,-43.65 -209.41,-86.66 -58.17,-43.15 -98.24,-85.32 -98.24,-85.32 0,0 8.95,-10.07 24.75,-25.22 15.68,-15.23 37.07,-36.13 63.69,-57 26.44,-20.97 57.9,-42.04 91.64,-58.59 33.1,-16.85 69.11,-28.9 106.06,-30.73"
         style="fill:#ffffff;fill-opacity:1;fill-rule:nonzero;stroke:none"
         id="path188" />
      <path
         d="m 1376.56,1114.99 c 73.94,-3.71 137.3,34.82 181.49,75.67 44.26,40.72 69.48,83.49 69.48,83.49 0,0 -4.71,11.46 -14.11,28.78 -9.07,17.49 -24.26,40.13 -43.71,63.11 -39.17,45.83 -96.06,92.51 -171.64,92.47 -74.85,0.39 -151.17,-43.65 -209.41,-86.66 -58.17,-43.15 -98.24,-85.32 -98.24,-85.32 0,0 8.95,-10.07 24.75,-25.22 15.68,-15.23 37.07,-36.13 63.69,-57 26.44,-20.97 57.9,-42.04 91.64,-58.59 33.1,-16.85 69.11,-28.9 106.06,-30.73 z"
         style="fill:none;stroke:#2f2e2f;stroke-width:17.2086;stroke-linecap:round;stroke-linejoin:round;stroke-miterlimit:10;stroke-dasharray:none;stroke-opacity:1"
         id="path190" />
      <path
         d="m 1271.88,1287.71 c 58.72,-0.62 117.85,-1.99 177.38,-4.12 29.67,-1.11 59.87,-2.19 89.38,-3.87 l 88.89,-5.57"
         style="fill:none;stroke:#2f2e2f;stroke-width:17.2086;stroke-linecap:round;stroke-linejoin:round;stroke-miterlimit:10;stroke-dasharray:none;stroke-opacity:1"
         id="path192" />
      <path
         d="m 850.625,741.621 c -124.07,80.621 -214.594,211.258 -246.484,355.739 -31.895,144.49 -4.782,301.1 73.828,426.45 125.308,-79.07 222.523,-206.51 251.258,-351.87 28.742,-145.35 7.183,-309.51 -78.602,-430.319"
         style="fill:#ffffff;fill-opacity:1;fill-rule:nonzero;stroke:none"
         id="path194" />
      <path
         d="m 850.625,741.621 c -124.07,80.621 -214.594,211.258 -246.484,355.739 -31.895,144.49 -4.782,301.1 73.828,426.45 125.308,-79.07 222.523,-206.51 251.258,-351.87 28.742,-145.35 7.183,-309.51 -78.602,-430.319 z"
         style="fill:none;stroke:#2f2e2f;stroke-width:17.2086;stroke-linecap:round;stroke-linejoin:round;stroke-miterlimit:10;stroke-dasharray:none;stroke-opacity:1"
         id="path196" />
      <path
         d="M 744.297,1274.15 C 832.418,1137.17 862.367,955.441 850.625,741.621"
         style="fill:#ffffff;fill-opacity:1;fill-rule:nonzero;stroke:none"
         id="path198" />
      <path
         d="M 744.297,1274.15 C 832.418,1137.17 862.367,955.441 850.625,741.621"
         style="fill:none;stroke:#2f2e2f;stroke-width:17.2086;stroke-linecap:round;stroke-linejoin:round;stroke-miterlimit:10;stroke-dasharray:none;stroke-opacity:1"
         id="path200" />
      <path
         d="M 744.297,682.621 C 576.605,718.309 424.363,821.789 329.465,964.57 c -94.91,142.78 -131.367,323.21 -99.36,491.64 174.844,-21.4 333.579,-119.49 430.137,-266.81 96.559,-147.32 134.196,-337.931 84.055,-506.779"
         style="fill:#ffffff;fill-opacity:1;fill-rule:nonzero;stroke:none"
         id="path202" />
      <path
         d="M 744.297,682.621 C 576.605,718.309 424.363,821.789 329.465,964.57 c -94.91,142.78 -131.367,323.21 -99.36,491.64 174.844,-21.4 333.579,-119.49 430.137,-266.81 96.559,-147.32 134.196,-337.931 84.055,-506.779 z"
         style="fill:none;stroke:#2f2e2f;stroke-width:17.2086;stroke-linecap:round;stroke-linejoin:round;stroke-miterlimit:10;stroke-dasharray:none;stroke-opacity:1"
         id="path204" />
      <path
         d="M 371.641,1274.95 C 532.047,1095.26 659.848,899.582 744.297,682.621"
         style="fill:#ffffff;fill-opacity:1;fill-rule:nonzero;stroke:none"
         id="path206" />
      <path
         d="M 371.641,1274.95 C 532.047,1095.26 659.848,899.582 744.297,682.621"
         style="fill:none;stroke:#2f2e2f;stroke-width:17.2086;stroke-linecap:round;stroke-linejoin:round;stroke-miterlimit:10;stroke-dasharray:none;stroke-opacity:1"
         id="path208" />
      <path
         d="m 1240.05,833.789 c 0,573.471 -625.675,118.891 -22.7,-16.488 -602.975,135.379 -363.991,-600.141 8.67,-26.672 -372.661,-573.469 400.71,-573.469 28.05,0 372.66,-573.469 611.65,162.051 8.67,26.672 602.98,135.379 -22.69,589.959 -22.69,16.488"
         style="fill:#ffffff;fill-opacity:1;fill-rule:nonzero;stroke:none"
         id="path210" />
      <path
         d="m 1240.05,833.789 c 0,573.471 -625.675,118.891 -22.7,-16.488 -602.975,135.379 -363.991,-600.141 8.67,-26.672 -372.661,-573.469 400.71,-573.469 28.05,0 372.66,-573.469 611.65,162.051 8.67,26.672 602.98,135.379 -22.69,589.959 -22.69,16.488 z"
         style="fill:none;stroke:#2f2e2f;stroke-width:20;stroke-linecap:round;stroke-linejoin:round;stroke-miterlimit:10;stroke-dasharray:none;stroke-opacity:1"
         id="path212" />
      <path
         d="m 1358.83,786.539 c 0,-65.367 -53,-118.367 -118.37,-118.367 -65.37,0 -118.37,53 -118.37,118.367 0,65.383 53,118.371 118.37,118.371 65.37,0 118.37,-52.988 118.37,-118.371"
         style="fill:#ffffff;fill-opacity:1;fill-rule:nonzero;stroke:none"
         id="path214" />
      <path
         d="m 1358.83,786.539 c 0,-65.367 -53,-118.367 -118.37,-118.367 -65.37,0 -118.37,53 -118.37,118.367 0,65.383 53,118.371 118.37,118.371 65.37,0 118.37,-52.988 118.37,-118.371 z"
         style="fill:none;stroke:#2f2e2f;stroke-width:20;stroke-linecap:round;stroke-linejoin:round;stroke-miterlimit:10;stroke-dasharray:none;stroke-opacity:1"
         id="path216" />
      <path
         d="m 713.203,667.32 c 0,573.47 -625.6678,118.891 -22.691,-16.488 C 87.5352,786.211 326.52,50.6914 699.18,624.16 c -372.66,-573.4686 400.71,-573.4686 28.05,0 372.66,-573.4686 611.65,162.051 8.668,26.672 602.982,135.379 -22.695,589.958 -22.695,16.488"
         style="fill:#ffffff;fill-opacity:1;fill-rule:nonzero;stroke:none"
         id="path218" />
      <path
         d="m 713.203,667.32 c 0,573.47 -625.6678,118.891 -22.691,-16.488 C 87.5352,786.211 326.52,50.6914 699.18,624.16 c -372.66,-573.4686 400.71,-573.4686 28.05,0 372.66,-573.4686 611.65,162.051 8.668,26.672 602.982,135.379 -22.695,589.958 -22.695,16.488 z"
         style="fill:none;stroke:#2f2e2f;stroke-width:20;stroke-linecap:round;stroke-linejoin:round;stroke-miterlimit:10;stroke-dasharray:none;stroke-opacity:1"
         id="path220" />
      <path
         d="m 831.988,620.082 c 0,-65.371 -52.996,-118.371 -118.371,-118.371 -65.375,0 -118.367,53 -118.367,118.371 0,65.367 52.992,118.367 118.367,118.367 65.375,0 118.371,-53 118.371,-118.367"
         style="fill:#ffffff;fill-opacity:1;fill-rule:nonzero;stroke:none"
         id="path222" />
      <path
         d="m 831.988,620.082 c 0,-65.371 -52.996,-118.371 -118.371,-118.371 -65.375,0 -118.367,53 -118.367,118.371 0,65.367 52.992,118.367 118.367,118.367 65.375,0 118.371,-53 118.371,-118.367 z"
         style="fill:none;stroke:#2f2e2f;stroke-width:20;stroke-linecap:round;stroke-linejoin:round;stroke-miterlimit:10;stroke-dasharray:none;stroke-opacity:1"
         id="path224" />
      <path
         d="m 3746.71,430.879 c -38.51,-48.399 -86.91,-89.297 -141.2,-118 -165,-87.098 -369.01,-75.5 -542.4,-6.598 17,124.598 36.79,253.899 63.7,381.801 34.39,163.797 80.49,325.398 147.69,471.798 115,-26.9 230.8,-57.5 333.11,-116.5 102.19,-59.001 190.7,-150.4 222.5,-264.099 33.7,-120.5 -4.6,-250 -83.4,-348.402"
         style="fill:#ffffff;fill-opacity:1;fill-rule:nonzero;stroke:none"
         id="path226" />
      <path
         d="m 3746.71,430.879 c -38.51,-48.399 -86.91,-89.297 -141.2,-118 -165,-87.098 -369.01,-75.5 -542.4,-6.598 17,124.598 36.79,253.899 63.7,381.801 34.39,163.797 80.49,325.398 147.69,471.798 115,-26.9 230.8,-57.5 333.11,-116.5 102.19,-59.001 190.7,-150.4 222.5,-264.099 33.7,-120.5 -4.6,-250 -83.4,-348.402 z"
         style="fill:none;stroke:#2f2e2f;stroke-width:20;stroke-linecap:round;stroke-linejoin:round;stroke-miterlimit:10;stroke-dasharray:none;stroke-opacity:1"
         id="path228" />
      <path
         d="m 3746.71,430.879 c -38.51,-48.399 -86.91,-89.297 -141.2,-118 -165,-87.098 -369.01,-75.5 -542.4,-6.598 17,124.598 36.79,253.899 63.7,381.801 68.7,20.098 143.6,22.598 215.7,18.297 80,-4.699 161.4,-17.5 231.89,-55.399 84.41,-45.398 147.01,-127.898 172.31,-220.101 z"
         style="fill:none;stroke:#2f2e2f;stroke-width:10;stroke-linecap:round;stroke-linejoin:round;stroke-miterlimit:10;stroke-dasharray:none;stroke-opacity:1"
         id="path230" />
      <path
         d="m 1878.01,996.781 c -166,-0.101 -334.01,0.098 -496.31,32.999 -19.6,4 -39.2,8.4 -58.59,13.4 -180.2,46.2 -354.403,144.4 -453.907,301.7 -99.496,157.2 -107.598,379 11.602,521.9 56.203,-10.31 94.199,-57.2 114.3,-110.71 6.505,48.41 43.695,88.41 85.005,114.61 186,-44.61 340.2,-166.1 493.2,-280.9 35.89,-26.9 73.5,-53.31 112.5,-77.4 127,-78.6 268.5,-133.81 412.99,-109.9 14.71,-153.8 -89.69,-323.8 -220.79,-405.699"
         style="fill:#ffffff;fill-opacity:1;fill-rule:nonzero;stroke:none"
         id="path232" />
      <path
         d="m 1878.01,996.781 c -166,-0.101 -334.01,0.098 -496.31,32.999 -19.6,4 -39.2,8.4 -58.59,13.4 -180.2,46.2 -354.403,144.4 -453.907,301.7 -99.496,157.2 -107.598,379 11.602,521.9 56.203,-10.31 94.199,-57.2 114.3,-110.71 6.505,48.41 43.695,88.41 85.005,114.61 186,-44.61 340.2,-166.1 493.2,-280.9 35.89,-26.9 73.5,-53.31 112.5,-77.4 127,-78.6 268.5,-133.81 412.99,-109.9 14.71,-153.8 -89.69,-323.8 -220.79,-405.699 z"
         style="fill:none;stroke:#2f2e2f;stroke-width:20;stroke-linecap:round;stroke-linejoin:round;stroke-miterlimit:10;stroke-dasharray:none;stroke-opacity:1"
         id="path234" />
      <path
         d="m 1577.7,1167.88 c -52.7,-61.9 -120.8,-108.2 -196,-138.1 -19.6,4 -39.2,8.4 -58.59,13.4 -180.2,46.2 -354.403,144.4 -453.907,301.7 -99.496,157.2 -107.598,379 11.602,521.9 56.203,-10.31 94.199,-57.2 114.3,-110.71 6.505,48.41 43.695,88.41 85.005,114.61 186,-44.61 340.2,-166.1 493.2,-280.9 35.89,-26.9 73.5,-53.31 112.5,-77.4 9.39,-123.9 -32.8,-256.2 -108.11,-344.5 z"
         style="fill:none;stroke:#2f2e2f;stroke-width:10;stroke-linecap:round;stroke-linejoin:round;stroke-miterlimit:10;stroke-dasharray:none;stroke-opacity:1"
         id="path236" />
      <path
         d="m 1913.33,246.43 c -54.31,-2.68 -108.62,-5.36 -162.93,-8.032 -32.31,-1.589 -66.31,-2.898 -95.3,9.532 -43.94,18.851 -64.33,66.672 -55.47,108.359 8.87,41.703 41.84,77.082 80.8,102.84 60.49,39.992 137.85,60.492 213.88,56.672 45.87,-30.75 84.32,-83 89.94,-132.93 5.61,-49.941 -32.77,-98.629 -70.92,-136.441"
         style="fill:#ffffff;fill-opacity:1;fill-rule:nonzero;stroke:none"
         id="path238" />
      <path
         d="m 1913.33,246.43 c -54.31,-2.68 -108.62,-5.36 -162.93,-8.032 -32.31,-1.589 -66.31,-2.898 -95.3,9.532 -43.94,18.851 -64.33,66.672 -55.47,108.359 8.87,41.703 41.84,77.082 80.8,102.84 60.49,39.992 137.85,60.492 213.88,56.672 45.87,-30.75 84.32,-83 89.94,-132.93 5.61,-49.941 -32.77,-98.629 -70.92,-136.441 z"
         style="fill:none;stroke:#2f2e2f;stroke-width:20;stroke-linecap:round;stroke-linejoin:round;stroke-miterlimit:10;stroke-dasharray:none;stroke-opacity:1"
         id="path240" />
      <path
         d="m 1716.26,371.809 c -19.97,-14.797 -34.01,-37.379 -38.47,-61.829 -4.45,-24.46 0.75,-50.539 14.22,-71.429"
         style="fill:none;stroke:#2f2e2f;stroke-width:10;stroke-linecap:round;stroke-linejoin:round;stroke-miterlimit:10;stroke-dasharray:none;stroke-opacity:1"
         id="path242" />
      <path
         d="m 2682.39,939.012 c -6.01,-68.172 -12.03,-136.34 -18.04,-204.52 -10.74,-121.64 -22.49,-246.883 -78.9,-355.183 C 2529.02,271 2416.12,182.652 2294.46,193.148 c -73.33,6.344 -137.56,57.903 -129.55,131.082 -68.32,-72.929 -169.38,-113.96 -269.2,-109.281 -27.38,1.289 -55.87,6.371 -77.49,23.199 -24.79,19.293 -36.92,53.5 -29.83,84.102 7.1,30.59 30.25,73.129 60.99,79.559 22.39,129.429 -61.62,249.66 -118.25,368.179 -140.41,293.862 -114.09,660.832 66.82,931.642 345.22,-56.52 684.84,-60.41 1033.28,-29.33 107.48,-104.76 212.86,-197.62 343.34,-271.78 -14.07,-120.19 -68.99,-235.89 -156.94,-319.01 -87.94,-83.112 -214.46,-135.24 -335.24,-142.498"
         style="fill:#ffffff;fill-opacity:1;fill-rule:nonzero;stroke:none"
         id="path244" />
      <path
         d="m 2682.39,939.012 c -6.01,-68.172 -12.03,-136.34 -18.04,-204.52 -10.74,-121.64 -22.49,-246.883 -78.9,-355.183 C 2529.02,271 2416.12,182.652 2294.46,193.148 c -73.33,6.344 -137.56,57.903 -129.55,131.082 -68.32,-72.929 -169.38,-113.96 -269.2,-109.281 -27.38,1.289 -55.87,6.371 -77.49,23.199 -24.79,19.293 -36.92,53.5 -29.83,84.102 7.1,30.59 30.25,73.129 60.99,79.559 22.39,129.429 -61.62,249.66 -118.25,368.179 -140.41,293.862 -114.09,660.832 66.82,931.642 345.22,-56.52 684.84,-60.41 1033.28,-29.33 107.48,-104.76 212.86,-197.62 343.34,-271.78 -14.07,-120.19 -68.99,-235.89 -156.94,-319.01 -87.94,-83.112 -214.46,-135.24 -335.24,-142.498 z"
         style="fill:none;stroke:#2f2e2f;stroke-width:20;stroke-linecap:round;stroke-linejoin:round;stroke-miterlimit:10;stroke-dasharray:none;stroke-opacity:1"
         id="path246" />
      <path
         d="m 2378.49,341.629 c -17.32,-16.391 -28.18,-39.418 -29.78,-63.207 -1.61,-23.793 6.05,-48.082 21.01,-66.641"
         style="fill:none;stroke:#2f2e2f;stroke-width:10;stroke-linecap:round;stroke-linejoin:round;stroke-miterlimit:10;stroke-dasharray:none;stroke-opacity:1"
         id="path248" />
      <path
         d="m 2304.97,350.219 c -21.98,-16.59 -38.17,-40.668 -45.25,-67.27 -7.08,-26.597 -4.98,-55.558 5.84,-80.867"
         style="fill:none;stroke:#2f2e2f;stroke-width:10;stroke-linecap:round;stroke-linejoin:round;stroke-miterlimit:10;stroke-dasharray:none;stroke-opacity:1"
         id="path250" />
      <path
         d="M 1971.92,358.602 C 1938.33,322.91 1928.98,266.441 1949.29,221.82"
         style="fill:none;stroke:#2f2e2f;stroke-width:10;stroke-linecap:round;stroke-linejoin:round;stroke-miterlimit:10;stroke-dasharray:none;stroke-opacity:1"
         id="path252" />
      <path
         d="m 1908.36,368.422 c -25.33,-11.16 -46.25,-32.012 -57.48,-57.32 -11.23,-25.293 -12.67,-54.793 -3.96,-81.063"
         style="fill:none;stroke:#2f2e2f;stroke-width:10;stroke-linecap:round;stroke-linejoin:round;stroke-miterlimit:10;stroke-dasharray:none;stroke-opacity:1"
         id="path254" />
      <path
         d="m 1977.2,937.301 c 85.29,-69.563 150.43,-163.52 185.65,-267.781 35.23,-104.258 40.41,-218.469 14.78,-325.5"
         style="fill:#ffffff;fill-opacity:1;fill-rule:nonzero;stroke:none"
         id="path256" />
      <path
         d="m 1977.2,937.301 c 85.29,-69.563 150.43,-163.52 185.65,-267.781 35.23,-104.258 40.41,-218.469 14.78,-325.5"
         style="fill:none;stroke:#2f2e2f;stroke-width:20;stroke-linecap:round;stroke-linejoin:round;stroke-miterlimit:10;stroke-dasharray:none;stroke-opacity:1"
         id="path258" />
      <path
         d="m 2913.29,1573.01 c 158.98,-77.13 321.27,-156.6 445.46,-282.31 114.55,-115.93 191.82,-270.47 205.33,-432.891 C 3577.61,695.391 3524.76,526.5 3413.35,407.539 3301.93,288.582 3131.8,224.332 2970.82,249.801 c 15.46,-15.321 6.17,-46.051 -11.16,-59.192 -17.35,-13.14 -40.42,-15.199 -62.14,-16.41 -161.07,-8.98 -323.2,1.582 -481.73,31.383 -19.27,27.566 -21.86,71.066 -1.11,97.539 20.75,26.469 51.91,42.41 82.67,56.008 74.45,32.93 152.77,57.101 232.83,71.863 -164.3,112.707 -255.72,323.86 -201.32,515.539 54.39,191.679 239.32,338.589 438.34,348.209"
         style="fill:#ffffff;fill-opacity:1;fill-rule:nonzero;stroke:none"
         id="path260" />
      <path
         d="m 2913.29,1573.01 c 158.98,-77.13 321.27,-156.6 445.46,-282.31 114.55,-115.93 191.82,-270.47 205.33,-432.891 C 3577.61,695.391 3524.76,526.5 3413.35,407.539 3301.93,288.582 3131.8,224.332 2970.82,249.801 c 15.46,-15.321 6.17,-46.051 -11.16,-59.192 -17.35,-13.14 -40.42,-15.199 -62.14,-16.41 -161.07,-8.98 -323.2,1.582 -481.73,31.383 -19.27,27.566 -21.86,71.066 -1.11,97.539 20.75,26.469 51.91,42.41 82.67,56.008 74.45,32.93 152.77,57.101 232.83,71.863 -164.3,112.707 -255.72,323.86 -201.32,515.539 54.39,191.679 239.32,338.589 438.34,348.209"
         style="fill:none;stroke:#2f2e2f;stroke-width:20;stroke-linecap:round;stroke-linejoin:round;stroke-miterlimit:10;stroke-dasharray:none;stroke-opacity:1"
         id="path262" />
      <path
         d="m 2645.26,303.332 c -19.14,-12.012 -33.79,-31 -40.57,-52.562 -6.79,-21.551 -5.65,-45.508 3.15,-66.321"
         style="fill:none;stroke:#2f2e2f;stroke-width:10;stroke-linecap:round;stroke-linejoin:round;stroke-miterlimit:10;stroke-dasharray:none;stroke-opacity:1"
         id="path264" />
      <path
         d="m 2552.61,318.512 c -23.22,-9.543 -42.69,-27.891 -53.58,-50.5 -10.9,-22.614 -13.11,-49.274 -6.11,-73.371"
         style="fill:none;stroke:#2f2e2f;stroke-width:10;stroke-linecap:round;stroke-linejoin:round;stroke-miterlimit:10;stroke-dasharray:none;stroke-opacity:1"
         id="path266" />
      <path
         d="m 2905.2,1731.16 c 12.26,-45.97 -12.94,-95.57 -50.29,-125.07 -37.34,-29.48 -84.71,-42.74 -131.08,-53.37 -253.99,-58.21 -521.27,-57.55 -774.96,1.9 -56.92,13.34 -115.48,30.86 -158.22,70.74 -42.74,39.87 -64.25,108.24 -34.33,158.47 377.69,-93.45 766.57,-124.9 1148.88,-52.67"
         style="fill:#ffffff;fill-opacity:1;fill-rule:nonzero;stroke:none"
         id="path268" />
      <path
         d="m 2905.2,1731.16 c 12.26,-45.97 -12.94,-95.57 -50.29,-125.07 -37.34,-29.48 -84.71,-42.74 -131.08,-53.37 -253.99,-58.21 -521.27,-57.55 -774.96,1.9 -56.92,13.34 -115.48,30.86 -158.22,70.74 -42.74,39.87 -64.25,108.24 -34.33,158.47 377.69,-93.45 766.57,-124.9 1148.88,-52.67 z"
         style="fill:none;stroke:#2f2e2f;stroke-width:20;stroke-linecap:round;stroke-linejoin:round;stroke-miterlimit:10;stroke-dasharray:none;stroke-opacity:1"
         id="path270" />
      <path
         d="m 2481.52,1490.55 c 0,-123.21 -99.86,-223.08 -223.06,-223.08 -123.2,0 -223.07,99.87 -223.07,223.08 0,123.19 99.87,223.06 223.07,223.06 123.2,0 223.06,-99.87 223.06,-223.06"
         style="fill:#ffffff;fill-opacity:1;fill-rule:nonzero;stroke:none"
         id="path272" />
      <path
         d="m 2481.52,1490.55 c 0,-123.21 -99.86,-223.08 -223.06,-223.08 -123.2,0 -223.07,99.87 -223.07,223.08 0,123.19 99.87,223.06 223.07,223.06 123.2,0 223.06,-99.87 223.06,-223.06 z"
         style="fill:none;stroke:#2f2e2f;stroke-width:20;stroke-linecap:round;stroke-linejoin:round;stroke-miterlimit:10;stroke-dasharray:none;stroke-opacity:1"
         id="path274" />
      <path
         d="m 2258.46,1316.23 c 0,-22.79 -18.48,-41.28 -41.28,-41.28 -22.8,0 -41.28,18.49 -41.28,41.28 0,22.79 18.48,41.28 41.28,41.28 22.8,0 41.28,-18.49 41.28,-41.28"
         style="fill:#ffffff;fill-opacity:1;fill-rule:nonzero;stroke:none"
         id="path276" />
      <path
         d="m 2258.46,1316.23 c 0,-22.79 -18.48,-41.28 -41.28,-41.28 -22.8,0 -41.28,18.49 -41.28,41.28 0,22.79 18.48,41.28 41.28,41.28 22.8,0 41.28,-18.49 41.28,-41.28 z"
         style="fill:none;stroke:#2f2e2f;stroke-width:10;stroke-linecap:round;stroke-linejoin:round;stroke-miterlimit:10;stroke-dasharray:none;stroke-opacity:1"
         id="path278" />
      <path
         d="m 2491.48,1424.05 c -176.8,-88.63 -333.04,-88.82 -468.59,0 -40.41,45.37 -40.41,90.75 0,136.13 137.37,-92.51 293.44,-93.19 468.59,0 39.43,-45.38 39.43,-90.76 0,-136.13"
         style="fill:#ffffff;fill-opacity:1;fill-rule:nonzero;stroke:none"
         id="path280" />
      <path
         d="m 2491.48,1424.05 c -176.8,-88.63 -333.04,-88.82 -468.59,0 -40.41,45.37 -40.41,90.75 0,136.13 137.37,-92.51 293.44,-93.19 468.59,0 39.43,-45.38 39.43,-90.76 0,-136.13 z"
         style="fill:none;stroke:#2f2e2f;stroke-width:20;stroke-linecap:round;stroke-linejoin:round;stroke-miterlimit:10;stroke-dasharray:none;stroke-opacity:1"
         id="path282" />
      <path
         d="m 3278.81,2228.97 c -24.5,41.51 -49.81,82.21 -76.2,122.21 -121.7,185.2 -263.11,354 -424.1,504.9 -61.11,57.4 -124.91,112.1 -191.61,164.1 167.55,242.2 431.09,415.37 718.97,476.2 52.66,11.13 104.93,-22 116.59,-74.54 87.75,-395.38 30.5,-827.94 -143.65,-1192.87"
         style="fill:#ffffff;fill-opacity:1;fill-rule:nonzero;stroke:none"
         id="path284" />
      <path
         d="m 3278.81,2228.97 c -24.5,41.51 -49.81,82.21 -76.2,122.21 -121.7,185.2 -263.11,354 -424.1,504.9 -61.11,57.4 -124.91,112.1 -191.61,164.1 167.55,242.2 431.09,415.37 718.97,476.2 52.66,11.13 104.93,-22 116.59,-74.54 87.75,-395.38 30.5,-827.94 -143.65,-1192.87 z"
         style="fill:none;stroke:#2f2e2f;stroke-width:20;stroke-linecap:round;stroke-linejoin:round;stroke-miterlimit:10;stroke-dasharray:none;stroke-opacity:1"
         id="path286" />
      <path
         d="m 3202.61,2351.18 c -121.7,185.2 -263.11,354 -424.1,504.9 132.69,197.1 312.19,362.6 520.09,477.6 73.8,-321 33.4,-675.8 -95.99,-982.5"
         style="fill:#ffffff;fill-opacity:1;fill-rule:nonzero;stroke:none"
         id="path288" />
      <path
         d="m 3202.61,2351.18 c -121.7,185.2 -263.11,354 -424.1,504.9 132.69,197.1 312.19,362.6 520.09,477.6 73.8,-321 33.4,-675.8 -95.99,-982.5 z"
         style="fill:none;stroke:#2f2e2f;stroke-width:20;stroke-linecap:round;stroke-linejoin:round;stroke-miterlimit:10;stroke-dasharray:none;stroke-opacity:1"
         id="path290" />
      <path
         d="m 2224.51,3068.28 c -66.7,-75.6 -134,-151.7 -201.6,-227.9 -117.1,-132.2 -234.9,-265 -351.21,-396.6 -23.49,-26.5 -46.79,-52.9 -70,-79.2 -137.59,169.2 -212.7,388.1 -207.9,606.2 4.34,196.74 88.82,396.1 211.83,552.84 23.88,30.43 65.73,40 100.84,23.78 216.98,-100.27 401.48,-270.31 518.04,-479.12"
         style="fill:#ffffff;fill-opacity:1;fill-rule:nonzero;stroke:none"
         id="path292" />
      <path
         d="m 2224.51,3068.28 c -66.7,-75.6 -134,-151.7 -201.6,-227.9 -117.1,-132.2 -234.9,-265 -351.21,-396.6 -23.49,-26.5 -46.79,-52.9 -70,-79.2 -137.59,169.2 -212.7,388.1 -207.9,606.2 4.34,196.74 88.82,396.1 211.83,552.84 23.88,30.43 65.73,40 100.84,23.78 216.98,-100.27 401.48,-270.31 518.04,-479.12 z"
         style="fill:none;stroke:#2f2e2f;stroke-width:20;stroke-linecap:round;stroke-linejoin:round;stroke-miterlimit:10;stroke-dasharray:none;stroke-opacity:1"
         id="path294" />
      <path
         d="m 2022.91,2840.38 c -117.1,-132.2 -234.9,-265 -351.21,-396.6 -126.39,119.5 -173.09,307.7 -169.29,484.4 4.09,192.3 86.3,372 157.39,550.8 172.9,-177.1 299.11,-399.5 363.11,-638.6"
         style="fill:#ffffff;fill-opacity:1;fill-rule:nonzero;stroke:none"
         id="path296" />
      <path
         d="m 2022.91,2840.38 c -117.1,-132.2 -234.9,-265 -351.21,-396.6 -126.39,119.5 -173.09,307.7 -169.29,484.4 4.09,192.3 86.3,372 157.39,550.8 172.9,-177.1 299.11,-399.5 363.11,-638.6 z"
         style="fill:none;stroke:#2f2e2f;stroke-width:20;stroke-linecap:round;stroke-linejoin:round;stroke-miterlimit:10;stroke-dasharray:none;stroke-opacity:1"
         id="path298" />
      <path
         d="m 1559.3,2440.21 c 3,0.27 71.29,213.83 81.64,235.54 33.92,71.06 76.42,138.14 128.32,197.46 107.11,122.42 249.94,202.12 404.95,247.4 366.46,107.04 757.03,-78.24 939.64,-402.86 32.82,-58.34 60.11,-119.68 83.35,-182.43 12.48,-33.72 23.76,-67.88 34.07,-102.32 5.97,-19.92 12.8,-89.88 27.62,-102.01 28.78,-23.57 72.38,-29.27 113.94,-34.9 35.94,-4.86 59.92,-39.94 50.95,-75.08 -11.95,-46.79 -39.5,-96.75 -68.77,-134.69 l 32.47,-8.67 c 32.99,-8.82 47.28,-47.33 28.52,-75.85 -212.61,-323.37 -611.56,-385.3 -970.15,-382.29 -217.5,1.83 -457.52,15.29 -657.88,104.84 -161.54,72.19 -303,187.79 -401,335.57 -42.59,64.24 -76.75,134.01 -101.4,207.03 -9.53,28.24 14.01,56.44 43.64,53.22 29.46,-3.21 55.46,-2.81 77.17,2.08 -21.83,38.29 -32.15,82.89 -33.78,132.26 -1,30.1 32.67,48.38 57.56,31.41 43.67,-29.78 86.88,-48.75 129.14,-45.71"
         style="fill:#ffffff;fill-opacity:1;fill-rule:nonzero;stroke:none"
         id="path300" />
      <path
         d="m 1559.3,2440.21 c 3,0.27 71.29,213.83 81.64,235.54 33.92,71.06 76.42,138.14 128.32,197.46 107.11,122.42 249.94,202.12 404.95,247.4 366.46,107.04 757.03,-78.24 939.64,-402.86 32.82,-58.34 60.11,-119.68 83.35,-182.43 12.48,-33.72 23.76,-67.88 34.07,-102.32 5.97,-19.92 12.8,-89.88 27.62,-102.01 28.78,-23.57 72.38,-29.27 113.94,-34.9 35.94,-4.86 59.92,-39.94 50.95,-75.08 -11.95,-46.79 -39.5,-96.75 -68.77,-134.69 l 32.47,-8.67 c 32.99,-8.82 47.28,-47.33 28.52,-75.85 -212.61,-323.37 -611.56,-385.3 -970.15,-382.29 -217.5,1.83 -457.52,15.29 -657.88,104.84 -161.54,72.19 -303,187.79 -401,335.57 -42.59,64.24 -76.75,134.01 -101.4,207.03 -9.53,28.24 14.01,56.44 43.64,53.22 29.46,-3.21 55.46,-2.81 77.17,2.08 -21.83,38.29 -32.15,82.89 -33.78,132.26 -1,30.1 32.67,48.38 57.56,31.41 43.67,-29.78 86.88,-48.75 129.14,-45.71 z"
         style="fill:none;stroke:#2f2e2f;stroke-width:20;stroke-linecap:round;stroke-linejoin:round;stroke-miterlimit:10;stroke-dasharray:none;stroke-opacity:1"
         id="path302" />
      <path
         d="m 2284.62,3144.05 c -37.35,-192.16 -34.81,-395.89 8.23,-586.9 37.31,-165.54 104.25,-340.24 263.83,-422.01 228.01,-116.87 555.05,8.14 716.6,186.17"
         style="fill:none;stroke:#2f2e2f;stroke-width:10;stroke-linecap:round;stroke-linejoin:round;stroke-miterlimit:10;stroke-dasharray:none;stroke-opacity:1"
         id="path304" />
      <path
         d="m 2032.29,2315.76 c -6.73,-33.68 -29.96,-57.44 -51.89,-53.06 -21.93,4.38 -34.26,35.24 -27.53,68.92 6.72,33.69 29.96,57.45 51.89,53.08 21.93,-4.39 34.25,-35.25 27.53,-68.94"
         style="fill:#2f2e2f;fill-opacity:1;fill-rule:nonzero;stroke:none"
         id="path306" />
      <path
         d="m 2633.71,2285.26 c -6.73,-33.69 -29.96,-57.45 -51.89,-53.07 -21.94,4.38 -34.26,35.24 -27.53,68.93 6.73,33.68 29.96,57.44 51.89,53.07 21.93,-4.39 34.25,-35.24 27.53,-68.93"
         style="fill:#2f2e2f;fill-opacity:1;fill-rule:nonzero;stroke:none"
         id="path308" />
      <path
         d="m 2239.75,2164.86 c -9.41,-0.74 -19.45,-2.15 -26.48,-8.46 -11.15,-10.01 -9.96,-28.22 -3.47,-41.72 11.86,-24.69 39.03,-41.16 66.4,-40.29 27.37,0.88 53.42,19.07 63.68,44.46 24.37,60.3 -65.93,48.71 -100.13,46.01 z"
         style="fill:none;stroke:#2f2e2f;stroke-width:20;stroke-linecap:round;stroke-linejoin:round;stroke-miterlimit:10;stroke-dasharray:none;stroke-opacity:1"
         id="path310" />
      <path
         d="m 2034.13,2095.18 c 10.44,-50.96 55.46,-92.9 107.03,-99.71 51.57,-6.81 105.93,22 129.25,68.5 29.56,-45.54 71.78,-70.72 126.04,-72.48 54.27,-1.75 108.69,24.46 141.14,67.99"
         style="fill:none;stroke:#2f2e2f;stroke-width:20;stroke-linecap:round;stroke-linejoin:round;stroke-miterlimit:10;stroke-dasharray:none;stroke-opacity:1"
         id="path312" />
      <path
         d="m 2045.11,2727.48 c 32.17,-34.71 45.6,-85.83 34.66,-131.87"
         style="fill:none;stroke:#2f2e2f;stroke-width:10;stroke-linecap:round;stroke-linejoin:round;stroke-miterlimit:10;stroke-dasharray:none;stroke-opacity:1"
         id="path314" />
      <path
         d="m 1976.6,2717.1 c 27.65,-35.72 45.23,-79.15 50.21,-124.05"
         style="fill:none;stroke:#2f2e2f;stroke-width:10;stroke-linecap:round;stroke-linejoin:round;stroke-miterlimit:10;stroke-dasharray:none;stroke-opacity:1"
         id="path316" />
      <path
         d="m 2585.03,2700.38 c 44.53,-37.03 67.06,-98.75 56.84,-155.76"
         style="fill:#ffffff;fill-opacity:1;fill-rule:nonzero;stroke:none"
         id="path318" />
      <path
         d="m 2585.03,2700.38 c 44.53,-37.03 67.06,-98.75 56.84,-155.76"
         style="fill:none;stroke:#2f2e2f;stroke-width:10;stroke-linecap:round;stroke-linejoin:round;stroke-miterlimit:10;stroke-dasharray:none;stroke-opacity:1"
         id="path320" />
      <path
         d="m 2508.05,2683.54 c 30.35,-29.47 46.79,-72.7 43.7,-114.88"
         style="fill:#ffffff;fill-opacity:1;fill-rule:nonzero;stroke:none"
         id="path322" />
      <path
         d="m 2508.05,2683.54 c 30.35,-29.47 46.79,-72.7 43.7,-114.88"
         style="fill:none;stroke:#2f2e2f;stroke-width:10;stroke-linecap:round;stroke-linejoin:round;stroke-miterlimit:10;stroke-dasharray:none;stroke-opacity:1"
         id="path324" />
    </g>
  </g>
</svg>
