<?xml version="1.0" encoding="UTF-8" standalone="no"?>
<!-- Created with Inkscape (http://www.inkscape.org/) -->

<svg
   version="1.1"
   id="svg2"
   width="666.66669"
   height="666.66669"
   viewBox="0 0 666.66669 666.66669"
   sodipodi:docname="7934940.eps"
   xmlns:inkscape="http://www.inkscape.org/namespaces/inkscape"
   xmlns:sodipodi="http://sodipodi.sourceforge.net/DTD/sodipodi-0.dtd"
   xmlns="http://www.w3.org/2000/svg"
   xmlns:svg="http://www.w3.org/2000/svg">
  <defs
     id="defs6" />
  <sodipodi:namedview
     id="namedview4"
     pagecolor="#ffffff"
     bordercolor="#000000"
     borderopacity="0.25"
     inkscape:showpageshadow="2"
     inkscape:pageopacity="0.0"
     inkscape:pagecheckerboard="0"
     inkscape:deskcolor="#d1d1d1" />
  <g
     id="g8"
     inkscape:groupmode="layer"
     inkscape:label="ink_ext_XXXXXX"
     transform="matrix(1.3333333,0,0,-1.3333333,0,666.66667)">
    <g
       id="g10"
       transform="scale(0.1)">
      <path
         d="M 5000,0 H 0 V 5000 H 5000 V 0"
         style="fill:#ffffff;fill-opacity:1;fill-rule:nonzero;stroke:none"
         id="path12" />
      <path
         d="m 2410.45,1030.32 c 0,0 3.56,136.19 24.7,122.1 21.14,-14.09 26.91,-112.11 26.91,-112.11 0,0 119.86,-5.29 103.42,-28.78 -16.45,-23.479 -103.35,-35.229 -103.35,-35.229 0,0 7.04,-136.231 -18.79,-133.891 -25.84,2.36 -35.23,119.801 -35.23,119.801 0,0 -122.15,7.051 -105.71,32.879 16.45,25.84 108.05,35.23 108.05,35.23 z"
         style="fill:none;stroke:#000000;stroke-width:20;stroke-linecap:butt;stroke-linejoin:miter;stroke-miterlimit:10;stroke-dasharray:none;stroke-opacity:1"
         id="path14" />
      <path
         d="m 1178.04,3030.37 c 0,0 -3.34,110.35 18.21,96.9 21.56,-13.45 36.44,-87.07 36.44,-87.07 0,0 116.6,0.05 100.87,-23.92 -15.72,-23.98 -102.24,-38.35 -102.24,-38.35 0,0 11.17,-135.95 -14.73,-134.39 -25.9,1.57 -38.84,118.67 -38.84,118.67 0,0 -122.3,3.35 -106.65,29.67 15.66,26.33 106.94,38.49 106.94,38.49 z"
         style="fill:none;stroke:#000000;stroke-width:20;stroke-linecap:butt;stroke-linejoin:miter;stroke-miterlimit:10;stroke-dasharray:none;stroke-opacity:1"
         id="path16" />
      <path
         d="m 4320.68,2837.74 c 0,0 15.57,127.95 30.68,114.06 15.1,-13.89 8.97,-113.88 8.97,-113.88 0,0 98.27,-16.14 82.22,-32.82 -16.06,-16.68 -86.86,-15.18 -86.86,-15.18 0,0 -11.42,-109.56 -31.74,-104.46 -20.33,5.11 -13.12,99.98 -13.12,99.98 0,0 -96.56,20.91 -80.21,39.46 16.34,18.56 90.06,12.84 90.06,12.84 z"
         style="fill:none;stroke:#000000;stroke-width:20;stroke-linecap:butt;stroke-linejoin:miter;stroke-miterlimit:10;stroke-dasharray:none;stroke-opacity:1"
         id="path18" />
      <path
         d="m 2427.84,4472.81 c 0,0 12.37,87.44 27.53,73.9 15.17,-13.53 5.43,-82.35 5.43,-82.35 0,0 103.37,-7.04 87.72,-23.8 -15.66,-16.76 -85.81,-16.32 -85.81,-16.32 0,0 -9.67,-108.69 -29.87,-103.93 -20.2,4.75 -14.49,98.82 -14.49,98.82 0,0 -95.94,19.26 -80.02,37.88 15.91,18.62 89.51,15.8 89.51,15.8 z"
         style="fill:none;stroke:#000000;stroke-width:20;stroke-linecap:butt;stroke-linejoin:miter;stroke-miterlimit:10;stroke-dasharray:none;stroke-opacity:1"
         id="path20" />
      <path
         d="m 1571.4,2343.38 c 0,0 71.57,40.48 48.04,131.79 0,0 51.76,-104.75 108.16,-83.03 0,0 -62.28,-57.38 -35.24,-134.01 0,0 -41.49,86.06 -120.96,85.25 z"
         style="fill:none;stroke:#000000;stroke-width:20;stroke-linecap:round;stroke-linejoin:round;stroke-miterlimit:10;stroke-dasharray:none;stroke-opacity:1"
         id="path22" />
      <path
         d="m 3363.17,2680.9 c 0,0 62.99,-1.93 83.87,67.25 0,0 -7.72,-89.21 37.87,-97.4 0,0 -63.62,-12.84 -76.37,-73.81 0,0 7.03,72.89 -45.37,103.96 z"
         style="fill:none;stroke:#000000;stroke-width:20;stroke-linecap:round;stroke-linejoin:round;stroke-miterlimit:10;stroke-dasharray:none;stroke-opacity:1"
         id="path24" />
      <path
         d="m 3168.77,508.461 c 0,0 62.34,9.25 70.64,81.039 0,0 8.2,-89.168 54.52,-89.16 0,0 -60.36,-23.899 -62.1,-86.16 0,0 -5.99,72.992 -63.06,94.281 z"
         style="fill:none;stroke:#000000;stroke-width:20;stroke-linecap:round;stroke-linejoin:round;stroke-miterlimit:10;stroke-dasharray:none;stroke-opacity:1"
         id="path26" />
      <path
         d="m 1703.1,559.551 c 0,0 60.74,16.789 60.22,89.051 0,0 19.01,-87.5 64.99,-81.832 0,0 -56.98,-31.098 -51.12,-93.098 0,0 -14.85,71.707 -74.09,85.879 z"
         style="fill:none;stroke:#000000;stroke-width:20;stroke-linecap:round;stroke-linejoin:round;stroke-miterlimit:10;stroke-dasharray:none;stroke-opacity:1"
         id="path28" />
      <path
         d="m 312.738,454.719 c 79.352,-14.438 61.317,-97.387 -14.422,-104.598 -75.742,-7.211 -64.921,119.02 14.422,104.598 z"
         style="fill:none;stroke:#000000;stroke-width:20;stroke-linecap:round;stroke-linejoin:round;stroke-miterlimit:10;stroke-dasharray:none;stroke-opacity:1"
         id="path30" />
      <path
         d="m 2871.7,3439.64 c 96.52,-17.55 74.58,-118.45 -17.55,-127.23 -92.14,-8.77 -78.97,144.78 17.55,127.23 z"
         style="fill:none;stroke:#000000;stroke-width:20;stroke-linecap:round;stroke-linejoin:round;stroke-miterlimit:10;stroke-dasharray:none;stroke-opacity:1"
         id="path32" />
      <path
         d="m 481.934,3299.54 c 62.238,-11.31 48.089,-76.38 -11.321,-82.04 -59.406,-5.66 -50.922,93.36 11.321,82.04 z"
         style="fill:none;stroke:#000000;stroke-width:20;stroke-linecap:round;stroke-linejoin:round;stroke-miterlimit:10;stroke-dasharray:none;stroke-opacity:1"
         id="path34" />
      <path
         d="m 4349.56,524.082 c 62.24,-11.32 48.1,-76.383 -11.32,-82.043 -59.4,-5.648 -50.92,93.359 11.32,82.043 z"
         style="fill:none;stroke:#000000;stroke-width:20;stroke-linecap:round;stroke-linejoin:round;stroke-miterlimit:10;stroke-dasharray:none;stroke-opacity:1"
         id="path36" />
      <path
         d="M 298.551,1071.43 C 273.879,965.719 599.098,401.262 630.102,438.602 c 31.011,37.347 199.695,417.8 182.55,447.808 -17.144,30.012 -179.476,448.71 -200.734,461.1 -21.254,12.39 -288.695,-170.39 -313.367,-276.08"
         style="fill:#ffffff;fill-opacity:1;fill-rule:nonzero;stroke:none"
         id="path38" />
      <path
         d="M 298.551,1071.43 C 273.879,965.719 599.098,401.262 630.102,438.602 c 31.011,37.347 199.695,417.8 182.55,447.808 -17.144,30.012 -179.476,448.71 -200.734,461.1 -21.254,12.39 -288.695,-170.39 -313.367,-276.08 z"
         style="fill:none;stroke:#000000;stroke-width:20;stroke-linecap:butt;stroke-linejoin:miter;stroke-miterlimit:10;stroke-dasharray:none;stroke-opacity:1"
         id="path40" />
      <path
         d="m 1768.91,1638.67 c 79.01,-66.02 154.67,-679.35 109.86,-668.748 -44.81,10.609 -389.73,202.658 -393.86,235.178 -4.13,32.52 -120.05,442.45 -111.01,463.96 9.03,21.53 316,35.63 395.01,-30.39"
         style="fill:#ffffff;fill-opacity:1;fill-rule:nonzero;stroke:none"
         id="path42" />
      <path
         d="m 1768.91,1638.67 c 79.01,-66.02 154.67,-679.35 109.86,-668.748 -44.81,10.609 -389.73,202.658 -393.86,235.178 -4.13,32.52 -120.05,442.45 -111.01,463.96 9.03,21.53 316,35.63 395.01,-30.39 z"
         style="fill:none;stroke:#000000;stroke-width:20;stroke-linecap:butt;stroke-linejoin:miter;stroke-miterlimit:10;stroke-dasharray:none;stroke-opacity:1"
         id="path44" />
      <path
         d="m 777.48,825.18 c 0,0 -767.59328,1204.62 -156.089,1961.11 0,0 928.929,-363.76 975.539,-1683.58 0,0 -393.97,-488.171 -819.45,-277.53"
         style="fill:#ffffff;fill-opacity:1;fill-rule:nonzero;stroke:none"
         id="path46" />
      <path
         d="m 846.898,1578.03 c 13.961,-31.52 -7.613,-71.68 -48.191,-89.74 -40.566,-18.04 -84.773,-7.12 -98.727,24.4 -13.957,31.51 7.618,71.68 48.188,89.72 40.566,18.05 84.77,7.13 98.73,-24.38"
         style="fill:#ffffff;fill-opacity:1;fill-rule:nonzero;stroke:none"
         id="path48" />
      <path
         d="m 846.898,1578.03 c 13.961,-31.52 -7.613,-71.68 -48.191,-89.74 -40.566,-18.04 -84.773,-7.12 -98.727,24.4 -13.957,31.51 7.618,71.68 48.188,89.72 40.566,18.05 84.77,7.13 98.73,-24.38 z"
         style="fill:none;stroke:#000000;stroke-width:10;stroke-linecap:butt;stroke-linejoin:miter;stroke-miterlimit:10;stroke-dasharray:none;stroke-opacity:1"
         id="path50" />
      <path
         d="m 1244.48,1706.48 c 13.04,-31.9 -9.69,-71.42 -50.77,-88.29 -41.08,-16.85 -84.95,-4.66 -97.98,27.24 -13.04,31.9 9.69,71.44 50.77,88.3 41.07,16.86 84.95,4.66 97.98,-27.25"
         style="fill:#ffffff;fill-opacity:1;fill-rule:nonzero;stroke:none"
         id="path52" />
      <path
         d="m 1244.48,1706.48 c 13.04,-31.9 -9.69,-71.42 -50.77,-88.29 -41.08,-16.85 -84.95,-4.66 -97.98,27.24 -13.04,31.9 9.69,71.44 50.77,88.3 41.07,16.86 84.95,4.66 97.98,-27.25 z"
         style="fill:none;stroke:#000000;stroke-width:10;stroke-linecap:butt;stroke-linejoin:miter;stroke-miterlimit:10;stroke-dasharray:none;stroke-opacity:1"
         id="path54" />
      <path
         d="M 687.152,1754.85 846.57,1695.82 690.535,1624.11"
         style="fill:none;stroke:#000000;stroke-width:30;stroke-linecap:round;stroke-linejoin:round;stroke-miterlimit:10;stroke-dasharray:none;stroke-opacity:1"
         id="path56" />
      <path
         d="m 1100.03,1897.4 -93.37,-145.13 161.55,33.2"
         style="fill:none;stroke:#000000;stroke-width:30;stroke-linecap:round;stroke-linejoin:round;stroke-miterlimit:10;stroke-dasharray:none;stroke-opacity:1"
         id="path58" />
      <path
         d="m 975.523,1722.08 c 0,0 18.27,-32.29 -2.703,-41.46 -23.175,-10.15 -39.429,24.17 -39.429,24.17 0,0 5.148,-37.25 -17.547,-40.21 -25.098,-3.28 -27.809,31.45 -27.809,31.45"
         style="fill:none;stroke:#000000;stroke-width:15;stroke-linecap:butt;stroke-linejoin:round;stroke-miterlimit:10;stroke-dasharray:none;stroke-opacity:1"
         id="path60" />
      <path
         d="m 701.973,965.582 c 0,0 496.447,-39.594 882.287,352.688"
         style="fill:none;stroke:#000000;stroke-width:17.5;stroke-linecap:butt;stroke-linejoin:miter;stroke-miterlimit:10;stroke-dasharray:none;stroke-opacity:1"
         id="path62" />
      <path
         d="m 777.48,825.18 c 0,0 -767.59328,1204.62 -156.089,1961.11 0,0 928.929,-363.76 975.539,-1683.58 0,0 -393.97,-488.171 -819.45,-277.53 z"
         style="fill:none;stroke:#000000;stroke-width:20;stroke-linecap:butt;stroke-linejoin:miter;stroke-miterlimit:10;stroke-dasharray:none;stroke-opacity:1"
         id="path64" />
      <path
         d="m 1095.79,1241.47 c 95.05,54.57 395.6,-690.169 279.79,-754.021 -115.82,-63.859 -374.84,699.461 -279.79,754.021"
         style="fill:#ffffff;fill-opacity:1;fill-rule:nonzero;stroke:none"
         id="path66" />
      <path
         d="m 1095.79,1241.47 c 95.05,54.57 395.6,-690.169 279.79,-754.021 -115.82,-63.859 -374.84,699.461 -279.79,754.021 z"
         style="fill:none;stroke:#000000;stroke-width:20;stroke-linecap:butt;stroke-linejoin:miter;stroke-miterlimit:10;stroke-dasharray:none;stroke-opacity:1"
         id="path68" />
      <path
         d="m 385.16,2043.2 c 226.906,10.85 592.043,116.79 750.45,347.12 C 883.063,2683.81 621.391,2786.29 621.391,2786.29 441.227,2563.4 380.801,2301.62 385.16,2043.2 Z"
         style="fill:none;stroke:#000000;stroke-width:20;stroke-linecap:butt;stroke-linejoin:miter;stroke-miterlimit:10;stroke-dasharray:none;stroke-opacity:1"
         id="path70" />
      <path
         d="m 825.078,2085.82 c 588.302,141.66 770.532,-708.11 185.372,-807.43 -545.669,-92.6 -652.692,694.9 -185.372,807.43 z"
         style="fill:none;stroke:#000000;stroke-width:17.5;stroke-linecap:butt;stroke-linejoin:miter;stroke-miterlimit:10;stroke-dasharray:none;stroke-opacity:1"
         id="path72" />
      <path
         d="m 846.484,2013.54 c 468.336,112.77 613.406,-563.74 147.575,-642.79 -434.407,-73.73 -519.602,553.2 -147.575,642.79 z"
         style="fill:none;stroke:#000000;stroke-width:17.5;stroke-linecap:butt;stroke-linejoin:miter;stroke-miterlimit:10;stroke-dasharray:none;stroke-opacity:1"
         id="path74" />
      <path
         d="m 1097.17,4505.1 c 509.66,151.42 766.01,-267.03 775.19,-619.61 10.71,-411.52 -599.23,-751.91 -994.219,-391 -297.754,272.06 -290.625,859.19 219.029,1010.61"
         style="fill:#ffffff;fill-opacity:1;fill-rule:nonzero;stroke:none"
         id="path76" />
      <path
         d="m 679.309,3937.09 c 1.296,-37.54 5.929,-75.01 13.734,-111.83 99.441,39.81 194.559,91.2 193.008,109.84 -3.707,44.43 -114.551,25.56 -206.742,1.99 z"
         style="fill:none;stroke:#000000;stroke-width:17.5;stroke-linecap:butt;stroke-linejoin:miter;stroke-miterlimit:10;stroke-dasharray:none;stroke-opacity:1"
         id="path78" />
      <path
         d="m 1692.75,4356.62 c 0,0 -187.6,-79.49 -149.44,-98.57 38.15,-19.08 184.42,57.24 184.42,57.24"
         style="fill:none;stroke:#000000;stroke-width:17.5;stroke-linecap:butt;stroke-linejoin:miter;stroke-miterlimit:10;stroke-dasharray:none;stroke-opacity:1"
         id="path80" />
      <path
         d="m 1863.64,3789.51 c -237.11,-186 -585.4,-184.85 -651.03,-256.44 -69.95,-76.31 464.24,117.65 295.72,-41.34 -76.06,-71.75 -310.7,-87.11 -502.77,-86.71 352.13,-183.07 790.78,60.15 858.08,384.49 z"
         style="fill:none;stroke:#000000;stroke-width:17.5;stroke-linecap:butt;stroke-linejoin:miter;stroke-miterlimit:10;stroke-dasharray:none;stroke-opacity:1"
         id="path82" />
      <path
         d="m 1390.94,4529.98 c -136.59,-97.85 -311.75,-97.49 -389.31,-152.53 -101.349,-71.92 192.88,19.61 39.22,-71.92 -68.205,-40.64 -182.791,-56.78 -289.147,-62.18 -26.422,-46.46 -45.348,-96.18 -57.277,-147.46 393.684,8.87 701.774,243.86 850.434,383.19 -46.36,24.33 -97.66,41.87 -153.92,50.9 z"
         style="fill:none;stroke:#000000;stroke-width:17.5;stroke-linecap:butt;stroke-linejoin:miter;stroke-miterlimit:10;stroke-dasharray:none;stroke-opacity:1"
         id="path84" />
      <path
         d="m 1114.68,3868.54 c 15.29,-33.02 -6.78,-75.81 -49.31,-95.57 -42.52,-19.75 -89.374,-9 -104.655,24.03 -15.289,33.02 6.785,75.82 49.305,95.57 42.51,19.76 89.37,9.01 104.66,-24.03"
         style="fill:#ffffff;fill-opacity:1;fill-rule:nonzero;stroke:none"
         id="path86" />
      <path
         d="m 1114.04,3860.89 c 15.29,-33.02 -6.78,-75.81 -49.31,-95.57 -42.52,-19.75 -89.375,-9 -104.664,24.02 -15.281,33.03 6.789,75.83 49.314,95.58 42.51,19.76 89.37,9.01 104.66,-24.03 z"
         style="fill:none;stroke:#000000;stroke-width:10;stroke-linecap:butt;stroke-linejoin:miter;stroke-miterlimit:10;stroke-dasharray:none;stroke-opacity:1"
         id="path88" />
      <path
         d="m 1609.09,4056.72 c 16.21,-32.59 -4.66,-75.98 -46.62,-96.92 -41.95,-20.94 -89.09,-11.5 -105.29,21.08 -16.2,32.59 4.67,75.98 46.62,96.92 41.94,20.95 89.09,11.5 105.29,-21.08"
         style="fill:#ffffff;fill-opacity:1;fill-rule:nonzero;stroke:none"
         id="path90" />
      <path
         d="m 1609.09,4056.72 c 16.21,-32.59 -4.66,-75.98 -46.62,-96.92 -41.95,-20.94 -89.09,-11.5 -105.29,21.08 -16.2,32.59 4.67,75.98 46.62,96.92 41.94,20.95 89.09,11.5 105.29,-21.08 z"
         style="fill:none;stroke:#000000;stroke-width:10;stroke-linecap:butt;stroke-linejoin:miter;stroke-miterlimit:10;stroke-dasharray:none;stroke-opacity:1"
         id="path92" />
      <path
         d="m 1141.03,3920.01 v 0 c -41.38,-18.82 -90.46,0.16 -109.62,42.38 l -18.38,40.48 c -19.175,42.21 -1.17,91.7 40.2,110.52 v 0 c 41.38,18.82 90.46,-0.15 109.63,-42.37 l 18.37,-40.48 c 19.18,-42.22 1.17,-91.71 -40.2,-110.53"
         style="fill:#ffffff;fill-opacity:1;fill-rule:nonzero;stroke:none"
         id="path94" />
      <path
         d="m 1141.03,3920.01 v 0 c -41.38,-18.82 -90.46,0.16 -109.62,42.38 l -18.38,40.48 c -19.175,42.21 -1.17,91.7 40.2,110.52 v 0 c 41.38,18.82 90.46,-0.15 109.63,-42.37 l 18.37,-40.48 c 19.18,-42.22 1.17,-91.71 -40.2,-110.53"
         style="fill:none;stroke:#000000;stroke-width:15;stroke-linecap:butt;stroke-linejoin:miter;stroke-miterlimit:10;stroke-dasharray:none;stroke-opacity:1"
         id="path96" />
      <path
         d="m 1162.85,4071.02 c -10.36,22.84 -29.52,38.8 -51.45,45.73 -6.91,-0.5 -13.7,-2.12 -20.18,-5.07 -36.5,-16.6 -49.18,-67.32 -28.32,-113.26 20.86,-45.95 67.36,-69.74 103.87,-53.13 3.32,1.51 6.36,3.38 9.27,5.42 14.47,23.01 17.43,52.88 5.19,79.83 l -18.38,40.48"
         style="fill:#000000;fill-opacity:1;fill-rule:nonzero;stroke:none"
         id="path98" />
      <path
         d="m 1413.8,4033.76 v 0 c 42.78,15.38 64.7,63.22 48.98,106.84 l -15.08,41.82 c -15.72,43.62 -63.14,66.52 -105.91,51.13 v 0 c -42.77,-15.37 -64.7,-63.21 -48.98,-106.83 l 15.08,-41.82 c 15.72,-43.63 63.14,-66.52 105.91,-51.14"
         style="fill:#ffffff;fill-opacity:1;fill-rule:nonzero;stroke:none"
         id="path100" />
      <path
         d="m 1413.8,4033.76 v 0 c 42.78,15.38 64.7,63.22 48.98,106.84 l -15.08,41.82 c -15.72,43.62 -63.14,66.52 -105.91,51.13 v 0 c -42.77,-15.37 -64.7,-63.21 -48.98,-106.83 l 15.08,-41.82 c 15.72,-43.63 63.14,-66.52 105.91,-51.14"
         style="fill:none;stroke:#000000;stroke-width:15;stroke-linecap:butt;stroke-linejoin:miter;stroke-miterlimit:10;stroke-dasharray:none;stroke-opacity:1"
         id="path102" />
      <path
         d="m 1292.82,4126.72 c -8.51,23.6 -5.92,48.4 4.96,68.67 5.3,4.45 11.29,8.03 17.99,10.43 37.73,13.57 82.2,-13.91 99.31,-61.38 17.11,-47.47 0.39,-96.96 -37.35,-110.53 -3.43,-1.23 -6.91,-2.01 -10.43,-2.58 -26.41,6.38 -49.38,25.72 -59.41,53.57 l -15.07,41.82"
         style="fill:#000000;fill-opacity:1;fill-rule:nonzero;stroke:none"
         id="path104" />
      <path
         d="m 1304.25,4037.4 c 0,0 12.35,-38.73 -1.16,-48.42 -13.51,-9.69 -37,27.31 -37,27.31 0,0 8.48,-35.45 -6.06,-43.51 -14.54,-8.07 -36.17,30.4 -36.17,30.4"
         style="fill:none;stroke:#000000;stroke-width:15;stroke-linecap:butt;stroke-linejoin:round;stroke-miterlimit:10;stroke-dasharray:none;stroke-opacity:1"
         id="path106" />
      <path
         d="m 1097.17,4505.1 c 509.66,151.42 766.01,-267.03 775.19,-619.61 10.71,-411.52 -599.23,-751.91 -994.219,-391 -297.754,272.06 -290.625,859.19 219.029,1010.61 z"
         style="fill:none;stroke:#000000;stroke-width:20;stroke-linecap:butt;stroke-linejoin:miter;stroke-miterlimit:10;stroke-dasharray:none;stroke-opacity:1"
         id="path108" />
      <path
         d="m 2108.55,4346.32 c -69.09,93.01 -257.43,112.92 -486.1,82.33 29.83,-23.43 57.02,-49.89 81.5,-78.83 210.38,23.89 343.01,-21.86 273.59,-182.26 -92.8,-214.44 -1381.735,-666.28 -1463.423,-519.44 -48.57,87.31 26.684,193.67 165.043,297.13 -1.14,52.21 4.254,104.4 16.453,155.04 -240.879,-149.93 -390.363,-330.63 -309.582,-502.41 85.711,-182.27 729.709,-68.44 1065.759,67.27 393,158.72 793.14,497.56 656.76,681.17"
         style="fill:#ffffff;fill-opacity:1;fill-rule:nonzero;stroke:none"
         id="path110" />
      <path
         d="m 2108.55,4346.32 c -69.09,93.01 -257.43,112.92 -486.1,82.33 29.83,-23.43 57.02,-49.89 81.5,-78.83 210.38,23.89 343.01,-21.86 273.59,-182.26 -92.8,-214.44 -1381.735,-666.28 -1463.423,-519.44 -48.57,87.31 26.684,193.67 165.043,297.13 -1.14,52.21 4.254,104.4 16.453,155.04 -240.879,-149.93 -390.363,-330.63 -309.582,-502.41 85.711,-182.27 729.709,-68.44 1065.759,67.27 393,158.72 793.14,497.56 656.76,681.17 z"
         style="fill:none;stroke:#000000;stroke-width:20;stroke-linecap:butt;stroke-linejoin:miter;stroke-miterlimit:10;stroke-dasharray:none;stroke-opacity:1"
         id="path112" />
      <path
         d="m 3182.09,1520.62 c 0,0 -257.12,133.8 -220.28,169.72 36.84,35.92 248.91,-12.12 222.51,69.76 -26.41,81.87 -174.42,232.84 -124.45,235.11 49.96,2.26 297.32,-85.88 285.27,-43.36 -12.06,42.51 -97.75,124.07 -61.69,121.98 36.06,-2.1 163.62,-85.16 170.06,-31.96 6.43,53.18 -42.82,325.26 12.03,304.68 54.85,-20.56 239.36,-217.34 262.15,-171.22 22.78,46.14 36.88,146.8 68.65,109.24 31.77,-37.55 29.58,-166.16 78.03,-129.03 48.45,37.12 195.07,253.64 215.38,200.31 20.3,-53.33 14.41,-275.69 66.52,-255.69 52.11,19.99 164.14,92.88 166.88,52.31 2.74,-40.57 -58.59,-184.05 -23.76,-180.44 34.85,3.61 346.9,70.99 328.99,2.02 -17.9,-68.96 -240.45,-249.6 -180.87,-278.43 59.59,-28.84 159.67,-38.88 127.41,-68.49 -32.24,-29.6 -165.8,-43.45 -131.75,-77.85 34.07,-34.4 376.88,-249.77 313.15,-270.97 -63.72,-21.2 -381.68,36.28 -375.44,-6.85 6.25,-43.11 44.27,-123.78 14.16,-135.66 -30.11,-11.87 -110.62,17.71 -116.28,2.53 -5.65,-15.18 50.48,-277.779 14.56,-290.26 -35.91,-12.468 -259.11,101.512 -271.8,91.442 -12.69,-10.071 -46.05,-159.41 -46.05,-159.41 l -109.99,70.277 c 0,0 -157.5,-290.59 -181.17,-249.289 -23.68,41.308 -24.17,321.359 -58.87,303.18 -34.69,-18.188 -153.02,-158.84 -169.66,-122.641 -16.64,36.211 -11.23,191.41 -49.44,175.781 -38.21,-15.629 -265.93,-144.289 -261.79,-94.262 4.15,50.032 131.84,299.612 92.11,318.832 -39.72,19.22 -241.45,-36.71 -216.21,-2 25.22,34.72 173.16,120.09 146.28,134.81 -26.89,14.71 -414.68,79.54 -367.3,107.79 47.38,28.25 400.37,70.69 382.66,98.04"
         style="fill:#ffffff;fill-opacity:1;fill-rule:nonzero;stroke:none"
         id="path114" />
      <path
         d="m 3182.09,1520.62 c 0,0 -257.12,133.8 -220.28,169.72 36.84,35.92 248.91,-12.12 222.51,69.76 -26.41,81.87 -174.42,232.84 -124.45,235.11 49.96,2.26 297.32,-85.88 285.27,-43.36 -12.06,42.51 -97.75,124.07 -61.69,121.98 36.06,-2.1 163.62,-85.16 170.06,-31.96 6.43,53.18 -42.82,325.26 12.03,304.68 54.85,-20.56 239.36,-217.34 262.15,-171.22 22.78,46.14 36.88,146.8 68.65,109.24 31.77,-37.55 29.58,-166.16 78.03,-129.03 48.45,37.12 195.07,253.64 215.38,200.31 20.3,-53.33 14.41,-275.69 66.52,-255.69 52.11,19.99 164.14,92.88 166.88,52.31 2.74,-40.57 -58.59,-184.05 -23.76,-180.44 34.85,3.61 346.9,70.99 328.99,2.02 -17.9,-68.96 -240.45,-249.6 -180.87,-278.43 59.59,-28.84 159.67,-38.88 127.41,-68.49 -32.24,-29.6 -165.8,-43.45 -131.75,-77.85 34.07,-34.4 376.88,-249.77 313.15,-270.97 -63.72,-21.2 -381.68,36.28 -375.44,-6.85 6.25,-43.11 44.27,-123.78 14.16,-135.66 -30.11,-11.87 -110.62,17.71 -116.28,2.53 -5.65,-15.18 50.48,-277.779 14.56,-290.26 -35.91,-12.468 -259.11,101.512 -271.8,91.442 -12.69,-10.071 -46.05,-159.41 -46.05,-159.41 l -109.99,70.277 c 0,0 -157.5,-290.59 -181.17,-249.289 -23.68,41.308 -24.17,321.359 -58.87,303.18 -34.69,-18.188 -153.02,-158.84 -169.66,-122.641 -16.64,36.211 -11.23,191.41 -49.44,175.781 -38.21,-15.629 -265.93,-144.289 -261.79,-94.262 4.15,50.032 131.84,299.612 92.11,318.832 -39.72,19.22 -241.45,-36.71 -216.21,-2 25.22,34.72 173.16,120.09 146.28,134.81 -26.89,14.71 -414.68,79.54 -367.3,107.79 47.38,28.25 400.37,70.69 382.66,98.04 z"
         style="fill:none;stroke:#000000;stroke-width:20;stroke-linecap:butt;stroke-linejoin:miter;stroke-miterlimit:10;stroke-dasharray:none;stroke-opacity:1"
         id="path116" />
      <path
         d="m 3335.51,1802.25 c 0,0 202.21,377.17 656.94,252.96 557.33,-152.24 461.38,-1053.96 -103.29,-1064.319 -613.72,-11.262 -748.53,525.279 -553.65,811.359 z"
         style="fill:none;stroke:#000000;stroke-width:20;stroke-linecap:butt;stroke-linejoin:miter;stroke-miterlimit:10;stroke-dasharray:none;stroke-opacity:1"
         id="path118" />
      <path
         d="m 3648.06,1440.69 c -6.64,-39.34 -53.13,-64.35 -103.84,-55.88 -50.7,8.5 -86.42,47.26 -79.78,86.61 6.65,39.34 53.14,64.37 103.85,55.88 50.69,-8.48 86.42,-47.26 79.77,-86.61"
         style="fill:#ffffff;fill-opacity:1;fill-rule:nonzero;stroke:none"
         id="path120" />
      <path
         d="m 3648.06,1440.69 c -6.64,-39.34 -53.13,-64.35 -103.84,-55.88 -50.7,8.5 -86.42,47.26 -79.78,86.61 6.65,39.34 53.14,64.37 103.85,55.88 50.69,-8.48 86.42,-47.26 79.77,-86.61 z"
         style="fill:none;stroke:#000000;stroke-width:10;stroke-linecap:butt;stroke-linejoin:miter;stroke-miterlimit:10;stroke-dasharray:none;stroke-opacity:1"
         id="path122" />
      <path
         d="m 4123.65,1448.21 c 2.65,-39.81 -36.78,-74.91 -88.08,-78.4 -51.29,-3.48 -95.01,25.97 -97.65,65.79 -2.65,39.81 36.79,74.92 88.09,78.39 51.28,3.49 95.01,-25.96 97.64,-65.78"
         style="fill:#ffffff;fill-opacity:1;fill-rule:nonzero;stroke:none"
         id="path124" />
      <path
         d="m 4123.65,1448.21 c 2.65,-39.81 -36.78,-74.91 -88.08,-78.4 -51.29,-3.48 -95.01,25.97 -97.65,65.79 -2.65,39.81 36.79,74.92 88.09,78.39 51.28,3.49 95.01,-25.96 97.64,-65.78 z"
         style="fill:none;stroke:#000000;stroke-width:10;stroke-linecap:butt;stroke-linejoin:miter;stroke-miterlimit:10;stroke-dasharray:none;stroke-opacity:1"
         id="path126" />
      <path
         d="m 3792.51,1556.22 c 0,0 -2.17,-67.13 16.03,-67.96 22.14,-1.01 25.21,65.68 25.21,65.68"
         style="fill:none;stroke:#000000;stroke-width:15;stroke-linecap:butt;stroke-linejoin:miter;stroke-miterlimit:10;stroke-dasharray:none;stroke-opacity:1"
         id="path128" />
      <path
         d="m 3733.63,1526.81 c -8.05,-23.47 -59.46,13.98 -127.96,37.48 -68.48,23.5 -128.12,24.15 -120.06,47.61 8.04,23.47 74.43,42.49 142.92,18.99 68.49,-23.5 113.15,-80.63 105.1,-104.08"
         style="fill:#000000;fill-opacity:1;fill-rule:nonzero;stroke:none"
         id="path130" />
      <path
         d="m 3887.64,1531.35 c 5.1,-24.28 60.73,6.57 131.59,21.47 70.86,14.91 130.12,8.22 125.02,32.5 -5.11,24.28 -68.65,51.31 -139.51,36.41 -70.87,-14.9 -122.21,-66.11 -117.1,-90.38"
         style="fill:#000000;fill-opacity:1;fill-rule:nonzero;stroke:none"
         id="path132" />
      <path
         d="m 2975.6,4002.36 c 0,0 119.81,556.44 764.75,569.36 790.46,15.84 1012.74,-1168.62 275.43,-1394.3 -801.36,-245.3 -1185.55,387.27 -1040.18,824.94"
         style="fill:#ffffff;fill-opacity:1;fill-rule:nonzero;stroke:none"
         id="path134" />
      <path
         d="m 3406.66,3355.23 c 0,0 -9.95,87.34 41.55,110.25 51.52,22.91 50.1,-42.76 93.9,-44.62 43.8,-1.86 96.74,-50.03 67.6,-97.11 -29.15,-47.09 -184.34,-83.02 -203.05,31.48 z"
         style="fill:none;stroke:#000000;stroke-width:17.5;stroke-linecap:butt;stroke-linejoin:miter;stroke-miterlimit:10;stroke-dasharray:none;stroke-opacity:1"
         id="path136" />
      <path
         d="m 4110.78,3456.68 c 76.66,-3.93 84.22,-107.72 -6.12,-104.06 -90.34,3.66 -44.9,106.68 6.12,104.06 z"
         style="fill:none;stroke:#000000;stroke-width:17.5;stroke-linecap:butt;stroke-linejoin:miter;stroke-miterlimit:10;stroke-dasharray:none;stroke-opacity:1"
         id="path138" />
      <path
         d="m 2975.6,4002.36 c 0,0 119.81,556.44 764.75,569.36 790.46,15.84 1012.74,-1168.62 275.43,-1394.3 -801.36,-245.3 -1185.55,387.27 -1040.18,824.94 z"
         style="fill:none;stroke:#000000;stroke-width:20;stroke-linecap:butt;stroke-linejoin:miter;stroke-miterlimit:10;stroke-dasharray:none;stroke-opacity:1"
         id="path140" />
      <path
         d="m 3622.32,4240.35 c -52.5,28.61 35.3,89.72 48.79,156.75 7.46,37.06 -28.91,102.88 -75.59,161.62 -275.73,-45.42 -433.49,-199.84 -520.78,-334.52 2.05,-36.91 7.97,-72.68 26.86,-102.77 68.97,-109.89 111.82,-27.43 180.04,-100.24 68.22,-72.82 -32.02,-252.86 21.51,-333.38 53.55,-80.52 233.43,-53.76 305.36,58.95 71.92,112.71 198.41,360.23 197.08,426.97 -1.34,66.73 -130.77,37.99 -183.27,66.62 z"
         style="fill:none;stroke:#000000;stroke-width:17.5;stroke-linecap:butt;stroke-linejoin:miter;stroke-miterlimit:10;stroke-dasharray:none;stroke-opacity:1"
         id="path142" />
      <path
         d="m 3904.04,4556.7 c -10.18,-68.7 -22.14,-90.12 -38.42,-130.34 -19.69,-48.61 -66.65,-111.55 -3.99,-144.73 62.66,-33.18 109.05,57.29 198.7,52.2 74.3,-4.22 168.42,-55.25 220.67,-5.53 -93.47,111.74 -220.57,195.63 -376.96,228.4 z"
         style="fill:none;stroke:#000000;stroke-width:17.5;stroke-linecap:butt;stroke-linejoin:miter;stroke-miterlimit:10;stroke-dasharray:none;stroke-opacity:1"
         id="path144" />
      <path
         d="m 4459.78,3908.93 c -9.94,80.81 -31.84,160.71 -64.99,235.57 -42.93,10.63 -93.05,17.75 -131.06,7.43 -82.21,-22.31 -158.77,17.48 -143.35,-64.86 15.43,-82.35 106.04,-135.64 51.79,-178.06 -54.26,-42.41 -88.55,-49.99 -66.37,-125.31 22.17,-75.32 -24.37,-158.91 71.89,-150.1 66.3,6.08 215.27,128.24 282.09,275.33 z"
         style="fill:none;stroke:#000000;stroke-width:17.5;stroke-linecap:butt;stroke-linejoin:miter;stroke-miterlimit:10;stroke-dasharray:none;stroke-opacity:1"
         id="path146" />
      <path
         d="m 3638.56,3845.43 c 83.21,2.87 82.93,-59.82 116.71,-55.64 33.79,4.18 75.12,53.92 119.25,15.46 44.13,-38.46 15.94,-219.02 -197.8,-165.88 -149.55,37.2 -121.34,203.2 -38.16,206.06"
         style="fill:#000000;fill-opacity:1;fill-rule:nonzero;stroke:none"
         id="path148" />
      <path
         d="m 3681.67,3638.28 c 24.34,43.63 77.94,73.25 139.15,71.61 18.98,-0.51 36.96,-4.08 53.46,-9.96 -0.47,-4.11 -1.26,-8.3 -2.35,-12.51 -27.95,-42.34 -86.98,-73.38 -190.26,-49.14"
         style="fill:#ffffff;fill-opacity:1;fill-rule:nonzero;stroke:none"
         id="path150" />
      <path
         d="m 3681.67,3638.28 c 24.34,43.63 77.94,73.25 139.15,71.61 18.98,-0.51 36.96,-4.08 53.46,-9.96 -0.47,-4.11 -1.26,-8.3 -2.35,-12.51 -27.95,-42.34 -86.98,-73.38 -190.26,-49.14 z"
         style="fill:none;stroke:#000000;stroke-width:15;stroke-linecap:butt;stroke-linejoin:miter;stroke-miterlimit:10;stroke-dasharray:none;stroke-opacity:1"
         id="path152" />
      <path
         d="m 3887.28,3785.34 c -3.03,8.31 -7.34,15.19 -12.76,19.91 -44.13,38.46 -85.46,-11.28 -119.25,-15.46 -33.78,-4.18 -33.5,58.51 -116.71,55.64 -4.85,-0.16 -9.51,-0.93 -13.96,-2.15 3.54,-146.12 252.77,-94.33 262.68,-57.94"
         style="fill:#ffffff;fill-opacity:1;fill-rule:nonzero;stroke:none"
         id="path154" />
      <path
         d="m 3638.56,3845.43 c 83.21,2.87 82.93,-59.82 116.71,-55.64 33.79,4.18 75.12,53.92 119.25,15.46 44.13,-38.46 15.94,-219.02 -197.8,-165.88 -149.55,37.2 -121.34,203.2 -38.16,206.06 z"
         style="fill:none;stroke:#000000;stroke-width:15;stroke-linecap:butt;stroke-linejoin:miter;stroke-miterlimit:10;stroke-dasharray:none;stroke-opacity:1"
         id="path156" />
      <path
         d="m 3994.75,3760.15 c -3.88,-44.04 38.96,-83.85 95.7,-88.93 56.73,-5.08 105.86,26.5 109.74,70.53 3.86,44.05 -38.98,83.87 -95.71,88.95 -56.72,5.08 -105.86,-26.51 -109.73,-70.55"
         style="fill:#ffffff;fill-opacity:1;fill-rule:nonzero;stroke:none"
         id="path158" />
      <path
         d="m 3994.75,3760.15 c -3.88,-44.04 38.96,-83.85 95.7,-88.93 56.73,-5.08 105.86,26.5 109.74,70.53 3.86,44.05 -38.98,83.87 -95.71,88.95 -56.72,5.08 -105.86,-26.51 -109.73,-70.55 z"
         style="fill:none;stroke:#000000;stroke-width:10;stroke-linecap:butt;stroke-linejoin:miter;stroke-miterlimit:10;stroke-dasharray:none;stroke-opacity:1"
         id="path160" />
      <path
         d="m 3323.9,3835.68 c -5.11,-43.92 36.6,-84.91 93.18,-91.58 56.56,-6.66 106.55,23.53 111.66,67.44 5.1,43.92 -36.61,84.92 -93.18,91.58 -56.56,6.67 -106.56,-23.53 -111.66,-67.44"
         style="fill:#ffffff;fill-opacity:1;fill-rule:nonzero;stroke:none"
         id="path162" />
      <path
         d="m 3323.9,3835.68 c -5.11,-43.92 36.6,-84.91 93.18,-91.58 56.56,-6.66 106.55,23.53 111.66,67.44 5.1,43.92 -36.61,84.92 -93.18,91.58 -56.56,6.67 -106.56,-23.53 -111.66,-67.44 z"
         style="fill:none;stroke:#000000;stroke-width:10;stroke-linecap:butt;stroke-linejoin:miter;stroke-miterlimit:10;stroke-dasharray:none;stroke-opacity:1"
         id="path164" />
      <path
         d="m 3949.9,3836.21 v 0 c 55.04,-4.48 103.33,37.41 107.85,93.56 l 4.35,53.82 c 4.53,56.15 -36.42,105.3 -91.46,109.78 v 0 c -55.02,4.48 -103.31,-37.41 -107.85,-93.56 l -4.32,-53.82 c -4.54,-56.16 36.4,-105.3 91.43,-109.78"
         style="fill:#ffffff;fill-opacity:1;fill-rule:nonzero;stroke:none"
         id="path166" />
      <path
         d="m 3949.9,3836.21 v 0 c 55.04,-4.48 103.33,37.41 107.85,93.56 l 4.35,53.82 c 4.53,56.15 -36.42,105.3 -91.46,109.78 v 0 c -55.02,4.48 -103.31,-37.41 -107.85,-93.56 l -4.32,-53.82 c -4.54,-56.16 36.4,-105.3 91.43,-109.78"
         style="fill:none;stroke:#000000;stroke-width:15;stroke-linecap:butt;stroke-linejoin:miter;stroke-miterlimit:10;stroke-dasharray:none;stroke-opacity:1"
         id="path168" />
      <path
         d="m 3862.8,3999.81 c 2.45,30.38 17.78,56.51 39.99,73.46 8.1,2.26 16.53,3.21 25.14,2.51 48.55,-3.95 83.93,-56.69 79,-117.8 -4.93,-61.1 -48.29,-107.43 -96.85,-103.48 -4.41,0.36 -8.65,1.25 -12.82,2.38 -26.01,20.34 -41.69,53.27 -38.79,89.11 l 4.33,53.82"
         style="fill:#000000;fill-opacity:1;fill-rule:nonzero;stroke:none"
         id="path170" />
      <path
         d="m 3579.17,3869.07 v 0 c 55.06,-4.23 103.15,37.88 107.42,94.05 l 4.09,53.84 c 4.28,56.17 -36.89,105.13 -91.95,109.36 v 0 c -55.06,4.22 -103.14,-37.89 -107.42,-94.05 l -4.08,-53.85 c -4.28,-56.17 36.89,-105.13 91.94,-109.35"
         style="fill:#ffffff;fill-opacity:1;fill-rule:nonzero;stroke:none"
         id="path172" />
      <path
         d="m 3579.17,3869.07 v 0 c 55.06,-4.23 103.15,37.88 107.42,94.05 l 4.09,53.84 c 4.28,56.17 -36.89,105.13 -91.95,109.36 v 0 c -55.06,4.22 -103.14,-37.89 -107.42,-94.05 l -4.08,-53.85 c -4.28,-56.17 36.89,-105.13 91.94,-109.35"
         style="fill:none;stroke:#000000;stroke-width:15;stroke-linecap:butt;stroke-linejoin:miter;stroke-miterlimit:10;stroke-dasharray:none;stroke-opacity:1"
         id="path174" />
      <path
         d="m 3491.32,4032.27 c 2.3,30.39 17.52,56.58 39.65,73.63 8.08,2.3 16.51,3.3 25.13,2.63 48.57,-3.73 84.18,-56.3 79.54,-117.43 -4.65,-61.12 -47.8,-107.65 -96.37,-103.93 -4.42,0.34 -8.66,1.21 -12.84,2.33 -26.1,20.21 -41.94,53.07 -39.2,88.92 l 4.09,53.85"
         style="fill:#000000;fill-opacity:1;fill-rule:nonzero;stroke:none"
         id="path176" />
      <path
         d="m 2085.74,1727.46 c 0,0 -244.07,118.66 -206.01,181.08 55.26,90.65 301.25,92.06 301.25,92.06 0,0 112.38,326.17 172.88,298.67 60.5,-27.49 150.09,-248.71 150.09,-248.71 0,0 304.72,14.17 298.45,-57.44 -6.27,-71.61 -167.53,-213.29 -167.53,-213.29 0,0 95.51,-319.76 21.26,-322.52 -74.25,-2.75 -262.64,124.91 -262.64,124.91 0,0 -230.22,-188.01 -297.65,-134.01 -67.43,54.01 -10.1,279.25 -10.1,279.25"
         style="fill:#ffffff;fill-opacity:1;fill-rule:nonzero;stroke:none"
         id="path178" />
      <path
         d="m 2085.74,1727.46 c 0,0 -244.07,118.66 -206.01,181.08 55.26,90.65 301.25,92.06 301.25,92.06 0,0 112.38,326.17 172.88,298.67 60.5,-27.49 150.09,-248.71 150.09,-248.71 0,0 304.72,14.17 298.45,-57.44 -6.27,-71.61 -167.53,-213.29 -167.53,-213.29 0,0 95.51,-319.76 21.26,-322.52 -74.25,-2.75 -262.64,124.91 -262.64,124.91 0,0 -230.22,-188.01 -297.65,-134.01 -67.43,54.01 -10.1,279.25 -10.1,279.25 z"
         style="fill:none;stroke:#000000;stroke-width:20;stroke-linecap:butt;stroke-linejoin:miter;stroke-miterlimit:10;stroke-dasharray:none;stroke-opacity:1"
         id="path180" />
      <path
         d="m 2320.38,1810.51 c 35.13,8.54 39.79,-18.49 54.57,-19.1 19.89,-0.84 29.55,42.94 64.3,20.95 21.49,-13.59 19.01,-59.13 -78.3,-64.81 -67.52,-3.95 -75.7,54.42 -40.57,62.96 z"
         style="fill:none;stroke:#000000;stroke-width:10;stroke-linecap:butt;stroke-linejoin:miter;stroke-miterlimit:10;stroke-dasharray:none;stroke-opacity:1"
         id="path182" />
      <path
         d="m 2236.66,1772.61 c 1.15,-23.06 -22,-42.98 -51.71,-44.5 -29.72,-1.53 -54.73,15.93 -55.87,38.99 -1.15,23.07 22.01,43 51.72,44.51 29.7,1.52 54.72,-15.94 55.86,-39"
         style="fill:#ffffff;fill-opacity:1;fill-rule:nonzero;stroke:none"
         id="path184" />
      <path
         d="m 2236.66,1772.61 c 1.15,-23.06 -22,-42.98 -51.71,-44.5 -29.72,-1.53 -54.73,15.93 -55.87,38.99 -1.15,23.07 22.01,43 51.72,44.51 29.7,1.52 54.72,-15.94 55.86,-39 z"
         style="fill:none;stroke:#000000;stroke-width:7.5;stroke-linecap:butt;stroke-linejoin:miter;stroke-miterlimit:10;stroke-dasharray:none;stroke-opacity:1"
         id="path186" />
      <path
         d="m 2584.09,1781.26 c 1.15,-23.06 -22,-42.99 -51.72,-44.51 -29.7,-1.52 -54.71,15.95 -55.86,39 -1.14,23.07 22.01,42.99 51.72,44.51 29.71,1.53 54.72,-15.93 55.86,-39"
         style="fill:#ffffff;fill-opacity:1;fill-rule:nonzero;stroke:none"
         id="path188" />
      <path
         d="m 2584.09,1781.26 c 1.15,-23.06 -22,-42.99 -51.72,-44.51 -29.7,-1.52 -54.71,15.95 -55.86,39 -1.14,23.07 22.01,42.99 51.72,44.51 29.71,1.53 54.72,-15.93 55.86,-39 z"
         style="fill:none;stroke:#000000;stroke-width:7.5;stroke-linecap:butt;stroke-linejoin:miter;stroke-miterlimit:10;stroke-dasharray:none;stroke-opacity:1"
         id="path190" />
      <path
         d="m 2272.39,1812.48 v 0 c -30.38,-1.31 -56.08,22.75 -57.39,53.75 l -1.26,29.72 c -1.31,30.98 22.26,57.17 52.63,58.48 v 0 c 30.38,1.31 56.08,-22.76 57.39,-53.75 l 1.25,-29.71 c 1.32,-31 -22.24,-57.18 -52.62,-58.49"
         style="fill:#ffffff;fill-opacity:1;fill-rule:nonzero;stroke:none"
         id="path192" />
      <path
         d="m 2272.39,1812.48 v 0 c -30.38,-1.31 -56.08,22.75 -57.39,53.75 l -1.26,29.72 c -1.31,30.98 22.26,57.17 52.63,58.48 v 0 c 30.38,1.31 56.08,-22.76 57.39,-53.75 l 1.25,-29.71 c 1.32,-31 -22.24,-57.18 -52.62,-58.49"
         style="fill:none;stroke:#000000;stroke-width:10;stroke-linecap:butt;stroke-linejoin:miter;stroke-miterlimit:10;stroke-dasharray:none;stroke-opacity:1"
         id="path194" />
      <path
         d="m 2323.75,1900.68 c -0.7,16.77 -8.59,31.47 -20.45,41.26 -4.41,1.42 -9.03,2.12 -13.79,1.92 -26.8,-1.16 -47.38,-29.44 -45.95,-63.17 1.43,-33.73 24.32,-60.13 51.13,-58.98 2.43,0.11 4.79,0.51 7.11,1.04 14.73,10.65 24.05,28.44 23.21,48.22 l -1.26,29.71"
         style="fill:#000000;fill-opacity:1;fill-rule:nonzero;stroke:none"
         id="path196" />
      <path
         d="m 2472.13,1827.16 v 0 c 30.4,-0.92 55.78,23.48 56.69,54.49 l 0.88,29.73 c 0.91,31 -23,56.88 -53.39,57.8 v 0 c -30.39,0.91 -55.77,-23.49 -56.68,-54.49 l -0.88,-29.73 c -0.91,-31 22.99,-56.88 53.38,-57.8"
         style="fill:#ffffff;fill-opacity:1;fill-rule:nonzero;stroke:none"
         id="path198" />
      <path
         d="m 2472.13,1827.16 v 0 c 30.4,-0.92 55.78,23.48 56.69,54.49 l 0.88,29.73 c 0.91,31 -23,56.88 -53.39,57.8 v 0 c -30.39,0.91 -55.77,-23.49 -56.68,-54.49 l -0.88,-29.73 c -0.91,-31 22.99,-56.88 53.38,-57.8"
         style="fill:none;stroke:#000000;stroke-width:10;stroke-linecap:butt;stroke-linejoin:miter;stroke-miterlimit:10;stroke-dasharray:none;stroke-opacity:1"
         id="path200" />
      <path
         d="m 2419.63,1914.69 c 0.49,16.77 8.19,31.58 19.93,41.52 4.39,1.48 8.99,2.24 13.76,2.09 26.81,-0.81 47.74,-28.82 46.75,-62.56 -0.99,-33.75 -23.53,-60.45 -50.35,-59.64 -2.43,0.07 -4.8,0.44 -7.13,0.95 -14.87,10.45 -24.42,28.13 -23.84,47.91 l 0.88,29.73"
         style="fill:#000000;fill-opacity:1;fill-rule:nonzero;stroke:none"
         id="path202" />
      <path
         d="m 2649.98,3745.05 c 50.69,-18.72 65.38,-83.02 27.4,-121.48 -110.67,-112.04 -285.81,-344.13 -141.4,-585.23 194.37,-324.54 565.41,-170.44 561,-259.97 -9.98,-202.77 -728.09,-722.05 -1207.52,-58.05 -384.59,532.65 247.67,1214.19 760.52,1024.73"
         style="fill:#ffffff;fill-opacity:1;fill-rule:nonzero;stroke:none"
         id="path204" />
      <path
         d="m 2649.98,3745.05 c 50.69,-18.72 65.38,-83.02 27.4,-121.48 -110.67,-112.04 -285.81,-344.13 -141.4,-585.23 194.37,-324.54 565.41,-170.44 561,-259.97 -9.98,-202.77 -728.09,-722.05 -1207.52,-58.05 -384.59,532.65 247.67,1214.19 760.52,1024.73 z"
         style="fill:none;stroke:#000000;stroke-width:20;stroke-linecap:butt;stroke-linejoin:miter;stroke-miterlimit:10;stroke-dasharray:none;stroke-opacity:1"
         id="path206" />
      <path
         d="m 2105.96,2831.74 c 6.01,-29.64 -20.07,-59.99 -58.25,-67.79 -38.17,-7.79 -73.99,9.91 -80,39.56 -6,29.64 20.07,59.99 58.26,67.79 38.17,7.79 73.99,-9.92 79.99,-39.56"
         style="fill:#ffffff;fill-opacity:1;fill-rule:nonzero;stroke:none"
         id="path208" />
      <path
         d="m 2105.96,2831.74 c 6.01,-29.64 -20.07,-59.99 -58.25,-67.79 -38.17,-7.79 -73.99,9.91 -80,39.56 -6,29.64 20.07,59.99 58.26,67.79 38.17,7.79 73.99,-9.92 79.99,-39.56 z"
         style="fill:none;stroke:#000000;stroke-width:10;stroke-linecap:butt;stroke-linejoin:miter;stroke-miterlimit:10;stroke-dasharray:none;stroke-opacity:1"
         id="path210" />
      <path
         d="m 2494.4,2996.09 c 14.65,-26.46 -1.09,-63.25 -35.16,-82.17 -34.07,-18.91 -73.55,-12.8 -88.2,13.66 -14.63,26.47 1.11,63.26 35.18,82.18 34.05,18.91 73.55,12.79 88.18,-13.67"
         style="fill:#ffffff;fill-opacity:1;fill-rule:nonzero;stroke:none"
         id="path212" />
      <path
         d="m 2494.4,2996.09 c 14.65,-26.46 -1.09,-63.25 -35.16,-82.17 -34.07,-18.91 -73.55,-12.8 -88.2,13.66 -14.63,26.47 1.11,63.26 35.18,82.18 34.05,18.91 73.55,12.79 88.18,-13.67 z"
         style="fill:none;stroke:#000000;stroke-width:10;stroke-linecap:butt;stroke-linejoin:miter;stroke-miterlimit:10;stroke-dasharray:none;stroke-opacity:1"
         id="path214" />
      <path
         d="m 2094.84,2907.75 v 0 c -37.11,-7.1 -73.03,17.84 -80.25,55.7 l -6.91,36.28 c -7.22,37.86 17.02,74.3 54.12,81.4 v 0 c 37.1,7.1 73.02,-17.84 80.24,-55.7 l 6.91,-36.28 c 7.22,-37.86 -17.01,-74.3 -54.11,-81.4"
         style="fill:#ffffff;fill-opacity:1;fill-rule:nonzero;stroke:none"
         id="path216" />
      <path
         d="m 2094.84,2907.75 v 0 c -37.11,-7.1 -73.03,17.84 -80.25,55.7 l -6.91,36.28 c -7.22,37.86 17.02,74.3 54.12,81.4 v 0 c 37.1,7.1 73.02,-17.84 80.24,-55.7 l 6.91,-36.28 c 7.22,-37.86 -17.01,-74.3 -54.11,-81.4"
         style="fill:none;stroke:#000000;stroke-width:15;stroke-linecap:butt;stroke-linejoin:miter;stroke-miterlimit:10;stroke-dasharray:none;stroke-opacity:1"
         id="path218" />
      <path
         d="m 2142.03,3025.43 c -3.9,20.49 -16.24,37.13 -32.6,47.02 -5.68,0.94 -11.48,0.97 -17.29,-0.14 -32.73,-6.26 -52.9,-44.74 -45.06,-85.93 7.86,-41.2 40.76,-69.52 73.5,-63.25 2.97,0.56 5.79,1.48 8.55,2.56 16.19,15.74 24.43,39.3 19.82,63.46 l -6.92,36.28"
         style="fill:#000000;fill-opacity:1;fill-rule:nonzero;stroke:none"
         id="path220" />
      <path
         d="m 2209.03,2972.74 c 0,0 11.08,-34.95 24.28,-30.85 13.19,4.1 11.48,39.88 11.48,39.88"
         style="fill:none;stroke:#000000;stroke-width:15;stroke-linecap:butt;stroke-linejoin:miter;stroke-miterlimit:10;stroke-dasharray:none;stroke-opacity:1"
         id="path222" />
      <path
         d="m 2470.97,3099.92 c 9.6,-16.17 -37.26,-27.48 -84.45,-55.51 -47.19,-28.03 -76.83,-62.15 -86.43,-45.99 -9.61,16.17 11.99,63.85 59.18,91.87 47.18,28.04 102.1,25.79 111.7,9.63"
         style="fill:#000000;fill-opacity:1;fill-rule:nonzero;stroke:none"
         id="path224" />
    </g>
  </g>
</svg>
