<?xml version="1.0" encoding="UTF-8" standalone="no"?>
<!-- Created with Inkscape (http://www.inkscape.org/) -->

<svg
   version="1.1"
   id="svg2"
   width="666.66669"
   height="666.66669"
   viewBox="0 0 666.66669 666.66669"
   sodipodi:docname="7905145.eps"
   xmlns:inkscape="http://www.inkscape.org/namespaces/inkscape"
   xmlns:sodipodi="http://sodipodi.sourceforge.net/DTD/sodipodi-0.dtd"
   xmlns="http://www.w3.org/2000/svg"
   xmlns:svg="http://www.w3.org/2000/svg">
  <defs
     id="defs6" />
  <sodipodi:namedview
     id="namedview4"
     pagecolor="#ffffff"
     bordercolor="#000000"
     borderopacity="0.25"
     inkscape:showpageshadow="2"
     inkscape:pageopacity="0.0"
     inkscape:pagecheckerboard="0"
     inkscape:deskcolor="#d1d1d1" />
  <g
     id="g8"
     inkscape:groupmode="layer"
     inkscape:label="ink_ext_XXXXXX"
     transform="matrix(1.3333333,0,0,-1.3333333,0,666.66667)">
    <g
       id="g10"
       transform="scale(0.1)">
      <path
         d="M 5000,0 H 0 V 5000 H 5000 V 0"
         style="fill:#ffffff;fill-opacity:1;fill-rule:nonzero;stroke:none"
         id="path12" />
      <path
         d="M 5072.19,-128.188 H -74.8398 V 373.449 H 5072.19 v -501.637"
         style="fill:#ffffff;fill-opacity:1;fill-rule:nonzero;stroke:none"
         id="path14" />
      <path
         d="M 5072.19,-128.188 H -74.8398 V 373.449 H 5072.19 Z"
         style="fill:none;stroke:#2f2e2f;stroke-width:20;stroke-linecap:round;stroke-linejoin:round;stroke-miterlimit:10;stroke-dasharray:none;stroke-opacity:1"
         id="path16" />
      <path
         d="m 2359.86,4553.34 c 4.43,-1.61 8.86,-3.21 13.29,-4.82 -58.67,40.54 -131.81,59.65 -202.81,53 -71,-6.66 -135.71,-31.7 -185.83,-82.42 -46.94,137.35 -178.21,241.84 -322.58,256.78 145.08,38.17 295.17,-13.48 390.69,-129.15 55.79,23.66 126.45,31.75 184.69,15.03 58.24,-16.72 87.82,-58.77 122.55,-108.42"
         style="fill:#ffffff;fill-opacity:1;fill-rule:nonzero;stroke:none"
         id="path18" />
      <path
         d="m 2359.86,4553.34 c 4.43,-1.61 8.86,-3.21 13.29,-4.82 -58.67,40.54 -131.81,59.65 -202.81,53 -71,-6.66 -135.71,-31.7 -185.83,-82.42 -46.94,137.35 -178.21,241.84 -322.58,256.78 145.08,38.17 295.17,-13.48 390.69,-129.15 55.79,23.66 126.45,31.75 184.69,15.03 58.24,-16.72 87.82,-58.77 122.55,-108.42 z"
         style="fill:none;stroke:#2f2e2f;stroke-width:10;stroke-linecap:round;stroke-linejoin:round;stroke-miterlimit:10;stroke-dasharray:none;stroke-opacity:1"
         id="path20" />
      <path
         d="m 4777.69,3212.68 c 32.17,110.99 112.57,216.06 206.31,283.64 -111.01,11.38 -230.74,-53.29 -281.14,-152.86 -41.13,65.44 -110.12,112.72 -185.98,127.5 -75.87,14.77 -157.55,-3.19 -220.24,-48.42 176.12,5.22 361.77,-80.17 481.05,-209.86"
         style="fill:#ffffff;fill-opacity:1;fill-rule:nonzero;stroke:none"
         id="path22" />
      <path
         d="m 4777.69,3212.68 c 32.17,110.99 112.57,216.06 206.31,283.64 -111.01,11.38 -230.74,-53.29 -281.14,-152.86 -41.13,65.44 -110.12,112.72 -185.98,127.5 -75.87,14.77 -157.55,-3.19 -220.24,-48.42 176.12,5.22 361.77,-80.17 481.05,-209.86 z"
         style="fill:none;stroke:#2f2e2f;stroke-width:10;stroke-linecap:round;stroke-linejoin:round;stroke-miterlimit:10;stroke-dasharray:none;stroke-opacity:1"
         id="path24" />
      <path
         d="m 811.711,4893.41 c 0,-217.41 -255.449,-310.39 -399.547,-145.42 144.098,-164.97 8.18,-400.39 -212.594,-368.22 220.774,-32.17 267.973,-299.88 73.832,-418.73 194.141,118.85 402.383,-55.88 325.715,-273.3 76.668,217.42 348.512,217.42 425.183,0 -76.671,217.42 131.57,392.15 325.71,273.3 -194.14,118.85 -146.94,386.56 73.83,418.73 -220.77,-32.17 -356.69,203.25 -212.59,368.22 -144.1,-164.97 -399.539,-71.99 -399.539,145.42"
         style="fill:#ffffff;fill-opacity:1;fill-rule:nonzero;stroke:none"
         id="path26" />
      <path
         d="m 811.711,4893.41 c 0,-217.41 -255.449,-310.39 -399.547,-145.42 144.098,-164.97 8.18,-400.39 -212.594,-368.22 220.774,-32.17 267.973,-299.88 73.832,-418.73 194.141,118.85 402.383,-55.88 325.715,-273.3 76.668,217.42 348.512,217.42 425.183,0 -76.671,217.42 131.57,392.15 325.71,273.3 -194.14,118.85 -146.94,386.56 73.83,418.73 -220.77,-32.17 -356.69,203.25 -212.59,368.22 -144.1,-164.97 -399.539,-71.99 -399.539,145.42 z"
         style="fill:none;stroke:#2f2e2f;stroke-width:20;stroke-linecap:round;stroke-linejoin:round;stroke-miterlimit:10;stroke-dasharray:none;stroke-opacity:1"
         id="path28" />
      <path
         d="m 1110.29,4286.79 c 0,-164.9 -133.685,-298.58 -298.579,-298.58 -164.902,0 -298.586,133.68 -298.586,298.58 0,164.91 133.684,298.59 298.586,298.59 164.894,0 298.579,-133.68 298.579,-298.59"
         style="fill:#ffffff;fill-opacity:1;fill-rule:nonzero;stroke:none"
         id="path30" />
      <path
         d="m 1110.29,4286.79 c 0,-164.9 -133.685,-298.58 -298.579,-298.58 -164.902,0 -298.586,133.68 -298.586,298.58 0,164.91 133.684,298.59 298.586,298.59 164.894,0 298.579,-133.68 298.579,-298.59 z"
         style="fill:none;stroke:#2f2e2f;stroke-width:20;stroke-linecap:round;stroke-linejoin:round;stroke-miterlimit:10;stroke-dasharray:none;stroke-opacity:1"
         id="path32" />
      <path
         d="m 741.34,4143.75 c 29.582,-22.57 67.719,-31.64 103.355,-24.59 35.637,7.05 68.301,30.15 88.532,62.58"
         style="fill:none;stroke:#2f2e2f;stroke-width:20;stroke-linecap:round;stroke-linejoin:round;stroke-miterlimit:10;stroke-dasharray:none;stroke-opacity:1"
         id="path34" />
      <path
         d="m 663.754,4167.74 c 7.07,21.5 23.172,39.32 42.906,47.51 19.735,8.18 42.754,6.58 61.348,-4.28"
         style="fill:none;stroke:#2f2e2f;stroke-width:20;stroke-linecap:round;stroke-linejoin:round;stroke-miterlimit:10;stroke-dasharray:none;stroke-opacity:1"
         id="path36" />
      <path
         d="m 872.633,4239.84 c 14.441,15.59 33.719,25.87 53.965,28.78 20.25,2.92 41.34,-1.55 59.066,-12.51"
         style="fill:none;stroke:#2f2e2f;stroke-width:20;stroke-linecap:round;stroke-linejoin:round;stroke-miterlimit:10;stroke-dasharray:none;stroke-opacity:1"
         id="path38" />
      <path
         d="m -337.523,1418.83 h 312.9058 c 0,907.18 735.3082,1642.49 1642.4872,1642.49 v 312.9 c -1079.89,0 -1955.393,-875.5 -1955.393,-1955.39"
         style="fill:#ffffff;fill-opacity:1;fill-rule:nonzero;stroke:none"
         id="path40" />
      <path
         d="m -337.523,1418.83 h 312.9058 c 0,907.18 735.3082,1642.49 1642.4872,1642.49 v 312.9 c -1079.89,0 -1955.393,-875.5 -1955.393,-1955.39 z"
         style="fill:none;stroke:#2f2e2f;stroke-width:20;stroke-linecap:round;stroke-linejoin:round;stroke-miterlimit:10;stroke-dasharray:none;stroke-opacity:1"
         id="path42" />
      <path
         d="M -24.6172,1418.83 H 287.145 c 0,735.03 595.691,1330.72 1330.725,1330.72 v 311.77 c -907.179,0 -1642.4872,-735.31 -1642.4872,-1642.49"
         style="fill:#ffffff;fill-opacity:1;fill-rule:nonzero;stroke:none"
         id="path44" />
      <path
         d="M -24.6172,1418.83 H 287.145 c 0,735.03 595.691,1330.72 1330.725,1330.72 v 311.77 c -907.179,0 -1642.4872,-735.31 -1642.4872,-1642.49 z"
         style="fill:none;stroke:#2f2e2f;stroke-width:20;stroke-linecap:round;stroke-linejoin:round;stroke-miterlimit:10;stroke-dasharray:none;stroke-opacity:1"
         id="path46" />
      <path
         d="m 287.145,1418.83 h 303.386 c 0,567.43 459.909,1027.33 1027.339,1027.33 v 303.39 c -735.034,0 -1330.725,-595.69 -1330.725,-1330.72"
         style="fill:#ffffff;fill-opacity:1;fill-rule:nonzero;stroke:none"
         id="path48" />
      <path
         d="m 287.145,1418.83 h 303.386 c 0,567.43 459.909,1027.33 1027.339,1027.33 v 303.39 c -735.034,0 -1330.725,-595.69 -1330.725,-1330.72 z"
         style="fill:none;stroke:#2f2e2f;stroke-width:20;stroke-linecap:round;stroke-linejoin:round;stroke-miterlimit:10;stroke-dasharray:none;stroke-opacity:1"
         id="path50" />
      <path
         d="m -44.8398,1873.06 c 71.5,5.05 144.6875,-17.44 200.0348,-61.49 55.352,-44.04 92.254,-109.14 100.868,-177.94 83.042,92.85 219.425,127.09 334.539,75.3 115.113,-51.79 186.55,-181.76 166.527,-302.96 66.125,13.75 130.582,-3.26 179.281,-48.63 48.703,-45.36 72.06,-114.77 60.293,-179.16 94.407,47.8 202.257,42.06 295.427,-7.93 93.18,-49.99 157.47,-147.05 165.46,-249.758 H -44.8398 v 952.568"
         style="fill:#ffffff;fill-opacity:1;fill-rule:nonzero;stroke:none"
         id="path52" />
      <path
         d="m -44.8398,1873.06 c 71.5,5.05 144.6875,-17.44 200.0348,-61.49 55.352,-44.04 92.254,-109.14 100.868,-177.94 83.042,92.85 219.425,127.09 334.539,75.3 115.113,-51.79 186.55,-181.76 166.527,-302.96 66.125,13.75 130.582,-3.26 179.281,-48.63 48.703,-45.36 72.06,-114.77 60.293,-179.16 94.407,47.8 202.257,42.06 295.427,-7.93 93.18,-49.99 157.47,-147.05 165.46,-249.758 H -44.8398 Z"
         style="fill:none;stroke:#2f2e2f;stroke-width:20;stroke-linecap:round;stroke-linejoin:round;stroke-miterlimit:10;stroke-dasharray:none;stroke-opacity:1"
         id="path54" />
      <path
         d="m 3065.91,3549.41 v -258.83 c 750.44,0 1358.71,-608.28 1358.71,-1358.71 h 258.84 c 0,893.31 -724.24,1617.54 -1617.55,1617.54"
         style="fill:#ffffff;fill-opacity:1;fill-rule:nonzero;stroke:none"
         id="path56" />
      <path
         d="m 3065.91,3549.41 v -258.83 c 750.44,0 1358.71,-608.28 1358.71,-1358.71 h 258.84 c 0,893.31 -724.24,1617.54 -1617.55,1617.54 z"
         style="fill:none;stroke:#2f2e2f;stroke-width:20;stroke-linecap:round;stroke-linejoin:round;stroke-miterlimit:10;stroke-dasharray:none;stroke-opacity:1"
         id="path58" />
      <path
         d="m 3065.91,3290.58 v -257.91 c 608.04,0 1100.81,-492.77 1100.81,-1100.8 h 257.9 c 0,750.43 -608.27,1358.71 -1358.71,1358.71"
         style="fill:#ffffff;fill-opacity:1;fill-rule:nonzero;stroke:none"
         id="path60" />
      <path
         d="m 3065.91,3290.58 v -257.91 c 608.04,0 1100.81,-492.77 1100.81,-1100.8 h 257.9 c 0,750.43 -608.27,1358.71 -1358.71,1358.71 z"
         style="fill:none;stroke:#2f2e2f;stroke-width:20;stroke-linecap:round;stroke-linejoin:round;stroke-miterlimit:10;stroke-dasharray:none;stroke-opacity:1"
         id="path62" />
      <path
         d="M 3065.91,3032.67 V 2781.7 c 469.39,0 849.84,-380.44 849.84,-849.83 h 250.97 c 0,608.03 -492.77,1100.8 -1100.81,1100.8"
         style="fill:#ffffff;fill-opacity:1;fill-rule:nonzero;stroke:none"
         id="path64" />
      <path
         d="M 3065.91,3032.67 V 2781.7 c 469.39,0 849.84,-380.44 849.84,-849.83 h 250.97 c 0,608.03 -492.77,1100.8 -1100.81,1100.8 z"
         style="fill:none;stroke:#2f2e2f;stroke-width:20;stroke-linecap:round;stroke-linejoin:round;stroke-miterlimit:10;stroke-dasharray:none;stroke-opacity:1"
         id="path66" />
      <path
         d="m 5059.55,2337.82 c -44.34,154.3 -211.56,262.69 -370.52,240.16 -158.95,-22.53 -289.46,-173.1 -289.19,-333.64 -75.43,57.15 -184.84,57.19 -258.11,-2.7 -73.27,-59.9 -98.13,-171.78 -57.1,-257.07 -88.64,62.8 -233.12,46.92 -315.25,-24.19 -82.13,-71.1 -107.24,-200.12 -57.77,-296.84 -79.88,31.27 -191.82,22.92 -262.22,-26.09 -70.4,-49.01 -113.95,-134.37 -112.33,-220.14 h 1722.49 v 920.51"
         style="fill:#ffffff;fill-opacity:1;fill-rule:nonzero;stroke:none"
         id="path68" />
      <path
         d="m 5059.55,2337.82 c -44.34,154.3 -211.56,262.69 -370.52,240.16 -158.95,-22.53 -289.46,-173.1 -289.19,-333.64 -75.43,57.15 -184.84,57.19 -258.11,-2.7 -73.27,-59.9 -98.13,-171.78 -57.1,-257.07 -88.64,62.8 -233.12,46.92 -315.25,-24.19 -82.13,-71.1 -107.24,-200.12 -57.77,-296.84 -79.88,31.27 -191.82,22.92 -262.22,-26.09 -70.4,-49.01 -113.95,-134.37 -112.33,-220.14 h 1722.49 z"
         style="fill:none;stroke:#2f2e2f;stroke-width:20;stroke-linecap:round;stroke-linejoin:round;stroke-miterlimit:10;stroke-dasharray:none;stroke-opacity:1"
         id="path70" />
      <path
         d="m 3389.51,5852.19 v -258.85 c 750.43,0 1358.7,-758.26 1358.7,-1508.7 h 258.84 c 0,893.31 -724.23,1767.55 -1617.54,1767.55"
         style="fill:#ffffff;fill-opacity:1;fill-rule:nonzero;stroke:none"
         id="path72" />
      <path
         d="m 3389.51,5852.19 v -258.85 c 750.43,0 1358.7,-758.26 1358.7,-1508.7 h 258.84 c 0,893.31 -724.23,1767.55 -1617.54,1767.55 z"
         style="fill:none;stroke:#2f2e2f;stroke-width:20;stroke-linecap:round;stroke-linejoin:round;stroke-miterlimit:10;stroke-dasharray:none;stroke-opacity:1"
         id="path74" />
      <path
         d="m 3389.51,5593.34 v -257.89 c 608.03,0 1100.8,-642.78 1100.8,-1250.81 h 257.9 c 0,750.44 -608.27,1508.7 -1358.7,1508.7"
         style="fill:#ffffff;fill-opacity:1;fill-rule:nonzero;stroke:none"
         id="path76" />
      <path
         d="m 3389.51,5593.34 v -257.89 c 608.03,0 1100.8,-642.78 1100.8,-1250.81 h 257.9 c 0,750.44 -608.27,1508.7 -1358.7,1508.7 z"
         style="fill:none;stroke:#2f2e2f;stroke-width:20;stroke-linecap:round;stroke-linejoin:round;stroke-miterlimit:10;stroke-dasharray:none;stroke-opacity:1"
         id="path78" />
      <path
         d="m 3389.51,5335.45 v -250.97 c 469.39,0 849.84,-530.45 849.84,-999.84 h 250.96 c 0,608.03 -492.77,1250.81 -1100.8,1250.81"
         style="fill:#ffffff;fill-opacity:1;fill-rule:nonzero;stroke:none"
         id="path80" />
      <path
         d="m 3389.51,5335.45 v -250.97 c 469.39,0 849.84,-530.45 849.84,-999.84 h 250.96 c 0,608.03 -492.77,1250.81 -1100.8,1250.81 z"
         style="fill:none;stroke:#2f2e2f;stroke-width:20;stroke-linecap:round;stroke-linejoin:round;stroke-miterlimit:10;stroke-dasharray:none;stroke-opacity:1"
         id="path82" />
      <path
         d="m 5072.19,4364.58 c -32.09,69.39 -109.61,114.95 -185.85,109.22 -76.23,-5.73 -146.08,-62.35 -167.44,-135.76 -14.38,87.96 -109.29,158.21 -198.41,156.67 -89.11,-1.56 -171.47,-66.08 -202.08,-149.79 -30.63,-83.7 -12.04,-181.53 40.37,-253.62 -83.95,20.6 -195.48,-14.21 -259.73,-72.02 -64.25,-57.82 -97.41,-148.32 -85.75,-233.96 h 1058.89 v 579.26"
         style="fill:#ffffff;fill-opacity:1;fill-rule:nonzero;stroke:none"
         id="path84" />
      <path
         d="m 5072.19,4364.58 c -32.09,69.39 -109.61,114.95 -185.85,109.22 -76.23,-5.73 -146.08,-62.35 -167.44,-135.76 -14.38,87.96 -109.29,158.21 -198.41,156.67 -89.11,-1.56 -171.47,-66.08 -202.08,-149.79 -30.63,-83.7 -12.04,-181.53 40.37,-253.62 -83.95,20.6 -195.48,-14.21 -259.73,-72.02 -64.25,-57.82 -97.41,-148.32 -85.75,-233.96 h 1058.89 z"
         style="fill:none;stroke:#2f2e2f;stroke-width:20;stroke-linecap:round;stroke-linejoin:round;stroke-miterlimit:10;stroke-dasharray:none;stroke-opacity:1"
         id="path86" />
      <path
         d="m 1672.52,310.371 c -1.12,0 -875.899,0 -875.899,0 -53.683,127.82 -163.297,227.59 -291.25,280.938 169.32,16.043 343.656,-26.778 486.285,-119.438 -60.25,197.609 -198.644,370.25 -378.426,472.051 239.661,-13.871 470.33,-140.981 610.07,-336.192 -43.77,165.641 -15.76,348.95 75.46,493.96 5.04,-155.78 44.34,-310.37 114.3,-449.651 73.55,130.672 199.67,230.762 343.64,272.699 -63.82,-93.738 -97.49,-205.656 -108.11,-317.879 -2.45,-25.867 -11.18,-296.488 23.93,-296.488"
         style="fill:#ffffff;fill-opacity:1;fill-rule:nonzero;stroke:none"
         id="path88" />
      <path
         d="m 1672.52,310.371 c -1.12,0 -875.899,0 -875.899,0 -53.683,127.82 -163.297,227.59 -291.25,280.938 169.32,16.043 343.656,-26.778 486.285,-119.438 -60.25,197.609 -198.644,370.25 -378.426,472.051 239.661,-13.871 470.33,-140.981 610.07,-336.192 -43.77,165.641 -15.76,348.95 75.46,493.96 5.04,-155.78 44.34,-310.37 114.3,-449.651 73.55,130.672 199.67,230.762 343.64,272.699 -63.82,-93.738 -97.49,-205.656 -108.11,-317.879 -2.45,-25.867 -11.18,-296.488 23.93,-296.488 z"
         style="fill:none;stroke:#2f2e2f;stroke-width:20;stroke-linecap:round;stroke-linejoin:round;stroke-miterlimit:10;stroke-dasharray:none;stroke-opacity:1"
         id="path90" />
      <path
         d="M 4424.62,310.371 H 3132.7 c 42.61,114.488 34.92,234.731 1.26,352.16 -33.67,117.43 -105.76,223.508 -202.55,298.039 179.61,-37.422 338.81,-155.98 440.48,-308.699 -32.83,236.699 -125.11,462.039 -264.74,655.959 269.8,-79.63 490.12,-308.799 559.05,-581.529 17.43,147.328 66.26,296.679 153.49,416.689 -26.26,-141.41 -7.71,-290.791 52.34,-421.478 105.72,162.008 268.88,276.898 460.33,304.618 C 4197.3,931.379 4125.81,753.93 4157.45,592.012 4287.19,681.531 4407.86,754.68 4559.79,796.66 4428.81,683.25 4366.57,473.621 4424.62,310.371"
         style="fill:#ffffff;fill-opacity:1;fill-rule:nonzero;stroke:none"
         id="path92" />
      <path
         d="M 4424.62,310.371 H 3132.7 c 42.61,114.488 34.92,234.731 1.26,352.16 -33.67,117.43 -105.76,223.508 -202.55,298.039 179.61,-37.422 338.81,-155.98 440.48,-308.699 -32.83,236.699 -125.11,462.039 -264.74,655.959 269.8,-79.63 490.12,-308.799 559.05,-581.529 17.43,147.328 66.26,296.679 153.49,416.689 -26.26,-141.41 -7.71,-290.791 52.34,-421.478 105.72,162.008 268.88,276.898 460.33,304.618 C 4197.3,931.379 4125.81,753.93 4157.45,592.012 4287.19,681.531 4407.86,754.68 4559.79,796.66 4428.81,683.25 4366.57,473.621 4424.62,310.371 Z"
         style="fill:none;stroke:#2f2e2f;stroke-width:20;stroke-linecap:round;stroke-linejoin:round;stroke-miterlimit:10;stroke-dasharray:none;stroke-opacity:1"
         id="path94" />
      <path
         d="m 2865.37,1960.43 c 93.02,-99.83 230.36,-145.99 374.53,-125.83 144.18,20.15 293.53,106.36 407.26,235.09 -94.13,93.31 -221.71,139.73 -361.95,124.27 -140.25,-15.46 -301.89,-116.84 -419.84,-233.53"
         style="fill:#ffffff;fill-opacity:1;fill-rule:nonzero;stroke:none"
         id="path96" />
      <path
         d="m 2865.37,1960.43 c 93.02,-99.83 230.36,-145.99 374.53,-125.83 144.18,20.15 293.53,106.36 407.26,235.09 -94.13,93.31 -221.71,139.73 -361.95,124.27 -140.25,-15.46 -301.89,-116.84 -419.84,-233.53 z"
         style="fill:none;stroke:#2f2e2f;stroke-width:20;stroke-linecap:round;stroke-linejoin:round;stroke-miterlimit:10;stroke-dasharray:none;stroke-opacity:1"
         id="path98" />
      <path
         d="m 3492.81,2049.2 c -170.6,11.63 -381.99,-20.36 -627.44,-88.77"
         style="fill:none;stroke:#2f2e2f;stroke-width:20;stroke-linecap:round;stroke-linejoin:round;stroke-miterlimit:10;stroke-dasharray:none;stroke-opacity:1"
         id="path100" />
      <path
         d="m 2819.79,1590.34 c -156.23,-2.56 -311.57,60.01 -423.62,170.61 -112.05,110.6 -179.5,267.96 -183.95,429.11 152.36,-2.49 299.31,-58.27 411.38,-163.15 112.07,-104.87 179.09,-280.46 196.19,-436.57"
         style="fill:#ffffff;fill-opacity:1;fill-rule:nonzero;stroke:none"
         id="path102" />
      <path
         d="m 2819.79,1590.34 c -156.23,-2.56 -311.57,60.01 -423.62,170.61 -112.05,110.6 -179.5,267.96 -183.95,429.11 152.36,-2.49 299.31,-58.27 411.38,-163.15 112.07,-104.87 179.09,-280.46 196.19,-436.57 z"
         style="fill:none;stroke:#2f2e2f;stroke-width:20;stroke-linecap:round;stroke-linejoin:round;stroke-miterlimit:10;stroke-dasharray:none;stroke-opacity:1"
         id="path104" />
      <path
         d="m 2332.97,2072.36 c 158.99,-107.64 321.45,-271.39 486.82,-482.02"
         style="fill:none;stroke:#2f2e2f;stroke-width:20;stroke-linecap:round;stroke-linejoin:round;stroke-miterlimit:10;stroke-dasharray:none;stroke-opacity:1"
         id="path106" />
      <path
         d="m 2567.15,283.148 c -3.71,0 -7.46,0.321 -11.24,0.981 -35.36,6.16 -59.04,39.832 -52.87,75.203 l 462.67,2654.348 c 6.17,35.37 39.89,59.02 75.2,52.87 35.36,-6.16 59.03,-39.83 52.87,-75.19 L 2631.1,337 c -5.5,-31.59 -32.96,-53.852 -63.95,-53.852"
         style="fill:#ffffff;fill-opacity:1;fill-rule:nonzero;stroke:none"
         id="path108" />
      <path
         d="m 2567.15,283.148 c -3.71,0 -7.46,0.321 -11.24,0.981 -35.36,6.16 -59.04,39.832 -52.87,75.203 l 462.67,2654.348 c 6.17,35.37 39.89,59.02 75.2,52.87 35.36,-6.16 59.03,-39.83 52.87,-75.19 L 2631.1,337 c -5.5,-31.59 -32.96,-53.852 -63.95,-53.852 z"
         style="fill:none;stroke:#2f2e2f;stroke-width:20;stroke-linecap:butt;stroke-linejoin:miter;stroke-miterlimit:10;stroke-dasharray:none;stroke-opacity:1"
         id="path110" />
      <path
         d="m 3851.02,3899.17 c -117.64,-129.17 -335.58,-44.48 -335.58,-44.48 0,0 -104.65,209.09 12.98,338.26 117.62,129.17 413,129.51 413,129.51 0,0 27.22,-294.12 -90.4,-423.29"
         style="fill:#ffffff;fill-opacity:1;fill-rule:nonzero;stroke:none"
         id="path112" />
      <path
         d="m 3851.02,3899.17 c -117.64,-129.17 -335.58,-44.48 -335.58,-44.48 0,0 -104.65,209.09 12.98,338.26 117.62,129.17 413,129.51 413,129.51 0,0 27.22,-294.12 -90.4,-423.29 z"
         style="fill:none;stroke:#2f2e2f;stroke-width:20;stroke-linecap:round;stroke-linejoin:round;stroke-miterlimit:10;stroke-dasharray:none;stroke-opacity:1"
         id="path114" />
      <path
         d="M 3817.17,4186.02 3515.44,3854.69"
         style="fill:none;stroke:#2f2e2f;stroke-width:20;stroke-linecap:round;stroke-linejoin:round;stroke-miterlimit:10;stroke-dasharray:none;stroke-opacity:1"
         id="path116" />
      <path
         d="m 2903.2,2854.67 c 117.63,129.17 12.98,338.26 12.98,338.26 0,0 -217.95,84.69 -335.57,-44.48 -117.63,-129.17 -90.41,-423.28 -90.41,-423.28 0,0 295.37,0.33 413,129.5"
         style="fill:#ffffff;fill-opacity:1;fill-rule:nonzero;stroke:none"
         id="path118" />
      <path
         d="m 2903.2,2854.67 c 117.63,129.17 12.98,338.26 12.98,338.26 0,0 -217.95,84.69 -335.57,-44.48 -117.63,-129.17 -90.41,-423.28 -90.41,-423.28 0,0 295.37,0.33 413,129.5 z"
         style="fill:none;stroke:#2f2e2f;stroke-width:20;stroke-linecap:round;stroke-linejoin:round;stroke-miterlimit:10;stroke-dasharray:none;stroke-opacity:1"
         id="path120" />
      <path
         d="m 2614.45,2861.61 301.73,331.32"
         style="fill:none;stroke:#2f2e2f;stroke-width:20;stroke-linecap:round;stroke-linejoin:round;stroke-miterlimit:10;stroke-dasharray:none;stroke-opacity:1"
         id="path122" />
      <path
         d="m 3038.45,2807.63 c -9.72,174.43 203.43,270.55 203.43,270.55 0,0 222.5,-71.86 232.2,-246.3 9.72,-174.43 -197.03,-385.38 -197.03,-385.38 0,0 -228.9,186.69 -238.6,361.13"
         style="fill:#ffffff;fill-opacity:1;fill-rule:nonzero;stroke:none"
         id="path124" />
      <path
         d="m 3038.45,2807.63 c -9.72,174.43 203.43,270.55 203.43,270.55 0,0 222.5,-71.86 232.2,-246.3 9.72,-174.43 -197.03,-385.38 -197.03,-385.38 0,0 -228.9,186.69 -238.6,361.13 z"
         style="fill:none;stroke:#2f2e2f;stroke-width:20;stroke-linecap:round;stroke-linejoin:round;stroke-miterlimit:10;stroke-dasharray:none;stroke-opacity:1"
         id="path126" />
      <path
         d="m 3266.79,2630.76 -24.91,447.42"
         style="fill:none;stroke:#2f2e2f;stroke-width:20;stroke-linecap:round;stroke-linejoin:round;stroke-miterlimit:10;stroke-dasharray:none;stroke-opacity:1"
         id="path128" />
      <path
         d="m 2957.54,4215.74 c 9.71,-174.44 232.21,-246.3 232.21,-246.3 0,0 213.14,96.12 203.42,270.56 -9.7,174.43 -238.6,361.12 -238.6,361.12 0,0 -206.75,-210.95 -197.03,-385.38"
         style="fill:#ffffff;fill-opacity:1;fill-rule:nonzero;stroke:none"
         id="path130" />
      <path
         d="m 2957.54,4215.74 c 9.71,-174.44 232.21,-246.3 232.21,-246.3 0,0 213.14,96.12 203.42,270.56 -9.7,174.43 -238.6,361.12 -238.6,361.12 0,0 -206.75,-210.95 -197.03,-385.38 z"
         style="fill:none;stroke:#2f2e2f;stroke-width:20;stroke-linecap:round;stroke-linejoin:round;stroke-miterlimit:10;stroke-dasharray:none;stroke-opacity:1"
         id="path132" />
      <path
         d="m 3164.83,4416.87 24.92,-447.43"
         style="fill:none;stroke:#2f2e2f;stroke-width:20;stroke-linecap:round;stroke-linejoin:round;stroke-miterlimit:10;stroke-dasharray:none;stroke-opacity:1"
         id="path134" />
      <path
         d="m 3587.66,2886.55 c -128.52,118.34 -42.63,335.81 -42.63,335.81 0,0 209.67,103.49 338.18,-14.85 128.52,-118.34 127.23,-413.71 127.23,-413.71 0,0 -294.27,-25.6 -422.78,92.75"
         style="fill:#ffffff;fill-opacity:1;fill-rule:nonzero;stroke:none"
         id="path136" />
      <path
         d="m 3587.66,2886.55 c -128.52,118.34 -42.63,335.81 -42.63,335.81 0,0 209.67,103.49 338.18,-14.85 128.52,-118.34 127.23,-413.71 127.23,-413.71 0,0 -294.27,-25.6 -422.78,92.75 z"
         style="fill:none;stroke:#2f2e2f;stroke-width:20;stroke-linecap:round;stroke-linejoin:round;stroke-miterlimit:10;stroke-dasharray:none;stroke-opacity:1"
         id="path138" />
      <path
         d="m 3874.69,2918.81 -329.66,303.55"
         style="fill:none;stroke:#2f2e2f;stroke-width:20;stroke-linecap:round;stroke-linejoin:round;stroke-miterlimit:10;stroke-dasharray:none;stroke-opacity:1"
         id="path140" />
      <path
         d="m 2548.41,3840.11 c 128.51,-118.34 338.18,-14.84 338.18,-14.84 0,0 85.89,217.46 -42.63,335.81 -128.52,118.34 -422.77,92.74 -422.77,92.74 0,0 -1.3,-295.37 127.22,-413.71"
         style="fill:#ffffff;fill-opacity:1;fill-rule:nonzero;stroke:none"
         id="path142" />
      <path
         d="m 2548.41,3840.11 c 128.51,-118.34 338.18,-14.84 338.18,-14.84 0,0 85.89,217.46 -42.63,335.81 -128.52,118.34 -422.77,92.74 -422.77,92.74 0,0 -1.3,-295.37 127.22,-413.71 z"
         style="fill:none;stroke:#2f2e2f;stroke-width:20;stroke-linecap:round;stroke-linejoin:round;stroke-miterlimit:10;stroke-dasharray:none;stroke-opacity:1"
         id="path144" />
      <path
         d="m 2556.93,4128.82 329.66,-303.55"
         style="fill:none;stroke:#2f2e2f;stroke-width:20;stroke-linecap:round;stroke-linejoin:round;stroke-miterlimit:10;stroke-dasharray:none;stroke-opacity:1"
         id="path146" />
      <path
         d="m 2500.54,3704.84 c 174.48,8.82 269.52,-204.81 269.52,-204.81 0,0 -73.01,-222.13 -247.49,-230.95 -174.48,-8.82 -384.37,199.01 -384.37,199.01 0,0 187.86,227.93 362.34,236.75"
         style="fill:#ffffff;fill-opacity:1;fill-rule:nonzero;stroke:none"
         id="path148" />
      <path
         d="m 2500.54,3704.84 c 174.48,8.82 269.52,-204.81 269.52,-204.81 0,0 -73.01,-222.13 -247.49,-230.95 -174.48,-8.82 -384.37,199.01 -384.37,199.01 0,0 187.86,227.93 362.34,236.75 z"
         style="fill:none;stroke:#2f2e2f;stroke-width:20;stroke-linecap:round;stroke-linejoin:round;stroke-miterlimit:10;stroke-dasharray:none;stroke-opacity:1"
         id="path150" />
      <path
         d="m 2322.5,3477.4 447.56,22.63"
         style="fill:none;stroke:#2f2e2f;stroke-width:20;stroke-linecap:round;stroke-linejoin:round;stroke-miterlimit:10;stroke-dasharray:none;stroke-opacity:1"
         id="path152" />
      <path
         d="m 3909.05,3778.54 c -174.48,-8.82 -247.49,-230.94 -247.49,-230.94 0,0 95.04,-213.64 269.51,-204.82 174.49,8.82 362.35,236.76 362.35,236.76 0,0 -209.88,207.82 -384.37,199"
         style="fill:#ffffff;fill-opacity:1;fill-rule:nonzero;stroke:none"
         id="path154" />
      <path
         d="m 3909.05,3778.54 c -174.48,-8.82 -247.49,-230.94 -247.49,-230.94 0,0 95.04,-213.64 269.51,-204.82 174.49,8.82 362.35,236.76 362.35,236.76 0,0 -209.88,207.82 -384.37,199 z"
         style="fill:none;stroke:#2f2e2f;stroke-width:20;stroke-linecap:round;stroke-linejoin:round;stroke-miterlimit:10;stroke-dasharray:none;stroke-opacity:1"
         id="path156" />
      <path
         d="M 4109.11,3570.22 3661.56,3547.6"
         style="fill:none;stroke:#2f2e2f;stroke-width:20;stroke-linecap:round;stroke-linejoin:round;stroke-miterlimit:10;stroke-dasharray:none;stroke-opacity:1"
         id="path158" />
      <path
         d="m 2484.99,3422.46 c 158.34,73.81 326.76,-88.37 326.76,-88.37 0,0 15.92,-233.28 -142.42,-307.09 -158.35,-73.81 -431,39.79 -431,39.79 0,0 88.31,281.86 246.66,355.67"
         style="fill:#ffffff;fill-opacity:1;fill-rule:nonzero;stroke:none"
         id="path160" />
      <path
         d="m 2484.99,3422.46 c 158.34,73.81 326.76,-88.37 326.76,-88.37 0,0 15.92,-233.28 -142.42,-307.09 -158.35,-73.81 -431,39.79 -431,39.79 0,0 88.31,281.86 246.66,355.67 z"
         style="fill:none;stroke:#2f2e2f;stroke-width:20;stroke-linecap:round;stroke-linejoin:round;stroke-miterlimit:10;stroke-dasharray:none;stroke-opacity:1"
         id="path162" />
      <path
         d="m 2405.59,3144.76 406.16,189.33"
         style="fill:none;stroke:#2f2e2f;stroke-width:20;stroke-linecap:round;stroke-linejoin:round;stroke-miterlimit:10;stroke-dasharray:none;stroke-opacity:1"
         id="path164" />
      <path
         d="m 3762.29,4020.63 c -158.33,-73.82 -142.42,-307.09 -142.42,-307.09 0,0 168.42,-162.19 326.77,-88.38 158.34,73.81 246.65,355.67 246.65,355.67 0,0 -272.65,113.6 -431,39.8"
         style="fill:#ffffff;fill-opacity:1;fill-rule:nonzero;stroke:none"
         id="path166" />
      <path
         d="m 3762.29,4020.63 c -158.33,-73.82 -142.42,-307.09 -142.42,-307.09 0,0 168.42,-162.19 326.77,-88.38 158.34,73.81 246.65,355.67 246.65,355.67 0,0 -272.65,113.6 -431,39.8 z"
         style="fill:none;stroke:#2f2e2f;stroke-width:20;stroke-linecap:round;stroke-linejoin:round;stroke-miterlimit:10;stroke-dasharray:none;stroke-opacity:1"
         id="path168" />
      <path
         d="M 4026.04,3902.87 3619.87,3713.54"
         style="fill:none;stroke:#2f2e2f;stroke-width:20;stroke-linecap:round;stroke-linejoin:round;stroke-miterlimit:10;stroke-dasharray:none;stroke-opacity:1"
         id="path170" />
      <path
         d="m 3317.16,2792.98 c -73.81,158.35 88.38,326.77 88.38,326.77 0,0 233.27,15.92 307.08,-142.43 73.82,-158.34 -39.79,-430.99 -39.79,-430.99 0,0 -281.86,88.31 -355.67,246.65"
         style="fill:#ffffff;fill-opacity:1;fill-rule:nonzero;stroke:none"
         id="path172" />
      <path
         d="m 3317.16,2792.98 c -73.81,158.35 88.38,326.77 88.38,326.77 0,0 233.27,15.92 307.08,-142.43 73.82,-158.34 -39.79,-430.99 -39.79,-430.99 0,0 -281.86,88.31 -355.67,246.65 z"
         style="fill:none;stroke:#2f2e2f;stroke-width:20;stroke-linecap:round;stroke-linejoin:round;stroke-miterlimit:10;stroke-dasharray:none;stroke-opacity:1"
         id="path174" />
      <path
         d="m 3594.86,2713.59 -189.32,406.16"
         style="fill:none;stroke:#2f2e2f;stroke-width:20;stroke-linecap:round;stroke-linejoin:round;stroke-miterlimit:10;stroke-dasharray:none;stroke-opacity:1"
         id="path176" />
      <path
         d="m 2718.99,4070.3 c 73.82,-158.35 307.09,-142.42 307.09,-142.42 0,0 162.19,168.41 88.38,326.76 -73.81,158.34 -355.67,246.65 -355.67,246.65 0,0 -113.6,-272.65 -39.8,-430.99"
         style="fill:#ffffff;fill-opacity:1;fill-rule:nonzero;stroke:none"
         id="path178" />
      <path
         d="m 2718.99,4070.3 c 73.82,-158.35 307.09,-142.42 307.09,-142.42 0,0 162.19,168.41 88.38,326.76 -73.81,158.34 -355.67,246.65 -355.67,246.65 0,0 -113.6,-272.65 -39.8,-430.99 z"
         style="fill:none;stroke:#2f2e2f;stroke-width:20;stroke-linecap:round;stroke-linejoin:round;stroke-miterlimit:10;stroke-dasharray:none;stroke-opacity:1"
         id="path180" />
      <path
         d="m 2836.76,4334.04 189.32,-406.16"
         style="fill:none;stroke:#2f2e2f;stroke-width:20;stroke-linecap:round;stroke-linejoin:round;stroke-miterlimit:10;stroke-dasharray:none;stroke-opacity:1"
         id="path182" />
      <path
         d="m 3804.25,3078.71 c -164.16,59.77 -168.57,293.55 -168.57,293.55 0,0 153.7,176.2 317.86,116.43 164.16,-59.78 276.62,-332.9 276.62,-332.9 0,0 -261.75,-136.86 -425.91,-77.08"
         style="fill:#ffffff;fill-opacity:1;fill-rule:nonzero;stroke:none"
         id="path184" />
      <path
         d="m 3804.25,3078.71 c -164.16,59.77 -168.57,293.55 -168.57,293.55 0,0 153.7,176.2 317.86,116.43 164.16,-59.78 276.62,-332.9 276.62,-332.9 0,0 -261.75,-136.86 -425.91,-77.08 z"
         style="fill:none;stroke:#2f2e2f;stroke-width:20;stroke-linecap:round;stroke-linejoin:round;stroke-miterlimit:10;stroke-dasharray:none;stroke-opacity:1"
         id="path186" />
      <path
         d="m 4056.76,3218.93 -421.08,153.33"
         style="fill:none;stroke:#2f2e2f;stroke-width:20;stroke-linecap:round;stroke-linejoin:round;stroke-miterlimit:10;stroke-dasharray:none;stroke-opacity:1"
         id="path188" />
      <path
         d="m 2478.09,3558.94 c 164.16,-59.77 317.85,116.43 317.85,116.43 0,0 -4.41,233.78 -168.57,293.55 -164.16,59.78 -425.91,-77.08 -425.91,-77.08 0,0 112.47,-273.13 276.63,-332.9"
         style="fill:#ffffff;fill-opacity:1;fill-rule:nonzero;stroke:none"
         id="path190" />
      <path
         d="m 2478.09,3558.94 c 164.16,-59.77 317.85,116.43 317.85,116.43 0,0 -4.41,233.78 -168.57,293.55 -164.16,59.78 -425.91,-77.08 -425.91,-77.08 0,0 112.47,-273.13 276.63,-332.9 z"
         style="fill:none;stroke:#2f2e2f;stroke-width:20;stroke-linecap:round;stroke-linejoin:round;stroke-miterlimit:10;stroke-dasharray:none;stroke-opacity:1"
         id="path192" />
      <path
         d="m 2374.86,3828.7 421.08,-153.33"
         style="fill:none;stroke:#2f2e2f;stroke-width:20;stroke-linecap:round;stroke-linejoin:round;stroke-miterlimit:10;stroke-dasharray:none;stroke-opacity:1"
         id="path194" />
      <path
         d="m 3660.92,4112.25 c -59.78,-164.16 -293.56,-168.56 -293.56,-168.56 0,0 -176.2,153.69 -116.42,317.85 59.77,164.15 332.9,276.62 332.9,276.62 0,0 136.85,-261.75 77.08,-425.91"
         style="fill:#ffffff;fill-opacity:1;fill-rule:nonzero;stroke:none"
         id="path196" />
      <path
         d="m 3660.92,4112.25 c -59.78,-164.16 -293.56,-168.56 -293.56,-168.56 0,0 -176.2,153.69 -116.42,317.85 59.77,164.15 332.9,276.62 332.9,276.62 0,0 136.85,-261.75 77.08,-425.91 z"
         style="fill:none;stroke:#2f2e2f;stroke-width:20;stroke-linecap:round;stroke-linejoin:round;stroke-miterlimit:10;stroke-dasharray:none;stroke-opacity:1"
         id="path198" />
      <path
         d="M 3520.69,4364.76 3367.36,3943.69"
         style="fill:none;stroke:#2f2e2f;stroke-width:20;stroke-linecap:round;stroke-linejoin:round;stroke-miterlimit:10;stroke-dasharray:none;stroke-opacity:1"
         id="path200" />
      <path
         d="m 3180.68,2786.09 c 59.78,164.16 -116.43,317.85 -116.43,317.85 0,0 -233.77,-4.4 -293.55,-168.56 -59.77,-164.16 77.08,-425.92 77.08,-425.92 0,0 273.13,112.47 332.9,276.63"
         style="fill:#ffffff;fill-opacity:1;fill-rule:nonzero;stroke:none"
         id="path202" />
      <path
         d="m 3180.68,2786.09 c 59.78,164.16 -116.43,317.85 -116.43,317.85 0,0 -233.77,-4.4 -293.55,-168.56 -59.77,-164.16 77.08,-425.92 77.08,-425.92 0,0 273.13,112.47 332.9,276.63 z"
         style="fill:none;stroke:#2f2e2f;stroke-width:20;stroke-linecap:round;stroke-linejoin:round;stroke-miterlimit:10;stroke-dasharray:none;stroke-opacity:1"
         id="path204" />
      <path
         d="m 2910.93,2682.87 153.32,421.07"
         style="fill:none;stroke:#2f2e2f;stroke-width:20;stroke-linecap:round;stroke-linejoin:round;stroke-miterlimit:10;stroke-dasharray:none;stroke-opacity:1"
         id="path206" />
      <path
         d="M 3787.4,3315.68 C 3672.45,3000 3323.36,2837.27 3007.68,2952.22 c -315.69,114.95 -478.41,464.04 -363.46,779.72 114.95,315.69 464.04,478.41 779.73,363.46 315.67,-114.95 478.4,-464.04 363.45,-779.72"
         style="fill:#ffffff;fill-opacity:1;fill-rule:nonzero;stroke:none"
         id="path208" />
      <path
         d="M 3787.4,3315.68 C 3672.45,3000 3323.36,2837.27 3007.68,2952.22 c -315.69,114.95 -478.41,464.04 -363.46,779.72 114.95,315.69 464.04,478.41 779.73,363.46 315.67,-114.95 478.4,-464.04 363.45,-779.72 z"
         style="fill:none;stroke:#2f2e2f;stroke-width:20;stroke-linecap:round;stroke-linejoin:round;stroke-miterlimit:10;stroke-dasharray:none;stroke-opacity:1"
         id="path210" />
      <path
         d="m 2994.26,3559.76 c -12.92,-25.66 -44.19,-35.99 -69.86,-23.07 -25.65,12.93 -35.97,44.2 -23.05,69.86 12.92,25.66 44.2,35.98 69.85,23.06 25.66,-12.92 35.99,-44.19 23.06,-69.85"
         style="fill:#2f2e2f;fill-opacity:1;fill-rule:nonzero;stroke:none"
         id="path212" />
      <path
         d="m 3530.93,3450.17 c -12.93,-25.66 -44.2,-35.99 -69.87,-23.07 -25.65,12.93 -35.97,44.2 -23.05,69.86 12.92,25.66 44.2,35.98 69.85,23.06 25.67,-12.92 35.99,-44.19 23.07,-69.85"
         style="fill:#2f2e2f;fill-opacity:1;fill-rule:nonzero;stroke:none"
         id="path214" />
      <path
         d="m 2994.79,3457.09 c 38.44,-65 103.82,-113.5 177.18,-131.43 73.36,-17.93 153.74,-5.05 217.83,34.89"
         style="fill:none;stroke:#2f2e2f;stroke-width:20;stroke-linecap:round;stroke-linejoin:round;stroke-miterlimit:10;stroke-dasharray:none;stroke-opacity:1"
         id="path216" />
      <path
         d="m 2099.22,1337.38 c -98.38,-67.17 -223.31,-94.26 -340.68,-73.86 -117.36,20.41 -225.82,88.06 -295.75,184.51 98.01,62.49 214.77,90.18 329.77,73.28 115,-16.9 230.77,-95.88 306.66,-183.93"
         style="fill:#ffffff;fill-opacity:1;fill-rule:nonzero;stroke:none"
         id="path218" />
      <path
         d="m 2099.22,1337.38 c -98.38,-67.17 -223.31,-94.26 -340.68,-73.86 -117.36,20.41 -225.82,88.06 -295.75,184.51 98.01,62.49 214.77,90.18 329.77,73.28 115,-16.9 230.77,-95.88 306.66,-183.93 z"
         style="fill:none;stroke:#2f2e2f;stroke-width:20;stroke-linecap:round;stroke-linejoin:round;stroke-miterlimit:10;stroke-dasharray:none;stroke-opacity:1"
         id="path220" />
      <path
         d="m 1588.65,1426.95 c 146.02,1.12 317.61,-30.53 510.57,-89.57"
         style="fill:none;stroke:#2f2e2f;stroke-width:20;stroke-linecap:round;stroke-linejoin:round;stroke-miterlimit:10;stroke-dasharray:none;stroke-opacity:1"
         id="path222" />
      <path
         d="m 2151.53,1121.99 c 106.86,-1.74 213.13,41.06 289.77,116.71 76.65,75.66 122.79,183.29 125.83,293.52 -104.22,-1.7 -204.74,-39.86 -281.4,-111.6 -76.66,-71.73 -122.5,-191.85 -134.2,-298.63"
         style="fill:#ffffff;fill-opacity:1;fill-rule:nonzero;stroke:none"
         id="path224" />
      <path
         d="m 2151.53,1121.99 c 106.86,-1.74 213.13,41.06 289.77,116.71 76.65,75.66 122.79,183.29 125.83,293.52 -104.22,-1.7 -204.74,-39.86 -281.4,-111.6 -76.66,-71.73 -122.5,-191.85 -134.2,-298.63 z"
         style="fill:none;stroke:#2f2e2f;stroke-width:20;stroke-linecap:round;stroke-linejoin:round;stroke-miterlimit:10;stroke-dasharray:none;stroke-opacity:1"
         id="path226" />
      <path
         d="m 2484.53,1451.71 c -108.75,-73.62 -219.88,-185.65 -333,-329.72"
         style="fill:none;stroke:#2f2e2f;stroke-width:20;stroke-linecap:round;stroke-linejoin:round;stroke-miterlimit:10;stroke-dasharray:none;stroke-opacity:1"
         id="path228" />
      <path
         d="m 2334.14,373.449 c -29.52,0 -56.24,20.231 -63.24,50.223 C 2102.42,1144.96 1893.62,1865.4 1650.29,2565 c -11.79,33.9 6.14,70.95 40.04,82.74 33.91,11.8 70.95,-6.14 82.75,-40.04 244.82,-703.88 454.9,-1428.74 624.41,-2154.458 8.16,-34.961 -13.55,-69.91 -48.51,-78.082 -4.97,-1.16 -9.95,-1.711 -14.84,-1.711"
         style="fill:#ffffff;fill-opacity:1;fill-rule:nonzero;stroke:none"
         id="path230" />
      <path
         d="m 2334.14,373.449 c -29.52,0 -56.24,20.231 -63.24,50.223 C 2102.42,1144.96 1893.62,1865.4 1650.29,2565 c -11.79,33.9 6.14,70.95 40.04,82.74 33.91,11.8 70.95,-6.14 82.75,-40.04 244.82,-703.88 454.9,-1428.74 624.41,-2154.458 8.16,-34.961 -13.55,-69.91 -48.51,-78.082 -4.97,-1.16 -9.95,-1.711 -14.84,-1.711 z"
         style="fill:none;stroke:#2f2e2f;stroke-width:20;stroke-linecap:butt;stroke-linejoin:miter;stroke-miterlimit:10;stroke-dasharray:none;stroke-opacity:1"
         id="path232" />
      <path
         d="m 2187.65,3318 c -66.33,-161.62 -300.1,-156.61 -300.1,-156.61 0,0 -169.87,160.66 -103.54,322.28 66.34,161.62 343.76,263 343.76,263 0,0 126.22,-267.05 59.88,-428.67"
         style="fill:#ffffff;fill-opacity:1;fill-rule:nonzero;stroke:none"
         id="path234" />
      <path
         d="m 2187.65,3318 c -66.33,-161.62 -300.1,-156.61 -300.1,-156.61 0,0 -169.87,160.66 -103.54,322.28 66.34,161.62 343.76,263 343.76,263 0,0 126.22,-267.05 59.88,-428.67 z"
         style="fill:none;stroke:#2f2e2f;stroke-width:20;stroke-linecap:round;stroke-linejoin:round;stroke-miterlimit:10;stroke-dasharray:none;stroke-opacity:1"
         id="path236" />
      <path
         d="M 2057.71,3575.95 1887.55,3161.39"
         style="fill:none;stroke:#2f2e2f;stroke-width:20;stroke-linecap:round;stroke-linejoin:round;stroke-miterlimit:10;stroke-dasharray:none;stroke-opacity:1"
         id="path238" />
      <path
         d="m 1654.42,2012.25 c 66.34,161.62 -103.54,322.27 -103.54,322.27 0,0 -233.76,5.01 -300.1,-156.61 -66.33,-161.61 59.88,-428.66 59.88,-428.66 0,0 277.43,101.37 343.76,263"
         style="fill:#ffffff;fill-opacity:1;fill-rule:nonzero;stroke:none"
         id="path240" />
      <path
         d="m 1654.42,2012.25 c 66.34,161.62 -103.54,322.27 -103.54,322.27 0,0 -233.76,5.01 -300.1,-156.61 -66.33,-161.61 59.88,-428.66 59.88,-428.66 0,0 277.43,101.37 343.76,263 z"
         style="fill:none;stroke:#2f2e2f;stroke-width:20;stroke-linecap:round;stroke-linejoin:round;stroke-miterlimit:10;stroke-dasharray:none;stroke-opacity:1"
         id="path242" />
      <path
         d="m 1380.73,1919.96 170.15,414.56"
         style="fill:none;stroke:#2f2e2f;stroke-width:20;stroke-linecap:round;stroke-linejoin:round;stroke-miterlimit:10;stroke-dasharray:none;stroke-opacity:1"
         id="path244" />
      <path
         d="m 1797.6,2014.31 c -68.81,160.58 98.58,323.83 98.58,323.83 0,0 233.66,8.6 302.47,-151.98 68.81,-160.58 -53.29,-429.54 -53.29,-429.54 0,0 -278.95,97.11 -347.76,257.69"
         style="fill:#ffffff;fill-opacity:1;fill-rule:nonzero;stroke:none"
         id="path246" />
      <path
         d="m 1797.6,2014.31 c -68.81,160.58 98.58,323.83 98.58,323.83 0,0 233.66,8.6 302.47,-151.98 68.81,-160.58 -53.29,-429.54 -53.29,-429.54 0,0 -278.95,97.11 -347.76,257.69 z"
         style="fill:none;stroke:#2f2e2f;stroke-width:20;stroke-linecap:round;stroke-linejoin:round;stroke-miterlimit:10;stroke-dasharray:none;stroke-opacity:1"
         id="path248" />
      <path
         d="m 2072.68,1926.24 -176.5,411.9"
         style="fill:none;stroke:#2f2e2f;stroke-width:20;stroke-linecap:round;stroke-linejoin:round;stroke-miterlimit:10;stroke-dasharray:none;stroke-opacity:1"
         id="path250" />
      <path
         d="m 1239.79,3309.75 c 68.8,-160.58 302.46,-151.98 302.46,-151.98 0,0 167.39,163.25 98.58,323.83 -68.8,160.58 -347.76,257.69 -347.76,257.69 0,0 -122.09,-268.95 -53.28,-429.54"
         style="fill:#ffffff;fill-opacity:1;fill-rule:nonzero;stroke:none"
         id="path252" />
      <path
         d="m 1239.79,3309.75 c 68.8,-160.58 302.46,-151.98 302.46,-151.98 0,0 167.39,163.25 98.58,323.83 -68.8,160.58 -347.76,257.69 -347.76,257.69 0,0 -122.09,-268.95 -53.28,-429.54 z"
         style="fill:none;stroke:#2f2e2f;stroke-width:20;stroke-linecap:round;stroke-linejoin:round;stroke-miterlimit:10;stroke-dasharray:none;stroke-opacity:1"
         id="path254" />
      <path
         d="m 1365.75,3569.67 176.5,-411.9"
         style="fill:none;stroke:#2f2e2f;stroke-width:20;stroke-linecap:round;stroke-linejoin:round;stroke-miterlimit:10;stroke-dasharray:none;stroke-opacity:1"
         id="path256" />
      <path
         d="m 2286.67,2276.39 c -161.25,67.22 -154.96,300.95 -154.96,300.95 0,0 161.6,168.99 322.85,101.76 161.25,-67.23 261.09,-345.2 261.09,-345.2 0,0 -267.73,-124.74 -428.98,-57.51"
         style="fill:#ffffff;fill-opacity:1;fill-rule:nonzero;stroke:none"
         id="path258" />
      <path
         d="m 2286.67,2276.39 c -161.25,67.22 -154.96,300.95 -154.96,300.95 0,0 161.6,168.99 322.85,101.76 161.25,-67.23 261.09,-345.2 261.09,-345.2 0,0 -267.73,-124.74 -428.98,-57.51 z"
         style="fill:none;stroke:#2f2e2f;stroke-width:20;stroke-linecap:round;stroke-linejoin:round;stroke-miterlimit:10;stroke-dasharray:none;stroke-opacity:1"
         id="path260" />
      <path
         d="m 2545.33,2404.9 -413.62,172.44"
         style="fill:none;stroke:#2f2e2f;stroke-width:20;stroke-linecap:round;stroke-linejoin:round;stroke-miterlimit:10;stroke-dasharray:none;stroke-opacity:1"
         id="path262" />
      <path
         d="m 983.879,2816.81 c 161.251,-67.23 322.841,101.76 322.841,101.76 0,0 6.3,233.73 -154.95,300.96 -161.25,67.23 -428.993,-57.51 -428.993,-57.51 0,0 99.844,-277.98 261.102,-345.21"
         style="fill:#ffffff;fill-opacity:1;fill-rule:nonzero;stroke:none"
         id="path264" />
      <path
         d="m 983.879,2816.81 c 161.251,-67.23 322.841,101.76 322.841,101.76 0,0 6.3,233.73 -154.95,300.96 -161.25,67.23 -428.993,-57.51 -428.993,-57.51 0,0 99.844,-277.98 261.102,-345.21 z"
         style="fill:none;stroke:#2f2e2f;stroke-width:20;stroke-linecap:round;stroke-linejoin:round;stroke-miterlimit:10;stroke-dasharray:none;stroke-opacity:1"
         id="path266" />
      <path
         d="M 893.105,3091.01 1306.72,2918.57"
         style="fill:none;stroke:#2f2e2f;stroke-width:20;stroke-linecap:round;stroke-linejoin:round;stroke-miterlimit:10;stroke-dasharray:none;stroke-opacity:1"
         id="path268" />
      <path
         d="m 985.18,2673.33 c 160.93,67.98 323.33,-100.24 323.33,-100.24 0,0 7.4,-233.7 -153.53,-301.68 -160.937,-67.99 -429.261,55.48 -429.261,55.48 0,0 98.527,278.45 259.461,346.44"
         style="fill:#ffffff;fill-opacity:1;fill-rule:nonzero;stroke:none"
         id="path270" />
      <path
         d="m 985.18,2673.33 c 160.93,67.98 323.33,-100.24 323.33,-100.24 0,0 7.4,-233.7 -153.53,-301.68 -160.937,-67.99 -429.261,55.48 -429.261,55.48 0,0 98.527,278.45 259.461,346.44 z"
         style="fill:none;stroke:#2f2e2f;stroke-width:20;stroke-linecap:round;stroke-linejoin:round;stroke-miterlimit:10;stroke-dasharray:none;stroke-opacity:1"
         id="path272" />
      <path
         d="m 895.707,2398.7 412.803,174.39"
         style="fill:none;stroke:#2f2e2f;stroke-width:20;stroke-linecap:round;stroke-linejoin:round;stroke-miterlimit:10;stroke-dasharray:none;stroke-opacity:1"
         id="path274" />
      <path
         d="m 2283.46,3224.51 c -160.93,-67.99 -153.53,-301.69 -153.53,-301.69 0,0 162.39,-168.22 323.32,-100.24 160.94,67.99 259.46,346.44 259.46,346.44 0,0 -268.32,123.48 -429.25,55.49"
         style="fill:#ffffff;fill-opacity:1;fill-rule:nonzero;stroke:none"
         id="path276" />
      <path
         d="m 2283.46,3224.51 c -160.93,-67.99 -153.53,-301.69 -153.53,-301.69 0,0 162.39,-168.22 323.32,-100.24 160.94,67.99 259.46,346.44 259.46,346.44 0,0 -268.32,123.48 -429.25,55.49 z"
         style="fill:none;stroke:#2f2e2f;stroke-width:20;stroke-linecap:round;stroke-linejoin:round;stroke-miterlimit:10;stroke-dasharray:none;stroke-opacity:1"
         id="path278" />
      <path
         d="M 2542.72,3097.21 2129.93,2922.82"
         style="fill:none;stroke:#2f2e2f;stroke-width:20;stroke-linecap:round;stroke-linejoin:round;stroke-miterlimit:10;stroke-dasharray:none;stroke-opacity:1"
         id="path280" />
      <path
         d="m 1067.18,2402.67 c 123.53,123.54 337.28,28.76 337.28,28.76 0,0 94.77,-213.74 -28.76,-337.28 -123.54,-123.53 -418.598,-110.08 -418.598,-110.08 0,0 -13.457,295.07 110.078,418.6"
         style="fill:#ffffff;fill-opacity:1;fill-rule:nonzero;stroke:none"
         id="path282" />
      <path
         d="m 1067.18,2402.67 c 123.53,123.54 337.28,28.76 337.28,28.76 0,0 94.77,-213.74 -28.76,-337.28 -123.54,-123.53 -418.598,-110.08 -418.598,-110.08 0,0 -13.457,295.07 110.078,418.6 z"
         style="fill:none;stroke:#2f2e2f;stroke-width:20;stroke-linecap:round;stroke-linejoin:round;stroke-miterlimit:10;stroke-dasharray:none;stroke-opacity:1"
         id="path284" />
      <path
         d="m 1087.59,2114.56 316.87,316.87"
         style="fill:none;stroke:#2f2e2f;stroke-width:20;stroke-linecap:round;stroke-linejoin:round;stroke-miterlimit:10;stroke-dasharray:none;stroke-opacity:1"
         id="path286" />
      <path
         d="m 2062.73,3401.76 c -123.53,-123.53 -28.76,-337.28 -28.76,-337.28 0,0 213.75,-94.77 337.29,28.76 123.53,123.54 110.07,418.6 110.07,418.6 0,0 -295.06,13.46 -418.6,-110.08"
         style="fill:#ffffff;fill-opacity:1;fill-rule:nonzero;stroke:none"
         id="path288" />
      <path
         d="m 2062.73,3401.76 c -123.53,-123.53 -28.76,-337.28 -28.76,-337.28 0,0 213.75,-94.77 337.29,28.76 123.53,123.54 110.07,418.6 110.07,418.6 0,0 -295.06,13.46 -418.6,-110.08 z"
         style="fill:none;stroke:#2f2e2f;stroke-width:20;stroke-linecap:round;stroke-linejoin:round;stroke-miterlimit:10;stroke-dasharray:none;stroke-opacity:1"
         id="path290" />
      <path
         d="M 2350.84,3381.35 2033.97,3064.48"
         style="fill:none;stroke:#2f2e2f;stroke-width:20;stroke-linecap:round;stroke-linejoin:round;stroke-miterlimit:10;stroke-dasharray:none;stroke-opacity:1"
         id="path292" />
      <path
         d="m 2064.5,2095.92 c -123.53,123.53 -28.75,337.27 -28.75,337.27 0,0 213.74,94.78 337.28,-28.76 123.53,-123.52 110.07,-418.59 110.07,-418.59 0,0 -295.06,-13.46 -418.6,110.08"
         style="fill:#ffffff;fill-opacity:1;fill-rule:nonzero;stroke:none"
         id="path294" />
      <path
         d="m 2064.5,2095.92 c -123.53,123.53 -28.75,337.27 -28.75,337.27 0,0 213.74,94.78 337.28,-28.76 123.53,-123.52 110.07,-418.59 110.07,-418.59 0,0 -295.06,-13.46 -418.6,110.08 z"
         style="fill:none;stroke:#2f2e2f;stroke-width:20;stroke-linecap:round;stroke-linejoin:round;stroke-miterlimit:10;stroke-dasharray:none;stroke-opacity:1"
         id="path296" />
      <path
         d="m 2352.61,2116.33 -316.86,316.86"
         style="fill:none;stroke:#2f2e2f;stroke-width:20;stroke-linecap:round;stroke-linejoin:round;stroke-miterlimit:10;stroke-dasharray:none;stroke-opacity:1"
         id="path298" />
      <path
         d="m 1065.41,3091.47 c 123.54,-123.53 337.28,-28.76 337.28,-28.76 0,0 94.78,213.75 -28.76,337.29 -123.53,123.53 -418.598,110.07 -418.598,110.07 0,0 -13.457,-295.06 110.078,-418.6"
         style="fill:#ffffff;fill-opacity:1;fill-rule:nonzero;stroke:none"
         id="path300" />
      <path
         d="m 1065.41,3091.47 c 123.54,-123.53 337.28,-28.76 337.28,-28.76 0,0 94.78,213.75 -28.76,337.29 -123.53,123.53 -418.598,110.07 -418.598,110.07 0,0 -13.457,-295.06 110.078,-418.6 z"
         style="fill:none;stroke:#2f2e2f;stroke-width:20;stroke-linecap:round;stroke-linejoin:round;stroke-miterlimit:10;stroke-dasharray:none;stroke-opacity:1"
         id="path302" />
      <path
         d="m 1085.82,3379.58 316.87,-316.87"
         style="fill:none;stroke:#2f2e2f;stroke-width:20;stroke-linecap:round;stroke-linejoin:round;stroke-miterlimit:10;stroke-dasharray:none;stroke-opacity:1"
         id="path304" />
      <path
         d="m 2424.43,2531.05 c -174.7,0 -258.82,218.16 -258.82,218.16 0,0 84.12,218.15 258.82,218.15 174.71,0 373.83,-218.15 373.83,-218.15 0,0 -199.12,-218.16 -373.83,-218.16"
         style="fill:#ffffff;fill-opacity:1;fill-rule:nonzero;stroke:none"
         id="path306" />
      <path
         d="m 2424.43,2531.05 c -174.7,0 -258.82,218.16 -258.82,218.16 0,0 84.12,218.15 258.82,218.15 174.71,0 373.83,-218.15 373.83,-218.15 0,0 -199.12,-218.16 -373.83,-218.16 z"
         style="fill:none;stroke:#2f2e2f;stroke-width:20;stroke-linecap:round;stroke-linejoin:round;stroke-miterlimit:10;stroke-dasharray:none;stroke-opacity:1"
         id="path308" />
      <path
         d="M 2613.73,2749.21 H 2165.61"
         style="fill:none;stroke:#2f2e2f;stroke-width:20;stroke-linecap:round;stroke-linejoin:round;stroke-miterlimit:10;stroke-dasharray:none;stroke-opacity:1"
         id="path310" />
      <path
         d="m 1014,2528.55 c 174.71,0 258.83,218.16 258.83,218.16 0,0 -84.12,218.15 -258.83,218.15 -174.703,0 -373.828,-218.15 -373.828,-218.15 0,0 199.125,-218.16 373.828,-218.16"
         style="fill:#ffffff;fill-opacity:1;fill-rule:nonzero;stroke:none"
         id="path312" />
      <path
         d="m 1014,2528.55 c 174.71,0 258.83,218.16 258.83,218.16 0,0 -84.12,218.15 -258.83,218.15 -174.703,0 -373.828,-218.15 -373.828,-218.15 0,0 199.125,-218.16 373.828,-218.16 z"
         style="fill:none;stroke:#2f2e2f;stroke-width:20;stroke-linecap:round;stroke-linejoin:round;stroke-miterlimit:10;stroke-dasharray:none;stroke-opacity:1"
         id="path314" />
      <path
         d="M 824.707,2746.71 H 1272.83"
         style="fill:none;stroke:#2f2e2f;stroke-width:20;stroke-linecap:round;stroke-linejoin:round;stroke-miterlimit:10;stroke-dasharray:none;stroke-opacity:1"
         id="path316" />
      <path
         d="m 1936.13,3453.17 c 0,-174.7 -218.16,-258.82 -218.16,-258.82 0,0 -218.16,84.12 -218.16,258.82 0,174.71 218.16,373.83 218.16,373.83 0,0 218.16,-199.12 218.16,-373.83"
         style="fill:#ffffff;fill-opacity:1;fill-rule:nonzero;stroke:none"
         id="path318" />
      <path
         d="m 1936.13,3453.17 c 0,-174.7 -218.16,-258.82 -218.16,-258.82 0,0 -218.16,84.12 -218.16,258.82 0,174.71 218.16,373.83 218.16,373.83 0,0 218.16,-199.12 218.16,-373.83 z"
         style="fill:none;stroke:#2f2e2f;stroke-width:20;stroke-linecap:round;stroke-linejoin:round;stroke-miterlimit:10;stroke-dasharray:none;stroke-opacity:1"
         id="path320" />
      <path
         d="M 1717.97,3642.47 V 3194.35"
         style="fill:none;stroke:#2f2e2f;stroke-width:20;stroke-linecap:round;stroke-linejoin:round;stroke-miterlimit:10;stroke-dasharray:none;stroke-opacity:1"
         id="path322" />
      <path
         d="m 1938.63,2042.74 c 0,174.7 -218.16,258.83 -218.16,258.83 0,0 -218.16,-84.13 -218.16,-258.83 0,-174.7 218.16,-373.83 218.16,-373.83 0,0 218.16,199.13 218.16,373.83"
         style="fill:#ffffff;fill-opacity:1;fill-rule:nonzero;stroke:none"
         id="path324" />
      <path
         d="m 1938.63,2042.74 c 0,174.7 -218.16,258.83 -218.16,258.83 0,0 -218.16,-84.13 -218.16,-258.83 0,-174.7 218.16,-373.83 218.16,-373.83 0,0 218.16,199.13 218.16,373.83 z"
         style="fill:none;stroke:#2f2e2f;stroke-width:20;stroke-linecap:round;stroke-linejoin:round;stroke-miterlimit:10;stroke-dasharray:none;stroke-opacity:1"
         id="path326" />
      <path
         d="m 1720.47,1853.45 v 448.12"
         style="fill:none;stroke:#2f2e2f;stroke-width:20;stroke-linecap:round;stroke-linejoin:round;stroke-miterlimit:10;stroke-dasharray:none;stroke-opacity:1"
         id="path328" />
      <path
         d="m 2327.52,2747.96 c 0,-335.96 -272.34,-608.31 -608.3,-608.31 -335.96,0 -608.31,272.35 -608.31,608.31 0,335.96 272.35,608.3 608.31,608.3 335.96,0 608.3,-272.34 608.3,-608.3"
         style="fill:#ffffff;fill-opacity:1;fill-rule:nonzero;stroke:none"
         id="path330" />
      <path
         d="m 2327.52,2747.96 c 0,-335.96 -272.34,-608.31 -608.3,-608.31 -335.96,0 -608.31,272.35 -608.31,608.31 0,335.96 272.35,608.3 608.31,608.3 335.96,0 608.3,-272.34 608.3,-608.3 z"
         style="fill:none;stroke:#2f2e2f;stroke-width:20;stroke-linecap:round;stroke-linejoin:round;stroke-miterlimit:10;stroke-dasharray:none;stroke-opacity:1"
         id="path332" />
      <path
         d="m 1498.74,2705.93 c -3.36,-28.53 -29.22,-48.93 -57.75,-45.57 -28.53,3.36 -48.93,29.22 -45.57,57.75 3.37,28.53 29.22,48.93 57.75,45.57 28.53,-3.37 48.93,-29.22 45.57,-57.75"
         style="fill:#2f2e2f;fill-opacity:1;fill-rule:nonzero;stroke:none"
         id="path334" />
      <path
         d="m 2040.51,2786.57 c -3.36,-28.53 -29.22,-48.93 -57.75,-45.57 -28.53,3.37 -48.93,29.22 -45.57,57.75 3.37,28.54 29.22,48.94 57.75,45.57 28.53,-3.36 48.94,-29.22 45.57,-57.75"
         style="fill:#2f2e2f;fill-opacity:1;fill-rule:nonzero;stroke:none"
         id="path336" />
      <path
         d="m 1534.36,2609.64 c 58.36,-47.92 136.39,-71.12 211.46,-62.87 75.06,8.25 146.19,47.85 192.75,107.31"
         style="fill:none;stroke:#2f2e2f;stroke-width:20;stroke-linecap:round;stroke-linejoin:round;stroke-miterlimit:10;stroke-dasharray:none;stroke-opacity:1"
         id="path338" />
      <path
         d="M 3241.88,250.391 H 1437.43 c -67.64,47.289 -101.04,129.75 -85.65,210.828 15.39,81.082 72.43,151 144.22,191.711 71.78,40.718 156.89,54.109 239.22,48.32 -20.09,96.582 -0.14,213.031 70.5,281.871 70.65,68.849 177.31,98.469 273.34,75.899 96.03,-22.56 178.33,-96.598 210.91,-189.711 67.45,55.66 139.57,97.582 226.64,105.66 87.08,8.07 179.02,-18.68 240.99,-80.399 61.96,-61.718 88.87,-159.629 57.53,-241.269 103.29,84.109 244.51,65.078 346.3,-20.852 101.78,-85.918 146.02,-266.109 80.45,-382.058"
         style="fill:#ffffff;fill-opacity:1;fill-rule:nonzero;stroke:none"
         id="path340" />
      <path
         d="M 3241.88,250.391 H 1437.43 c -67.64,47.289 -101.04,129.75 -85.65,210.828 15.39,81.082 72.43,151 144.22,191.711 71.78,40.718 156.89,54.109 239.22,48.32 -20.09,96.582 -0.14,213.031 70.5,281.871 70.65,68.849 177.31,98.469 273.34,75.899 96.03,-22.56 178.33,-96.598 210.91,-189.711 67.45,55.66 139.57,97.582 226.64,105.66 87.08,8.07 179.02,-18.68 240.99,-80.399 61.96,-61.718 88.87,-159.629 57.53,-241.269 103.29,84.109 244.51,65.078 346.3,-20.852 101.78,-85.918 146.02,-266.109 80.45,-382.058 z"
         style="fill:none;stroke:#2f2e2f;stroke-width:20;stroke-linecap:round;stroke-linejoin:round;stroke-miterlimit:10;stroke-dasharray:none;stroke-opacity:1"
         id="path342" />
      <path
         d="m 1691.46,466.402 c 19.29,-25.683 51.89,-39.754 84,-39.691 32.11,0.051 63.41,13.269 88.34,33.508 27.8,22.562 49.1,57.269 44.18,92.742 -19.72,142.219 -311.43,39.75 -216.52,-86.559"
         style="fill:#ffffff;fill-opacity:1;fill-rule:nonzero;stroke:none"
         id="path344" />
      <path
         d="m 1691.46,466.402 c 19.29,-25.683 51.89,-39.754 84,-39.691 32.11,0.051 63.41,13.269 88.34,33.508 27.8,22.562 49.1,57.269 44.18,92.742 -19.72,142.219 -311.43,39.75 -216.52,-86.559 z"
         style="fill:none;stroke:#2f2e2f;stroke-width:10;stroke-linecap:round;stroke-linejoin:round;stroke-miterlimit:10;stroke-dasharray:none;stroke-opacity:1"
         id="path346" />
      <path
         d="m 1920.9,801.992 c -13.87,-27.953 -11.11,-64.433 9.84,-87.562 17.42,-19.219 44.97,-27.301 70.82,-24.969 25.84,2.328 50.1,14.019 71.21,29.09 14.48,10.34 28,22.597 36.77,38.07 8.78,15.461 12.35,34.52 6.57,51.34 -14.27,41.461 -67.89,47.027 -105.15,49.109 -36.52,2.039 -73.89,-22.511 -90.06,-55.078"
         style="fill:#ffffff;fill-opacity:1;fill-rule:nonzero;stroke:none"
         id="path348" />
      <path
         d="m 1920.9,801.992 c -13.87,-27.953 -11.11,-64.433 9.84,-87.562 17.42,-19.219 44.97,-27.301 70.82,-24.969 25.84,2.328 50.1,14.019 71.21,29.09 14.48,10.34 28,22.597 36.77,38.07 8.78,15.461 12.35,34.52 6.57,51.34 -14.27,41.461 -67.89,47.027 -105.15,49.109 -36.52,2.039 -73.89,-22.511 -90.06,-55.078 z"
         style="fill:none;stroke:#2f2e2f;stroke-width:10;stroke-linecap:round;stroke-linejoin:round;stroke-miterlimit:10;stroke-dasharray:none;stroke-opacity:1"
         id="path350" />
      <path
         d="m 2073.56,566.16 c 6.86,-8.859 18.29,-13.308 29.48,-13.89 11.2,-0.579 22.28,2.269 32.93,5.781 19.68,6.469 40.35,19.051 37.4,42.929 -2.2,17.782 -18.99,36.122 -36.83,38.969 -33.57,5.36 -90.45,-38.359 -62.98,-73.789"
         style="fill:#ffffff;fill-opacity:1;fill-rule:nonzero;stroke:none"
         id="path352" />
      <path
         d="m 2073.56,566.16 c 6.86,-8.859 18.29,-13.308 29.48,-13.89 11.2,-0.579 22.28,2.269 32.93,5.781 19.68,6.469 40.35,19.051 37.4,42.929 -2.2,17.782 -18.99,36.122 -36.83,38.969 -33.57,5.36 -90.45,-38.359 -62.98,-73.789 z"
         style="fill:none;stroke:#2f2e2f;stroke-width:10;stroke-linecap:round;stroke-linejoin:round;stroke-miterlimit:10;stroke-dasharray:none;stroke-opacity:1"
         id="path354" />
      <path
         d="m 2291.75,776.801 c -13.61,-8.68 -23.92,-22.981 -26.13,-38.969 -2.22,-15.98 4.41,-33.312 17.73,-42.422 18.34,-12.539 43.6,-7.441 63.37,2.692 13.59,6.949 26.41,16.378 34.26,29.468 7.85,13.078 9.95,30.301 2.52,43.629 -16.66,29.871 -68.52,20.422 -91.75,5.602"
         style="fill:#ffffff;fill-opacity:1;fill-rule:nonzero;stroke:none"
         id="path356" />
      <path
         d="m 2291.75,776.801 c -13.61,-8.68 -23.92,-22.981 -26.13,-38.969 -2.22,-15.98 4.41,-33.312 17.73,-42.422 18.34,-12.539 43.6,-7.441 63.37,2.692 13.59,6.949 26.41,16.378 34.26,29.468 7.85,13.078 9.95,30.301 2.52,43.629 -16.66,29.871 -68.52,20.422 -91.75,5.602 z"
         style="fill:none;stroke:#2f2e2f;stroke-width:10;stroke-linecap:round;stroke-linejoin:round;stroke-miterlimit:10;stroke-dasharray:none;stroke-opacity:1"
         id="path358" />
      <path
         d="m 2556.91,496.469 c -8.35,-10.629 -10.19,-26 -4.58,-38.321 5.61,-12.308 18.41,-21.007 31.93,-21.687 11.51,-0.57 22.69,4.238 32.29,10.629 10.86,7.23 21,18.191 20.65,31.23 -1,37.328 -60.95,42.77 -80.29,18.149"
         style="fill:#ffffff;fill-opacity:1;fill-rule:nonzero;stroke:none"
         id="path360" />
      <path
         d="m 2556.91,496.469 c -8.35,-10.629 -10.19,-26 -4.58,-38.321 5.61,-12.308 18.41,-21.007 31.93,-21.687 11.51,-0.57 22.69,4.238 32.29,10.629 10.86,7.23 21,18.191 20.65,31.23 -1,37.328 -60.95,42.77 -80.29,18.149 z"
         style="fill:none;stroke:#2f2e2f;stroke-width:10;stroke-linecap:round;stroke-linejoin:round;stroke-miterlimit:10;stroke-dasharray:none;stroke-opacity:1"
         id="path362" />
      <path
         d="m 2945.92,543.32 c -11.88,-25.89 -1.96,-59.8 21.99,-75.218 18.05,-11.622 40.79,-12.704 62.24,-11.793 18.93,0.8 38.27,3 55.3,11.32 17.02,8.332 31.53,23.793 34.32,42.543 3.33,22.348 -10.94,44.66 -30.33,56.289 -38.57,23.18 -121.69,24.469 -143.52,-23.141"
         style="fill:#ffffff;fill-opacity:1;fill-rule:nonzero;stroke:none"
         id="path364" />
      <path
         d="m 2945.92,543.32 c -11.88,-25.89 -1.96,-59.8 21.99,-75.218 18.05,-11.622 40.79,-12.704 62.24,-11.793 18.93,0.8 38.27,3 55.3,11.32 17.02,8.332 31.53,23.793 34.32,42.543 3.33,22.348 -10.94,44.66 -30.33,56.289 -38.57,23.18 -121.69,24.469 -143.52,-23.141 z"
         style="fill:none;stroke:#2f2e2f;stroke-width:10;stroke-linecap:round;stroke-linejoin:round;stroke-miterlimit:10;stroke-dasharray:none;stroke-opacity:1"
         id="path366" />
    </g>
  </g>
</svg>
